{"glyphs":{"0":{"ha":743,"x_min":42,"x_max":701,"o":"m 612 115 q 567 51 612 115 q 371 -14 522 -14 q 131 115 219 -14 q 42 460 42 243 q 131 806 42 678 q 371 935 219 935 q 612 806 522 935 q 701 461 701 678 q 612 115 701 244 m 594 436 q 494 786 594 661 q 371 853 443 853 q 210 751 274 853 q 146 503 146 650 q 244 136 146 264 q 369 68 297 68 q 533 174 471 68 q 594 436 594 279 z "},"1":{"ha":743,"x_min":161,"x_max":597,"o":"m 340 79 l 343 492 q 339 842 343 688 q 165 822 189 826 q 161 853 161 839 q 215 913 161 906 q 389 935 364 935 q 449 882 449 935 q 446 801 449 871 q 438 432 438 593 l 438 346 q 447 75 438 164 q 592 81 543 75 q 597 50 597 64 q 543 -3 597 -3 l 321 0 q 172 -1 215 0 q 165 32 165 19 q 246 79 165 79 l 340 79 z "},"2":{"ha":743,"x_min":57,"x_max":664,"o":"m 132 733 q 79 779 79 740 q 166 884 79 833 q 358 935 253 935 q 541 868 463 935 q 619 681 619 801 q 597 547 619 608 q 516 414 575 486 q 382 272 457 342 q 171 88 307 201 q 329 85 218 85 q 508 92 440 85 q 644 124 576 99 q 664 59 664 89 q 629 17 664 29 q 390 -3 576 -3 q 121 0 203 -3 q 57 65 57 0 q 58 83 57 78 q 428 450 342 346 q 515 649 515 554 q 465 798 515 744 q 350 851 415 851 q 226 819 285 851 q 132 733 168 786 z "},"3":{"ha":743,"x_min":90,"x_max":628,"o":"m 451 506 q 590 403 553 461 q 628 264 628 344 q 540 69 628 151 q 300 -14 453 -14 q 143 13 196 -14 q 90 72 90 39 q 142 124 90 117 q 298 68 189 68 q 464 126 407 68 q 521 261 521 183 q 454 396 521 339 q 269 453 388 453 q 239 456 249 453 q 215 501 215 460 q 217 521 215 513 q 423 576 354 521 q 492 698 492 631 q 451 809 492 765 q 353 853 411 853 q 247 825 296 853 q 168 744 199 797 q 125 758 142 744 q 108 790 108 772 q 185 887 108 839 q 366 935 261 935 q 535 872 471 935 q 599 721 599 808 q 562 599 599 656 q 451 506 525 542 z "},"4":{"ha":743,"x_min":61,"x_max":708,"o":"m 160 379 q 312 375 232 375 q 467 379 392 375 q 471 804 467 567 q 324 619 413 740 q 160 379 235 497 m 460 918 q 514 935 479 935 q 574 932 549 935 q 569 871 574 928 q 561 507 561 722 l 561 383 q 697 407 664 392 q 708 347 708 382 q 678 302 708 313 q 563 290 649 292 q 589 -3 563 85 q 528 -14 564 -14 q 478 4 492 -14 q 464 72 464 22 q 467 289 464 122 q 93 299 172 289 q 61 356 61 303 q 64 394 61 375 q 261 681 124 497 q 460 918 399 864 z "},"5":{"ha":743,"x_min":85,"x_max":624,"o":"m 600 883 q 492 822 600 822 q 235 831 385 822 l 215 588 q 314 596 268 596 q 545 517 467 596 q 624 306 624 439 q 536 79 624 172 q 294 -14 449 -14 q 138 13 190 -14 q 85 72 85 39 q 136 124 85 117 q 292 68 183 68 q 459 135 401 68 q 517 293 517 203 q 450 450 517 383 q 268 517 383 517 q 153 510 208 517 q 139 560 139 524 q 157 922 139 596 q 364 919 197 919 q 586 931 531 919 q 600 883 600 910 z "},"6":{"ha":743,"x_min":82,"x_max":663,"o":"m 556 269 q 556 311 556 269 q 505 409 556 354 q 366 464 454 464 q 186 381 278 464 q 283 94 190 154 q 382 68 324 68 q 510 126 464 68 q 556 269 556 183 m 371 -14 q 231 19 289 -14 q 142 111 172 53 q 82 382 82 221 q 196 761 82 596 q 336 887 250 839 q 525 935 422 935 q 582 886 582 935 q 576 846 582 871 q 521 851 538 851 q 286 738 372 851 q 188 458 200 624 q 399 543 286 543 q 587 472 511 543 q 663 284 663 401 q 583 76 663 167 q 371 -14 503 -14 z "},"7":{"ha":743,"x_min":74,"x_max":675,"o":"m 571 829 q 179 822 358 822 q 74 883 74 822 q 88 931 74 903 q 243 919 156 919 q 664 922 593 919 q 675 872 675 900 q 667 818 675 843 q 296 82 622 679 q 247 8 268 31 q 201 -14 225 -14 q 113 40 161 -14 q 372 416 231 164 q 571 829 513 668 z "},"8":{"ha":743,"x_min":69,"x_max":661,"o":"m 386 553 q 522 733 522 611 q 476 822 522 790 q 364 853 429 853 q 253 822 299 853 q 207 733 207 790 q 386 553 207 625 m 174 249 q 174 211 174 249 q 226 120 174 172 q 365 68 278 68 q 503 120 451 68 q 554 248 554 172 q 503 372 554 324 q 343 468 451 421 q 216 378 258 431 q 174 249 174 326 m 584 60 q 545 23 584 60 q 365 -14 507 -14 q 147 60 224 -14 q 69 237 69 133 q 122 402 69 340 q 267 504 174 464 q 144 601 183 550 q 106 739 106 653 q 181 880 106 825 q 364 935 257 935 q 547 880 471 935 q 624 738 624 825 q 456 517 624 588 q 610 405 558 468 q 661 238 661 342 q 584 60 661 133 z "},"9":{"ha":743,"x_min":61,"x_max":642,"o":"m 168 653 q 168 611 168 653 q 219 513 168 568 q 358 458 269 458 q 538 542 446 458 q 439 828 533 768 q 342 854 400 854 q 214 797 260 854 q 168 653 168 739 m 353 936 q 493 903 435 936 q 583 811 551 869 q 642 540 642 701 q 528 161 642 326 q 388 35 474 83 q 199 -12 301 -12 q 142 36 142 -12 q 147 76 142 51 q 203 71 186 71 q 438 185 351 71 q 536 464 524 299 q 325 379 438 379 q 137 450 213 379 q 61 638 61 521 q 141 846 61 756 q 353 936 221 936 z "}," ":{"ha":319,"x_min":0,"x_max":0,"o":""},"!":{"ha":432,"x_min":139,"x_max":307,"o":"m 283 11 q 270 -1 283 11 q 224 -14 258 -14 q 164 11 189 -14 q 139 74 139 36 q 164 137 139 111 q 224 163 189 163 q 283 137 258 163 q 307 74 307 111 q 283 11 307 36 m 165 486 q 140 942 165 836 q 213 951 189 951 q 278 883 278 951 q 265 727 278 844 q 253 510 253 610 l 253 449 q 275 276 253 338 q 224 263 247 263 q 167 329 168 263 q 165 486 165 347 z "},"\"":{"ha":479,"x_min":69,"x_max":424,"o":"m 89 756 q 89 785 89 756 q 79 885 89 814 q 69 975 69 956 q 88 1009 69 994 q 133 1024 107 1024 q 176 1008 160 1024 q 193 947 193 993 q 167 728 193 901 q 150 681 161 694 q 120 668 139 668 q 85 674 101 668 q 89 756 89 699 m 319 756 q 319 785 319 756 q 310 885 319 814 q 300 975 300 956 q 319 1009 300 994 q 364 1024 338 1024 q 407 1008 390 1024 q 424 947 424 993 q 397 728 424 901 q 381 681 392 694 q 351 668 369 668 q 315 674 332 668 q 319 756 319 699 z "},"#":{"ha":743,"x_min":19,"x_max":743,"o":"m 286 378 q 451 379 415 378 q 472 540 460 429 q 354 542 436 542 l 311 542 q 286 378 293 440 m 701 328 q 698 319 701 328 q 680 303 694 310 q 647 296 665 296 q 504 303 629 296 q 490 150 490 182 q 496 68 490 118 q 451 57 476 57 q 410 103 410 57 q 439 306 410 124 q 321 307 403 307 l 276 307 q 261 144 261 169 q 267 68 261 118 q 222 57 247 57 q 181 103 181 57 q 210 306 181 124 q 24 281 94 300 q 19 325 19 294 q 99 381 19 381 q 222 379 179 381 l 243 540 q 57 515 128 535 q 53 561 53 529 q 140 617 53 617 l 253 615 q 278 847 274 768 q 315 851 297 851 q 358 807 358 851 q 324 614 358 797 l 482 614 q 494 720 483 626 q 507 847 506 814 q 544 851 526 851 q 588 807 588 851 q 554 617 588 804 q 743 625 718 624 q 740 578 742 594 q 722 547 738 563 q 685 531 706 531 q 539 538 664 531 q 515 379 526 463 q 710 389 642 385 q 701 328 707 346 z "},"$":{"ha":743,"x_min":85,"x_max":639,"o":"m 329 535 l 329 847 q 237 802 272 840 q 201 697 201 764 q 234 595 201 631 q 329 535 267 560 m 383 403 l 383 68 q 495 115 451 72 q 539 235 539 158 q 499 345 539 311 q 383 403 460 379 m 544 739 q 481 810 525 781 q 383 846 436 839 l 383 515 q 583 417 528 475 q 639 253 639 358 q 570 71 639 149 q 385 -12 501 -7 q 390 -106 388 -74 l 369 -108 q 329 -71 329 -108 l 329 -14 q 158 26 232 -11 q 85 114 85 64 q 101 156 85 142 q 150 188 117 171 q 221 112 171 143 q 329 71 271 81 l 329 418 q 244 449 276 435 q 175 493 213 464 q 101 683 101 550 q 165 850 101 788 q 328 926 228 913 q 322 1022 325 992 q 346 1026 336 1026 q 383 989 383 1026 l 383 932 q 544 898 471 932 q 618 806 618 864 q 544 739 618 753 z "},"%":{"ha":1044,"x_min":69,"x_max":975,"o":"m 975 217 q 975 164 975 217 q 922 49 975 111 q 777 -14 868 -14 q 633 49 686 -14 q 579 217 579 111 q 633 385 579 324 q 777 447 686 447 q 922 385 868 447 q 975 217 975 322 m 775 56 q 800 56 775 56 q 854 99 825 56 q 883 208 883 142 q 856 326 883 274 q 779 379 828 379 q 699 338 731 379 q 668 230 668 296 q 697 110 668 164 q 775 56 725 56 m 210 35 l 621 683 q 788 961 726 851 q 831 947 811 960 q 850 919 850 935 q 840 888 850 903 l 429 238 q 263 -40 331 82 q 199 1 203 -28 q 210 35 199 18 m 465 693 q 465 640 465 693 q 412 525 465 588 q 267 463 358 463 q 123 525 176 463 q 69 694 69 588 q 123 862 69 800 q 267 924 176 924 q 412 861 358 924 q 465 693 465 799 m 265 532 q 290 532 265 532 q 344 575 315 532 q 374 684 374 618 q 346 803 374 750 q 269 856 318 856 q 190 814 221 856 q 158 706 158 772 q 187 586 158 640 q 265 532 215 532 z "},"&":{"ha":856,"x_min":69,"x_max":814,"o":"m 383 592 q 398 603 383 592 q 439 656 413 615 q 465 745 465 697 q 436 828 465 793 q 347 863 407 863 q 217 732 217 863 q 299 532 217 671 q 383 592 353 568 m 263 415 q 174 253 174 340 q 232 115 174 167 q 377 64 290 64 q 525 108 464 64 q 263 415 382 244 m 219 481 q 121 723 121 628 q 188 876 121 818 q 355 935 256 935 q 508 883 454 935 q 563 758 563 831 q 544 672 563 714 q 505 602 526 629 q 444 544 483 575 q 338 471 401 510 q 588 186 457 297 q 613 305 613 240 q 600 397 613 369 q 650 414 631 414 q 710 332 710 414 q 656 135 710 218 q 811 78 742 78 q 814 44 814 64 q 797 5 814 24 q 746 -14 781 -14 q 585 57 678 -14 q 369 -14 492 -14 q 158 53 247 -14 q 69 238 69 119 q 109 374 69 318 q 219 481 149 431 z "},"'":{"ha":332,"x_min":83,"x_max":207,"o":"m 103 756 q 103 785 103 756 q 93 885 103 814 q 83 975 83 956 q 102 1009 83 994 q 147 1024 121 1024 q 190 1008 174 1024 q 207 947 207 993 q 181 728 207 901 q 164 681 175 694 q 134 668 153 668 q 99 674 115 668 q 103 756 103 699 z "},"(":{"ha":476,"x_min":125,"x_max":417,"o":"m 222 -86 q 202 -43 222 -86 q 153 124 182 0 q 125 367 125 249 q 153 607 125 485 q 221 816 182 729 q 301 959 260 903 q 369 1015 343 1015 q 417 983 394 1015 q 278 713 331 886 q 225 361 225 540 q 279 14 225 182 q 417 -250 333 -154 q 369 -282 394 -282 q 303 -227 344 -282 q 222 -86 263 -172 z "},")":{"ha":444,"x_min":28,"x_max":319,"o":"m 224 816 q 243 773 224 816 q 291 607 263 729 q 319 367 319 485 q 291 124 319 249 q 222 -86 263 0 q 141 -227 182 -172 q 75 -282 100 -282 q 28 -250 50 -282 q 165 14 111 -154 q 219 361 219 182 q 167 713 219 540 q 28 983 114 886 q 76 1015 50 1015 q 143 959 101 1015 q 224 816 185 903 z "},"*":{"ha":564,"x_min":49,"x_max":501,"o":"m 279 736 q 174 563 257 706 q 126 592 147 572 q 104 631 104 611 q 124 674 104 651 q 178 730 144 697 q 222 772 213 763 q 49 836 178 792 q 71 894 54 868 q 107 919 88 919 q 142 912 126 919 q 194 879 157 904 q 246 844 231 854 q 225 1025 243 882 q 269 1032 249 1032 q 335 978 335 1032 q 317 840 335 964 q 461 943 344 858 q 501 868 501 908 q 469 822 501 839 q 338 768 431 801 q 482 636 368 736 q 406 579 450 579 q 371 598 388 579 q 323 667 354 617 q 279 736 292 717 z "},"+":{"ha":743,"x_min":68,"x_max":675,"o":"m 421 618 l 411 389 q 671 400 575 389 q 675 360 675 388 q 661 317 675 333 q 625 300 647 300 q 410 310 625 300 q 421 36 410 158 q 378 32 400 32 q 338 45 356 32 q 321 82 321 58 l 331 311 q 72 300 193 310 q 68 342 68 321 q 81 382 68 364 q 118 400 93 400 l 332 390 q 321 664 332 568 q 360 668 333 668 q 404 654 388 668 q 421 618 421 640 z "},",":{"ha":315,"x_min":38,"x_max":235,"o":"m 149 -31 q 81 51 149 38 q 67 100 67 74 q 90 147 67 126 q 149 167 114 167 q 209 135 183 167 q 235 26 235 103 q 187 -125 235 -51 q 74 -199 139 -199 q 38 -157 38 -199 q 39 -140 38 -146 l 46 -140 q 119 -107 90 -140 q 149 -31 149 -74 z "},"-":{"ha":319,"x_min":35,"x_max":313,"o":"m 85 408 l 200 403 q 308 413 265 403 q 313 374 313 400 q 299 332 313 347 q 263 317 285 317 l 156 324 q 39 313 90 324 q 35 355 35 333 q 47 392 35 376 q 85 408 58 408 z "},".":{"ha":321,"x_min":69,"x_max":238,"o":"m 213 11 q 201 -1 213 11 q 154 -14 189 -14 q 94 11 119 -14 q 69 74 69 36 q 94 137 69 111 q 154 163 119 163 q 213 137 189 163 q 238 74 238 111 q 213 11 238 36 z "},"/":{"ha":358,"x_min":58,"x_max":310,"o":"m 179 157 q 138 -165 149 -46 q 104 -169 119 -169 q 58 -131 58 -169 q 189 704 58 -121 q 231 1026 219 907 l 260 1031 q 310 993 310 1031 l 179 157 z "},":":{"ha":321,"x_min":69,"x_max":238,"o":"m 213 11 q 201 -1 213 11 q 154 -14 189 -14 q 94 11 119 -14 q 69 74 69 36 q 94 137 69 111 q 154 163 119 163 q 213 137 189 163 q 238 74 238 111 q 213 11 238 36 m 213 513 q 201 500 213 513 q 154 488 189 488 q 94 513 119 488 q 69 575 69 538 q 94 638 69 613 q 154 664 119 664 q 213 638 189 664 q 238 575 238 613 q 213 513 238 538 z "},";":{"ha":342,"x_min":38,"x_max":235,"o":"m 209 513 q 197 500 209 513 q 150 488 185 488 q 90 513 115 488 q 65 575 65 538 q 90 638 65 613 q 150 664 115 664 q 209 638 185 664 q 233 575 233 613 q 209 513 233 538 m 149 -31 q 81 51 149 38 q 67 100 67 74 q 90 147 67 126 q 149 167 114 167 q 209 135 183 167 q 235 26 235 103 q 187 -125 235 -51 q 74 -199 139 -199 q 38 -157 38 -199 q 39 -140 38 -146 l 46 -140 q 119 -107 90 -140 q 149 -31 149 -74 z "},"<":{"ha":743,"x_min":147,"x_max":554,"o":"m 554 608 l 253 349 q 554 72 304 297 q 486 25 529 25 q 451 40 467 25 l 147 349 l 451 640 q 488 656 469 656 q 526 641 507 656 q 554 608 544 626 z "},"=":{"ha":743,"x_min":96,"x_max":647,"o":"m 597 161 l 381 172 q 100 161 222 172 q 96 203 96 182 q 108 243 96 225 q 146 261 121 261 q 233 256 150 261 q 438 251 317 251 q 643 261 558 251 q 647 222 647 249 q 633 178 647 194 q 597 161 619 161 m 597 439 l 381 450 q 100 439 222 450 q 96 481 96 460 q 108 521 96 503 q 146 539 121 539 q 233 534 150 539 q 438 529 317 529 q 643 539 558 529 q 647 499 647 526 q 633 456 647 472 q 597 439 619 439 z "},">":{"ha":743,"x_min":167,"x_max":574,"o":"m 468 349 q 167 608 468 349 q 195 641 176 626 q 233 656 214 656 q 269 640 251 656 l 574 349 l 269 40 q 235 25 254 25 q 167 72 192 25 q 468 349 417 297 z "},"?":{"ha":531,"x_min":56,"x_max":503,"o":"m 304 276 q 251 263 275 263 q 188 357 188 263 q 263 525 188 440 q 325 594 293 560 q 400 768 400 679 q 351 856 400 826 q 275 872 322 872 q 180 844 228 872 q 119 768 132 815 q 56 829 56 778 q 117 917 56 885 q 267 950 178 950 q 419 913 357 950 q 503 765 503 864 q 481 653 503 703 q 427 571 458 603 q 364 510 396 539 q 289 364 289 439 q 304 276 289 322 m 312 11 q 300 -1 312 11 q 253 -14 288 -14 q 193 11 218 -14 q 168 74 168 36 q 193 137 168 111 q 253 163 218 163 q 312 137 288 163 q 336 74 336 111 q 312 11 336 36 z "},"@":{"ha":1196,"x_min":124,"x_max":1071,"o":"m 504 75 q 393 126 436 75 q 350 272 350 176 q 424 515 350 414 q 612 615 497 615 q 814 551 726 615 q 763 239 763 346 q 817 163 763 163 q 923 236 872 163 q 974 444 974 310 q 897 660 974 579 q 660 742 819 742 q 426 666 531 742 q 270 480 322 590 q 218 242 218 369 q 299 24 218 115 q 539 -67 381 -67 q 678 -36 615 -67 q 764 44 742 -6 q 824 -22 824 19 q 740 -114 824 -76 q 543 -151 656 -151 q 231 -36 338 -151 q 124 250 124 79 q 163 451 124 351 q 270 634 201 551 q 447 768 339 717 q 681 819 554 819 q 965 720 860 819 q 1071 469 1071 621 q 980 206 1071 317 q 796 96 889 96 q 676 203 703 96 q 504 75 606 75 m 668 283 q 683 396 674 319 q 694 494 692 472 q 590 533 647 533 q 490 469 532 533 q 447 301 447 406 q 468 200 447 240 q 525 160 489 160 q 600 192 561 160 q 668 283 639 224 z "},"A":{"ha":765,"x_min":7,"x_max":790,"o":"m 539 372 q 396 790 492 496 q 332 613 383 758 q 242 372 281 467 q 424 369 350 369 q 539 372 497 369 m 568 290 q 379 288 413 288 q 207 290 346 288 q 90 -29 114 56 q 26 -7 44 -19 q 7 24 7 6 q 67 182 7 43 q 343 917 267 653 q 403 921 369 921 q 450 909 436 921 q 479 847 464 897 q 655 335 567 565 q 790 14 743 106 q 724 -14 751 -14 q 664 24 679 -14 q 568 290 638 92 z "},"B":{"ha":760,"x_min":96,"x_max":697,"o":"m 311 850 q 217 844 278 850 q 222 532 222 728 q 299 529 267 529 q 557 688 557 529 q 311 850 557 850 m 378 71 q 529 122 468 71 q 590 265 590 172 q 522 408 590 357 q 358 460 453 460 q 221 453 263 460 q 203 121 221 342 q 280 85 229 100 q 378 71 331 71 m 96 74 q 118 514 118 232 q 100 918 118 796 q 338 935 203 935 q 568 879 472 935 q 664 690 664 824 q 543 503 664 557 q 697 265 697 438 q 612 60 697 133 q 403 -14 526 -14 q 96 74 201 -14 z "},"C":{"ha":836,"x_min":68,"x_max":775,"o":"m 714 186 q 775 115 775 161 q 696 27 775 68 q 500 -14 617 -14 q 186 117 304 -14 q 68 466 68 249 q 186 809 68 683 q 506 935 304 935 q 688 891 614 935 q 761 783 761 847 q 682 714 761 726 q 599 816 656 782 q 478 850 542 850 q 265 747 347 850 q 182 477 182 643 q 265 191 182 311 q 499 71 349 71 q 623 100 565 71 q 714 186 681 129 z "},"D":{"ha":882,"x_min":92,"x_max":814,"o":"m 92 74 q 113 492 111 200 q 96 918 114 783 q 299 935 179 935 q 506 911 419 935 q 663 835 592 888 q 774 689 735 783 q 814 463 814 594 q 703 120 814 254 q 394 -14 592 -14 q 92 74 197 -14 m 213 844 q 218 529 218 749 q 199 121 218 310 q 372 71 274 71 q 535 104 471 71 q 633 194 599 138 q 697 435 697 300 q 594 746 697 642 q 301 850 492 850 q 213 844 271 850 z "},"E":{"ha":675,"x_min":92,"x_max":633,"o":"m 108 79 l 111 311 l 111 589 q 92 913 111 788 q 417 925 240 925 q 619 904 594 925 q 632 864 632 893 q 621 807 632 835 q 363 836 542 836 q 210 832 289 836 q 215 538 215 771 l 325 538 q 492 543 442 538 q 497 503 497 532 q 483 464 497 475 q 434 451 468 453 q 338 450 400 450 l 215 450 q 225 86 215 147 q 324 83 286 83 q 622 115 557 83 q 633 58 633 88 q 621 18 633 29 q 407 -3 596 -3 q 177 -1 218 -3 q 122 19 136 1 q 108 79 108 38 z "},"F":{"ha":632,"x_min":92,"x_max":632,"o":"m 108 75 l 111 321 l 111 589 q 92 913 111 788 q 417 925 240 925 q 619 904 594 925 q 632 864 632 893 q 621 807 632 835 q 363 836 542 836 q 210 832 289 836 q 215 667 215 771 l 215 524 l 325 524 q 492 529 440 524 q 497 485 497 518 q 475 444 497 453 q 372 436 453 436 l 215 436 l 215 282 q 242 7 215 94 q 176 -4 217 -4 q 122 14 136 -4 q 108 75 108 32 z "},"G":{"ha":854,"x_min":68,"x_max":785,"o":"m 775 118 q 696 27 775 68 q 500 -14 617 -14 q 186 117 304 -14 q 68 466 68 249 q 186 809 68 683 q 506 935 304 935 q 688 891 614 935 q 761 783 761 847 q 682 714 761 726 q 599 816 656 782 q 478 850 542 850 q 265 747 347 850 q 182 477 182 643 q 265 191 182 311 q 497 71 349 71 q 676 138 608 71 q 667 418 674 311 q 717 422 690 422 q 785 369 785 422 l 781 281 q 775 118 775 192 z "},"H":{"ha":871,"x_min":92,"x_max":779,"o":"m 99 75 l 101 321 l 101 599 q 92 921 101 794 q 149 925 115 925 q 217 872 217 925 q 214 817 217 865 q 206 543 206 668 q 427 540 272 540 q 649 543 582 540 l 649 614 q 639 921 647 814 q 696 925 663 925 q 764 872 764 925 q 761 817 764 864 q 753 561 753 672 l 753 282 q 779 7 753 94 q 714 -4 754 -4 q 660 14 674 -4 q 646 75 646 32 q 649 321 646 75 l 649 461 q 425 458 578 458 q 206 461 272 458 l 206 282 q 232 7 206 94 q 167 -4 207 -4 q 113 14 126 -4 q 99 75 99 32 z "},"I":{"ha":307,"x_min":92,"x_max":232,"o":"m 99 75 l 101 321 l 101 599 q 92 921 101 794 q 149 925 115 925 q 217 872 217 925 q 214 817 217 864 q 206 561 206 672 l 206 282 q 232 7 206 94 q 167 -4 207 -4 q 113 14 126 -4 q 99 75 99 32 z "},"J":{"ha":308,"x_min":-53,"x_max":217,"o":"m 103 189 l 101 599 q 92 921 101 794 q 149 925 115 925 q 217 872 217 925 q 214 821 217 865 q 206 585 206 688 l 206 154 q 189 18 206 78 q 148 -75 172 -42 q 94 -131 124 -108 q 4 -165 44 -165 q -53 -86 -47 -165 q 68 -28 28 -69 q 101 96 97 3 q 103 189 103 126 z "},"K":{"ha":715,"x_min":92,"x_max":715,"o":"m 99 75 l 101 321 l 101 599 q 92 921 101 794 q 139 925 119 925 q 217 872 217 925 q 214 813 217 865 q 206 519 206 654 q 439 731 325 615 q 578 922 553 847 q 650 869 650 910 q 553 726 650 829 q 325 514 456 624 q 579 135 479 257 q 606 106 596 114 q 678 76 636 76 q 710 81 694 76 q 715 39 715 61 q 692 1 715 17 q 633 -14 668 -14 q 508 57 574 -14 q 396 201 450 119 q 297 353 342 283 q 239 443 253 422 q 206 418 215 425 l 206 282 q 232 7 206 94 q 168 -4 210 -4 q 113 15 126 -4 q 99 75 99 33 z "},"L":{"ha":596,"x_min":92,"x_max":596,"o":"m 99 79 l 101 311 l 101 599 q 92 921 101 794 q 149 925 115 925 q 217 872 217 925 q 214 817 217 864 q 206 561 206 672 l 206 436 q 215 86 206 147 q 307 83 274 83 q 586 115 524 83 q 596 58 596 86 q 583 18 596 29 q 382 -3 560 -3 q 165 -1 204 -3 q 112 19 125 1 q 99 79 99 38 z "},"M":{"ha":1107,"x_min":92,"x_max":1015,"o":"m 115 75 l 118 321 l 118 671 q 92 915 118 826 q 172 926 136 926 q 271 860 231 926 q 381 629 325 765 q 467 399 436 493 q 556 128 499 306 q 672 500 599 300 q 835 860 744 700 q 936 926 872 926 q 1014 915 983 926 q 989 606 989 832 l 989 282 q 1015 7 989 94 q 950 -4 990 -4 q 896 14 910 -4 q 882 58 882 32 q 883 172 882 85 q 885 775 885 435 q 606 3 757 518 q 568 -3 589 -3 q 499 33 514 -3 q 373 367 465 108 q 208 772 281 626 l 208 282 q 235 7 208 94 q 176 -4 210 -4 q 129 14 143 -4 q 115 75 115 32 z "},"N":{"ha":874,"x_min":92,"x_max":767,"o":"m 674 165 q 665 515 665 265 l 665 599 q 656 921 665 794 q 699 925 679 925 q 767 872 767 925 q 764 817 767 864 q 756 561 756 672 l 756 324 q 765 1 756 128 q 719 -4 743 -4 q 647 33 672 -4 q 450 369 590 121 q 210 767 310 617 q 208 282 208 714 q 235 7 208 94 q 176 -4 210 -4 q 129 14 143 -4 q 115 75 115 32 l 118 321 l 118 599 q 92 915 118 831 q 151 926 118 926 q 200 917 185 926 q 413 627 260 881 q 674 165 565 374 z "},"O":{"ha":989,"x_min":68,"x_max":921,"o":"m 921 461 q 921 353 921 461 q 805 115 921 244 q 494 -14 689 -14 q 183 115 299 -14 q 68 461 68 244 q 183 806 68 678 q 494 935 299 935 q 805 806 689 935 q 921 461 921 678 m 735 715 q 638 813 700 776 q 494 850 575 850 q 267 752 351 850 q 182 503 182 654 q 251 210 182 338 q 348 108 286 146 q 492 71 410 71 q 723 172 642 71 q 804 433 804 272 q 735 715 804 593 z "},"P":{"ha":700,"x_min":92,"x_max":671,"o":"m 214 457 q 361 422 275 422 q 501 477 447 422 q 554 625 554 532 q 494 801 554 753 q 308 850 435 850 q 208 844 272 850 q 214 561 214 764 l 214 457 m 107 75 l 110 321 l 110 599 q 92 918 110 790 q 299 935 194 935 q 671 635 671 935 q 584 414 671 490 q 390 338 497 338 q 214 382 282 338 l 214 282 q 240 7 214 94 q 175 -4 215 -4 q 121 14 135 -4 q 107 75 107 32 z "},"Q":{"ha":989,"x_min":68,"x_max":921,"o":"m 735 715 q 638 813 700 776 q 494 850 575 850 q 267 752 351 850 q 182 503 182 654 q 251 210 182 338 q 348 108 286 146 q 492 71 410 71 q 723 172 642 71 q 804 433 804 272 q 735 715 804 593 m 451 -12 q 172 128 275 1 q 68 467 68 256 q 183 806 68 678 q 494 935 299 935 q 805 806 689 935 q 921 467 921 678 q 817 131 921 257 q 538 -11 714 4 q 597 -103 554 -72 q 695 -133 639 -133 q 781 -122 751 -133 q 849 -81 810 -111 q 876 -110 863 -89 q 889 -144 889 -131 q 833 -199 889 -179 q 706 -218 776 -218 q 537 -162 604 -218 q 451 -12 469 -107 z "},"R":{"ha":736,"x_min":92,"x_max":729,"o":"m 107 75 l 110 321 l 110 599 q 92 918 110 790 q 299 935 194 935 q 671 658 671 935 q 608 474 671 544 q 443 385 546 404 q 467 333 443 383 q 499 267 490 283 q 528 213 508 250 q 590 117 564 143 q 679 76 626 76 q 717 81 696 76 q 729 39 729 56 q 625 -14 729 -14 q 519 42 568 -14 q 474 96 493 72 q 428 169 456 119 q 390 241 401 219 q 353 320 379 263 q 322 386 326 378 q 283 417 283 392 q 290 454 283 429 q 356 447 329 447 q 501 502 449 447 q 554 660 554 557 q 496 806 554 763 q 317 850 438 850 q 208 844 272 850 q 214 561 214 764 l 214 282 q 240 7 214 94 q 175 -4 215 -4 q 121 14 135 -4 q 107 75 107 32 z "},"S":{"ha":719,"x_min":63,"x_max":657,"o":"m 557 740 q 472 816 533 786 q 343 846 411 846 q 227 807 275 846 q 179 702 179 768 q 215 599 179 636 q 303 548 250 563 q 418 513 356 533 q 533 469 481 492 q 622 393 586 447 q 657 263 657 339 q 629 131 657 186 q 554 46 601 76 q 345 -14 463 -14 q 145 24 228 -14 q 63 117 63 63 q 97 171 63 149 q 133 190 108 178 q 228 106 160 139 q 372 74 297 74 q 501 116 446 74 q 557 231 557 158 q 508 341 557 303 q 388 399 458 379 q 248 442 318 418 q 128 522 178 465 q 79 671 79 578 q 163 867 79 799 q 378 935 247 935 q 555 901 474 935 q 636 810 636 868 q 557 740 636 754 z "},"T":{"ha":646,"x_min":0,"x_max":646,"o":"m 269 75 l 272 321 l 272 599 q 268 836 272 728 q 4 831 71 836 q 0 869 0 843 q 15 906 0 896 q 63 917 29 915 q 210 918 96 918 l 374 918 q 642 922 593 918 q 646 884 646 910 q 631 849 646 858 q 579 838 617 839 q 386 836 542 836 q 376 561 376 638 l 376 282 q 403 7 376 94 q 338 -4 378 -4 q 283 14 297 -4 q 269 75 269 32 z "},"U":{"ha":894,"x_min":100,"x_max":803,"o":"m 111 267 l 124 696 q 100 914 124 828 q 165 925 128 925 q 222 909 203 925 q 240 844 240 893 q 230 591 240 794 q 219 283 219 388 q 276 126 219 178 q 403 75 332 75 q 549 108 474 75 q 671 186 624 142 l 672 364 l 672 599 q 663 921 672 794 q 719 925 686 925 q 788 872 788 925 q 785 821 788 869 q 776 444 776 675 q 781 141 776 214 q 803 7 785 68 q 738 -4 778 -4 q 684 13 699 -4 q 669 78 669 31 l 669 93 q 536 16 614 46 q 393 -14 458 -14 q 187 48 263 -14 q 111 267 111 110 z "},"V":{"ha":775,"x_min":-28,"x_max":761,"o":"m 643 926 q 708 935 682 935 q 761 867 761 935 q 664 458 761 714 q 465 72 567 201 q 407 11 431 26 q 360 -4 383 -4 q 306 -1 336 -4 q 154 511 261 222 q -28 874 47 800 q 73 925 31 925 q 140 865 115 925 q 268 514 194 742 q 383 118 342 286 q 557 453 465 210 q 649 857 649 697 q 643 926 649 907 z "},"W":{"ha":1308,"x_min":-28,"x_max":1281,"o":"m 1163 926 q 1226 935 1201 935 q 1281 875 1281 935 q 1190 459 1281 714 q 1000 72 1099 204 q 944 11 965 26 q 899 -4 922 -4 q 847 -1 875 -4 q 674 611 793 290 q 563 306 629 457 q 449 91 497 156 q 378 11 400 26 q 334 -4 357 -4 q 283 -1 311 -4 q 142 510 243 221 q -28 874 42 800 q 72 925 29 925 q 139 865 114 925 q 256 519 190 744 q 361 118 321 294 q 519 452 436 208 q 603 856 603 696 q 597 926 603 906 q 661 935 636 935 q 715 875 715 935 q 708 796 715 835 q 925 118 800 651 q 1084 453 1000 210 q 1168 856 1168 696 q 1163 926 1168 906 z "},"X":{"ha":800,"x_min":35,"x_max":792,"o":"m 35 60 q 343 479 35 142 q 42 869 139 807 q 144 935 94 935 q 215 876 174 935 q 417 563 304 749 q 556 766 494 657 q 625 933 617 875 q 724 856 724 914 q 643 703 724 818 q 467 481 563 589 q 792 46 683 111 q 701 -14 739 -14 q 624 40 663 -14 q 393 396 542 149 q 232 192 314 319 q 131 -14 150 64 q 35 60 35 4 z "},"Y":{"ha":696,"x_min":-14,"x_max":689,"o":"m 689 871 q 583 674 689 836 q 399 418 478 513 l 399 300 q 425 7 399 97 q 360 -4 400 -4 q 306 14 319 -4 q 292 75 292 32 q 294 322 293 203 l 294 408 q -14 860 93 788 q 17 896 7 888 q 36 913 26 904 q 74 926 53 926 q 140 879 108 926 q 363 501 224 758 q 505 735 429 589 q 583 933 581 882 q 689 871 689 926 z "},"Z":{"ha":743,"x_min":36,"x_max":715,"o":"m 693 900 q 715 843 715 875 q 692 781 715 811 l 131 79 q 243 74 181 74 q 682 118 513 74 q 696 55 696 82 q 672 17 696 28 q 403 -8 619 -8 q 61 8 186 -8 q 36 82 36 42 q 71 165 36 122 l 594 833 q 425 842 529 842 q 78 804 229 842 q 64 863 64 838 q 104 913 64 901 q 349 926 163 926 q 693 900 536 926 z "},"[":{"ha":528,"x_min":208,"x_max":472,"o":"m 300 922 l 300 -186 q 399 -183 353 -183 q 459 -195 446 -183 q 472 -228 472 -207 q 467 -264 472 -249 l 208 -264 l 208 1000 l 467 1000 q 472 964 472 989 q 412 919 472 919 q 300 922 351 919 z "},"\\":{"ha":358,"x_min":49,"x_max":300,"o":"m 179 157 q 49 993 49 972 q 99 1031 49 1031 q 128 1026 115 1031 q 169 704 139 907 q 300 -131 300 -121 q 254 -169 300 -169 q 221 -165 239 -169 q 179 157 210 -46 z "},"]":{"ha":486,"x_min":42,"x_max":306,"o":"m 214 -186 l 214 922 q 117 919 163 919 q 57 930 72 919 q 42 964 42 940 q 47 1000 42 988 l 306 1000 l 306 -264 l 47 -264 q 42 -228 42 -249 q 101 -183 42 -183 q 214 -186 161 -183 z "},"^":{"ha":653,"x_min":35,"x_max":618,"o":"m 328 808 q 72 579 114 579 q 35 601 57 579 q 166 767 67 656 q 326 938 265 878 q 487 767 388 878 q 618 601 586 656 q 585 579 596 579 q 558 588 574 579 q 523 615 543 597 q 483 649 503 632 q 439 692 464 667 q 398 735 414 718 q 358 776 382 751 q 328 808 335 801 z "},"_":{"ha":743,"x_min":0,"x_max":743,"o":"m 693 -211 l 483 -200 l 285 -200 q 4 -211 126 -200 q 0 -169 0 -190 q 13 -129 0 -147 q 50 -111 25 -111 q 138 -116 54 -111 q 282 -121 221 -121 l 479 -121 q 739 -111 656 -121 q 743 -151 743 -124 q 729 -194 743 -178 q 693 -211 715 -211 z "},"`":{"ha":279,"x_min":-69,"x_max":194,"o":"m -21 975 q 88 874 31 918 q 169 810 144 831 q 194 769 194 790 q 172 729 194 749 q 66 796 133 758 q -35 858 -1 833 q -69 915 -69 883 q -21 975 -69 947 z "},"a":{"ha":644,"x_min":63,"x_max":568,"o":"m 544 433 l 542 246 q 568 7 542 86 q 515 -4 546 -4 q 471 10 483 -4 q 454 57 458 25 q 276 -14 368 -14 q 63 182 63 -14 q 96 286 63 253 q 188 336 129 319 q 451 374 292 364 q 422 537 451 492 q 299 582 393 582 q 218 557 260 582 q 156 485 176 532 q 92 540 92 497 q 158 627 92 594 q 329 660 225 660 q 489 610 433 660 q 544 433 544 561 m 450 303 q 390 296 410 299 q 335 289 369 293 q 285 281 301 285 q 244 269 268 276 q 208 254 219 263 q 183 236 196 246 q 160 182 160 217 q 196 90 160 119 q 288 60 232 60 q 447 122 382 60 q 446 193 446 142 q 450 303 446 244 z "},"b":{"ha":706,"x_min":83,"x_max":651,"o":"m 193 586 q 406 660 294 660 q 584 581 517 660 q 651 349 651 503 q 576 90 651 194 q 354 -14 501 -14 q 96 81 207 -14 q 106 333 106 164 q 99 739 106 503 q 83 1028 92 975 q 133 1032 100 1032 q 196 979 196 1032 q 194 796 196 961 q 193 586 193 631 m 194 508 l 196 303 q 192 136 196 192 q 369 64 274 64 q 509 144 464 64 q 554 341 554 224 q 504 520 554 458 q 379 582 454 582 q 194 508 279 582 z "},"c":{"ha":621,"x_min":63,"x_max":567,"o":"m 363 64 q 447 82 404 64 q 508 136 490 100 q 564 81 564 114 q 501 10 564 35 q 358 -14 438 -14 q 147 69 232 -14 q 63 315 63 151 q 90 472 63 403 q 164 581 118 540 q 368 660 257 660 q 503 628 439 660 q 567 538 567 596 q 500 478 567 488 q 441 555 486 528 q 346 582 396 582 q 215 513 268 582 q 161 319 161 444 q 217 129 161 194 q 363 64 274 64 z "},"d":{"ha":717,"x_min":63,"x_max":633,"o":"m 619 979 l 607 310 q 633 7 607 78 q 581 -4 611 -4 q 519 65 522 -4 q 331 -14 436 -14 q 144 81 226 -14 q 63 325 63 176 q 148 567 63 474 q 354 660 233 660 q 515 613 438 660 q 518 815 518 701 q 507 1028 518 928 q 557 1032 529 1032 q 619 979 619 1032 m 513 540 q 369 582 439 582 q 216 516 272 582 q 160 334 160 450 q 218 139 160 218 q 359 60 276 60 q 515 139 442 60 q 513 540 513 497 z "},"e":{"ha":653,"x_min":63,"x_max":590,"o":"m 372 660 q 530 605 469 660 q 590 486 590 550 q 571 386 590 422 q 520 329 551 350 q 431 297 489 308 q 164 281 342 281 q 224 122 175 181 q 371 64 274 64 q 508 136 468 64 q 564 75 564 114 q 501 11 564 36 q 360 -14 438 -14 q 146 69 229 -14 q 63 317 63 151 q 155 572 63 483 q 372 660 247 660 m 367 583 q 224 526 283 583 q 163 350 165 469 q 426 379 361 350 q 474 415 454 392 q 494 478 494 439 q 458 551 494 518 q 367 583 421 583 z "},"f":{"ha":421,"x_min":7,"x_max":469,"o":"m 117 68 l 119 568 q 11 561 74 568 q 7 599 7 575 q 58 643 7 638 q 119 646 89 646 q 181 928 119 854 q 347 993 236 993 q 433 978 397 993 q 469 936 469 963 q 442 872 469 910 q 325 915 394 915 q 233 867 256 915 q 211 711 211 818 l 211 646 q 400 651 346 646 q 406 616 406 640 q 391 582 406 592 q 338 571 376 572 q 211 569 300 569 l 211 281 q 238 7 211 96 q 179 -4 213 -4 q 131 13 146 -4 q 117 68 117 29 z "},"g":{"ha":719,"x_min":49,"x_max":692,"o":"m 197 -51 q 146 -182 146 -128 q 314 -272 146 -272 q 500 -233 436 -272 q 564 -143 564 -194 q 538 -75 564 -92 q 456 -58 511 -58 l 313 -58 q 197 -51 233 -58 m 330 242 q 372 242 330 242 q 453 281 414 242 q 492 398 492 319 q 447 529 492 476 q 324 582 401 582 q 158 424 158 582 q 202 293 158 344 q 330 242 246 242 m 325 164 q 249 172 283 164 q 212 115 228 147 q 196 67 196 83 q 288 32 196 32 l 447 32 q 653 -117 653 32 q 552 -285 653 -221 q 316 -350 451 -350 q 115 -303 181 -350 q 49 -181 49 -256 q 140 -33 49 -106 q 99 31 99 -3 q 194 190 99 83 q 61 411 61 250 q 136 588 61 517 q 320 660 211 660 q 499 606 429 660 q 624 683 557 683 q 672 671 651 683 q 692 637 692 658 q 681 586 692 615 q 632 589 669 589 q 543 561 594 589 q 589 411 589 497 q 511 231 589 297 q 325 164 433 164 z "},"h":{"ha":701,"x_min":83,"x_max":618,"o":"m 496 67 l 504 440 q 467 542 504 503 q 384 582 429 582 q 282 556 339 582 q 189 490 225 531 q 183 203 183 293 q 193 1 183 113 q 146 -3 171 -3 q 83 50 83 -3 q 86 172 83 61 q 97 722 97 503 q 86 1028 97 940 q 136 1032 108 1032 q 199 981 199 1032 q 189 574 199 931 q 413 660 289 660 q 600 443 600 660 l 594 217 q 618 7 594 89 q 559 -4 590 -4 q 512 12 528 -4 q 496 67 496 28 z "},"i":{"ha":296,"x_min":74,"x_max":219,"o":"m 99 75 l 101 321 q 92 646 101 519 q 139 650 114 650 q 204 597 204 650 q 201 542 204 590 q 193 244 193 393 q 219 7 193 94 q 160 -4 194 -4 q 113 14 126 -4 q 99 75 99 32 m 217 798 q 217 782 217 798 q 194 745 217 767 q 144 724 172 724 q 94 744 115 724 q 74 797 74 765 q 96 851 74 829 q 147 872 118 872 q 196 851 175 872 q 217 798 217 829 z "},"j":{"ha":313,"x_min":-187,"x_max":229,"o":"m 115 -110 l 111 321 q 101 646 111 519 q 149 650 124 650 q 214 597 214 650 q 211 550 214 592 q 203 264 203 422 l 208 -100 q 147 -287 208 -222 q -28 -351 86 -351 q -140 -331 -92 -351 q -187 -278 -187 -310 q -151 -221 -187 -247 q -8 -279 -94 -279 q 81 -239 47 -279 q 115 -110 115 -199 m 229 798 q 229 782 229 798 q 207 745 229 767 q 156 724 185 724 q 107 744 128 724 q 86 797 86 765 q 108 851 86 829 q 159 872 131 872 q 208 851 188 872 q 229 798 229 829 z "},"k":{"ha":663,"x_min":83,"x_max":625,"o":"m 92 68 l 94 465 l 94 626 q 83 1028 94 954 q 132 1032 106 1032 q 196 979 196 1032 q 194 915 196 974 q 186 567 186 701 q 399 660 285 660 q 536 610 489 660 q 583 483 583 561 q 531 342 583 404 q 386 271 479 281 q 497 110 460 149 q 576 72 533 72 q 613 78 599 72 q 625 33 625 53 q 596 -1 625 13 q 540 -14 567 -14 q 440 36 486 -14 q 363 140 394 86 q 310 228 331 193 q 282 275 289 263 q 246 304 246 279 q 253 338 246 319 q 324 328 297 328 q 442 370 400 328 q 483 464 483 413 q 455 549 483 515 q 378 582 426 582 q 276 553 329 582 q 186 482 224 525 l 186 281 q 213 7 186 96 q 154 -4 188 -4 q 106 13 121 -4 q 92 68 92 29 z "},"l":{"ha":296,"x_min":83,"x_max":213,"o":"m 92 68 l 94 465 l 94 626 q 83 1028 94 954 q 132 1032 106 1032 q 196 979 196 1032 q 194 906 196 974 q 186 497 186 653 l 186 281 q 213 7 186 96 q 154 -4 188 -4 q 106 13 121 -4 q 92 68 92 29 z "},"m":{"ha":1074,"x_min":83,"x_max":990,"o":"m 868 67 l 876 426 q 844 544 876 506 q 758 582 811 582 q 586 508 678 582 q 589 208 589 319 q 597 1 589 96 q 550 -3 575 -3 q 488 50 488 -3 q 489 106 488 56 q 494 426 494 225 q 372 582 494 582 q 201 506 293 582 q 204 206 204 317 q 213 1 204 96 q 165 -3 190 -3 q 103 50 103 -3 q 106 152 103 56 q 110 344 110 249 q 83 639 110 572 q 133 650 111 650 q 197 581 197 650 q 300 638 240 615 q 415 660 360 660 q 569 569 529 660 q 674 633 607 607 q 809 660 742 660 q 924 613 876 660 q 971 464 971 567 l 967 217 q 990 7 967 89 q 931 -4 963 -4 q 884 12 900 -4 q 868 67 868 28 z "},"n":{"ha":721,"x_min":83,"x_max":638,"o":"m 515 67 l 524 426 q 485 543 524 504 q 388 582 447 582 q 201 506 293 582 q 204 206 204 317 q 213 1 204 96 q 165 -3 190 -3 q 103 50 103 -3 q 106 152 103 56 q 110 344 110 249 q 83 639 110 572 q 133 650 111 650 q 197 581 197 650 q 304 636 239 613 q 442 660 369 660 q 566 613 514 660 q 618 464 618 567 l 614 217 q 638 7 614 89 q 578 -4 610 -4 q 531 12 547 -4 q 515 67 515 28 z "},"o":{"ha":729,"x_min":63,"x_max":667,"o":"m 667 322 q 667 246 667 322 q 583 78 667 169 q 365 -14 500 -14 q 146 78 229 -14 q 63 322 63 169 q 146 567 63 475 q 365 660 229 660 q 583 567 500 660 q 667 322 667 475 m 365 64 q 413 64 365 64 q 515 129 461 64 q 569 308 569 194 q 514 502 569 422 q 363 582 458 582 q 213 516 267 582 q 160 336 160 450 q 214 143 160 222 q 365 64 268 64 z "},"p":{"ha":718,"x_min":83,"x_max":656,"o":"m 106 -272 l 110 346 q 83 639 110 565 q 138 650 108 650 q 197 581 197 650 q 412 660 303 660 q 588 585 521 660 q 656 360 656 511 q 524 40 656 143 q 365 -14 454 -14 q 201 33 275 -14 q 211 -259 201 -203 q 229 -340 221 -315 q 169 -351 204 -351 q 119 -333 133 -351 q 106 -272 106 -315 m 204 106 q 371 64 268 64 q 478 106 433 64 q 557 339 557 183 q 509 523 557 464 q 376 582 461 582 q 201 506 292 582 q 204 106 204 200 z "},"q":{"ha":719,"x_min":63,"x_max":636,"o":"m 519 54 q 336 -14 444 -14 q 145 82 228 -14 q 63 328 63 178 q 149 569 63 478 q 364 660 235 660 q 635 565 519 660 q 613 28 613 328 q 636 -340 613 -271 q 575 -351 608 -351 q 514 -281 514 -351 q 517 -96 514 -211 q 519 54 519 19 m 356 582 q 217 516 274 582 q 160 335 160 450 q 217 142 160 219 q 363 64 275 64 q 521 140 450 64 q 535 515 522 290 q 356 582 463 582 z "},"r":{"ha":438,"x_min":83,"x_max":424,"o":"m 90 75 l 93 321 q 83 646 93 519 q 131 650 106 650 q 190 597 190 650 q 190 578 190 594 q 189 549 189 563 q 263 626 217 592 q 349 660 310 660 q 424 606 424 660 q 396 543 424 579 q 328 569 365 569 q 251 539 290 569 q 186 458 213 508 q 185 253 185 411 q 211 7 185 94 q 152 -4 186 -4 q 104 14 118 -4 q 90 75 90 32 z "},"s":{"ha":568,"x_min":56,"x_max":511,"o":"m 431 492 q 368 557 415 532 q 272 582 321 582 q 188 556 222 582 q 153 486 153 531 q 190 418 153 442 q 279 382 226 394 q 385 353 332 369 q 474 296 438 338 q 511 188 511 254 q 440 38 511 89 q 278 -14 369 -14 q 122 18 188 -14 q 56 97 56 50 q 118 156 56 138 q 184 88 133 111 q 294 64 235 64 q 391 90 354 64 q 428 165 428 117 q 391 236 428 214 q 301 270 354 258 q 196 298 249 282 q 106 358 143 314 q 69 480 69 403 q 141 608 69 557 q 290 660 213 660 q 431 631 368 660 q 493 554 493 601 q 431 492 493 507 z "},"t":{"ha":489,"x_min":0,"x_max":468,"o":"m 133 571 q 4 561 129 571 q 0 601 0 574 q 21 637 0 628 q 92 646 42 646 l 131 646 q 122 801 128 739 q 168 806 143 806 q 235 753 235 806 q 229 644 235 733 q 463 651 406 644 q 468 616 468 640 q 453 582 468 592 q 399 571 439 572 q 226 569 360 569 q 224 277 224 419 q 251 97 224 135 q 338 60 278 60 q 440 101 399 60 q 465 49 465 75 q 429 4 465 22 q 342 -14 393 -14 q 178 53 226 -14 q 131 251 131 119 q 133 571 133 503 z "},"u":{"ha":719,"x_min":83,"x_max":636,"o":"m 615 597 l 610 282 q 636 7 610 106 q 585 -4 608 -4 q 521 65 521 -4 q 300 -14 421 -14 q 103 182 103 -14 l 107 429 q 83 639 107 556 q 142 650 111 650 q 190 634 174 650 q 206 579 206 618 q 197 219 206 579 q 234 104 197 144 q 329 64 271 64 q 517 140 429 64 q 515 363 515 200 q 506 646 515 525 q 553 650 528 650 q 615 597 615 650 z "},"v":{"ha":610,"x_min":-4,"x_max":563,"o":"m 511 660 q 563 607 563 660 q 494 324 563 513 q 353 50 425 136 q 308 7 326 18 q 269 -4 290 -4 q 226 0 247 -4 q 121 362 194 160 q -4 615 47 564 q 72 653 38 653 q 128 604 107 653 q 214 375 157 538 q 299 100 271 213 q 413 333 356 174 q 471 610 471 493 q 467 653 471 632 q 511 660 488 660 z "},"w":{"ha":963,"x_min":-4,"x_max":915,"o":"m 864 660 q 915 608 915 660 q 891 463 915 557 q 832 276 867 368 q 672 7 743 57 q 635 -4 656 -4 q 594 0 615 -4 q 485 397 558 183 q 325 50 408 156 q 283 7 299 18 q 247 -4 267 -4 q 206 0 226 -4 q 108 363 175 160 q -4 615 42 565 q 72 653 38 653 q 128 604 107 653 q 203 378 153 542 q 278 100 253 214 q 382 333 329 174 q 435 608 435 493 q 431 653 435 632 q 475 660 451 660 q 526 604 526 660 q 525 539 526 549 q 599 354 557 486 q 667 100 640 222 q 771 333 718 174 q 824 608 824 493 q 819 653 824 632 q 864 660 840 660 z "},"x":{"ha":601,"x_min":35,"x_max":581,"o":"m 454 660 q 532 607 532 646 q 353 342 532 544 q 581 40 500 90 q 508 -14 540 -14 q 447 25 475 -14 q 289 269 393 99 q 176 120 232 204 q 110 -14 121 36 q 35 39 35 -1 q 81 132 35 75 q 145 212 126 189 q 206 281 164 235 q 251 331 249 328 q 39 607 111 561 q 114 660 82 660 q 175 622 146 660 q 314 406 242 524 q 408 547 367 474 q 454 660 449 621 z "},"y":{"ha":613,"x_min":0,"x_max":571,"o":"m 522 660 q 571 599 571 660 q 522 383 571 539 q 404 82 472 226 q 174 -312 282 -178 q 119 -349 146 -349 q 43 -293 81 -349 q 154 -185 85 -267 q 275 -22 224 -104 q 143 345 226 139 q 0 608 60 551 q 80 653 49 653 q 133 608 111 653 q 232 376 167 542 q 329 100 297 210 q 434 378 389 229 q 479 613 479 526 q 476 653 479 619 q 522 660 497 660 z "},"z":{"ha":631,"x_min":35,"x_max":547,"o":"m 525 626 q 547 563 547 604 q 524 499 547 522 l 114 72 q 207 68 161 68 q 515 110 356 68 q 528 60 528 85 q 516 24 528 36 q 492 8 504 13 q 288 -8 429 -8 q 56 8 147 -8 q 35 79 35 38 q 65 151 35 121 l 469 567 q 319 575 392 575 q 75 542 175 575 q 64 603 63 572 q 99 644 65 633 q 269 654 132 654 q 525 626 406 654 z "},"{":{"ha":592,"x_min":97,"x_max":521,"o":"m 253 397 q 318 339 288 385 q 349 250 349 293 l 349 -26 q 351 -68 349 -56 q 363 -94 353 -81 q 454 -115 378 -115 q 505 -126 489 -115 q 521 -160 521 -136 q 515 -196 521 -185 q 465 -197 497 -197 q 300 -160 344 -197 q 256 -43 256 -124 l 256 247 q 215 326 256 289 q 97 363 175 363 l 97 432 q 216 469 175 432 q 257 549 257 507 l 257 839 q 301 956 257 919 q 465 993 344 993 q 515 992 497 993 q 521 956 521 981 q 505 922 521 932 q 435 911 489 911 q 365 893 382 911 q 347 822 347 875 l 347 546 q 317 456 347 503 q 253 397 288 410 z "},"|":{"ha":743,"x_min":318,"x_max":425,"o":"m 329 189 l 329 617 q 318 1018 329 944 q 360 1022 340 1022 q 424 969 424 1022 q 422 894 424 964 q 414 488 414 643 l 414 60 q 425 -342 414 -268 q 383 -346 403 -346 q 319 -293 319 -346 q 322 -219 319 -287 q 329 189 329 -47 z "},"}":{"ha":561,"x_min":42,"x_max":465,"o":"m 310 397 q 245 456 275 410 q 215 546 215 503 l 215 822 q 213 863 215 850 q 200 889 211 876 q 128 911 183 911 q 58 922 74 911 q 42 956 42 932 q 47 992 42 981 q 97 993 65 993 q 262 956 218 993 q 306 839 306 919 l 306 549 q 347 469 306 507 q 465 432 388 432 l 465 363 q 347 326 388 363 q 307 247 307 289 l 307 -43 q 263 -160 307 -124 q 97 -197 218 -197 q 47 -196 65 -197 q 42 -160 42 -185 q 58 -126 42 -136 q 110 -115 74 -115 q 169 -111 147 -115 q 200 -94 190 -107 q 212 -68 210 -81 q 214 -26 214 -56 l 214 250 q 244 339 214 293 q 310 397 275 385 z "},"~":{"ha":758,"x_min":56,"x_max":703,"o":"m 56 371 q 192 457 56 457 q 373 429 263 457 q 535 401 483 401 q 676 450 626 401 q 703 376 703 415 q 653 317 703 338 q 547 296 603 296 q 386 324 492 296 q 224 351 281 351 q 82 303 132 351 q 56 371 56 338 z "},"¡":{"ha":432,"x_min":125,"x_max":293,"o":"m 149 635 q 161 647 149 635 q 208 660 174 660 q 268 635 243 660 q 293 572 293 610 q 268 509 293 535 q 208 483 243 483 q 149 509 174 483 q 125 572 125 535 q 149 635 125 610 m 267 158 q 292 -294 267 -192 q 219 -304 243 -304 q 154 -236 154 -304 q 167 -81 154 -197 q 179 136 179 36 l 179 197 q 157 369 179 308 q 208 383 185 383 q 265 317 264 383 q 267 158 267 299 z "},"¢":{"ha":743,"x_min":83,"x_max":653,"o":"m 368 719 q 239 636 289 700 q 189 466 189 572 q 239 296 189 360 q 368 211 289 232 l 368 719 m 593 633 q 433 729 524 729 l 422 729 l 422 203 l 436 203 q 593 299 525 203 q 653 235 653 285 q 578 155 653 185 q 433 125 503 125 l 422 125 q 429 8 424 75 l 408 6 q 368 43 368 6 l 368 131 q 165 232 246 149 q 83 465 83 315 q 165 699 83 615 q 368 801 247 783 q 361 929 367 835 q 385 933 375 933 q 422 896 422 933 l 422 807 l 433 807 q 578 777 503 807 q 653 697 653 747 q 593 633 653 647 z "},"£":{"ha":743,"x_min":97,"x_max":650,"o":"m 569 543 q 575 506 575 532 q 558 470 575 479 q 492 461 540 461 q 408 463 443 461 q 415 403 415 431 q 203 76 415 250 q 324 72 235 72 q 629 117 510 72 q 650 58 650 86 q 613 14 650 29 q 382 -4 563 -4 q 110 13 201 -4 q 97 69 97 29 q 251 214 196 129 q 306 371 306 299 q 289 467 306 414 q 139 461 201 467 q 135 483 135 474 q 181 520 135 517 q 267 524 228 524 q 246 569 261 536 q 225 619 231 603 q 204 711 204 674 q 265 864 204 793 q 418 935 325 935 q 492 915 458 935 q 526 856 526 894 q 479 796 526 818 q 386 844 450 844 q 322 821 349 844 q 296 760 296 797 q 310 688 296 722 q 350 606 325 653 q 388 528 375 558 q 569 543 508 535 z "},"¥":{"ha":743,"x_min":10,"x_max":679,"o":"m 311 272 l 299 272 q 75 265 153 272 q 71 289 71 281 q 108 326 71 326 l 313 326 l 313 425 l 299 425 q 75 418 153 425 q 71 442 71 433 q 108 479 71 479 l 285 479 q 10 872 119 794 q 90 928 44 928 q 151 878 118 928 q 378 504 272 701 q 517 736 443 592 q 594 932 592 881 q 615 933 600 933 q 679 879 679 933 q 602 713 679 847 q 450 479 525 578 q 651 486 578 479 l 654 465 q 617 425 654 425 l 406 425 l 406 326 l 426 326 q 651 333 572 326 l 654 313 q 617 272 654 272 l 406 272 q 431 7 406 89 q 372 -4 406 -4 q 310 64 310 -4 q 311 272 311 165 z "},"¦":{"ha":743,"x_min":318,"x_max":425,"o":"m 319 461 l 329 742 l 329 783 q 318 1019 329 946 q 360 1024 340 1024 q 424 971 424 1024 l 414 733 l 414 679 q 425 413 414 513 q 383 408 403 408 q 319 461 319 408 m 319 -293 l 329 -12 l 329 31 q 318 267 329 193 q 360 271 340 271 q 424 218 424 271 l 414 -19 l 414 -75 q 425 -342 414 -242 q 383 -346 403 -346 q 319 -293 319 -346 z "},"§":{"ha":618,"x_min":63,"x_max":549,"o":"m 179 564 q 160 483 160 533 q 206 397 160 432 q 330 328 251 363 q 446 261 408 293 q 465 338 465 293 q 434 416 465 383 q 363 464 403 449 q 179 564 231 517 m 203 278 q 176 291 203 278 q 113 349 150 303 q 76 473 76 394 q 142 610 76 551 q 107 739 107 678 q 171 879 107 825 q 339 933 235 933 q 467 904 404 933 q 529 828 529 875 q 467 765 529 781 q 404 831 451 806 q 306 856 357 856 q 222 831 256 856 q 189 758 189 807 q 215 674 189 710 q 282 619 242 639 q 369 576 322 600 q 456 530 415 553 q 522 464 496 507 q 549 363 549 421 q 485 215 549 276 q 521 94 521 156 q 457 -49 521 10 q 294 -108 393 -108 q 128 -76 194 -108 q 63 3 63 -44 q 125 61 63 43 q 310 -29 157 -29 q 400 -3 365 -29 q 435 78 435 22 q 398 171 435 133 q 308 231 361 208 q 203 278 256 254 z "},"¨":{"ha":357,"x_min":-18,"x_max":372,"o":"m 372 798 q 372 782 372 798 q 350 745 372 767 q 299 724 328 724 q 250 744 271 724 q 229 797 229 765 q 251 851 229 829 q 302 872 274 872 q 351 851 331 872 q 372 798 372 829 m 125 798 q 125 782 125 798 q 103 745 125 767 q 52 724 81 724 q 3 744 24 724 q -18 797 -18 765 q 4 851 -18 829 q 55 872 26 872 q 104 851 83 872 q 125 798 125 829 z "},"©":{"ha":1233,"x_min":181,"x_max":1142,"o":"m 817 271 q 857 217 857 249 q 806 160 857 185 q 693 136 754 136 q 583 152 632 136 q 490 202 533 168 q 419 298 446 236 q 393 442 393 360 q 480 680 393 599 q 676 761 567 761 q 825 711 767 761 q 858 649 858 685 q 799 593 858 601 q 748 658 786 636 q 667 679 710 679 q 555 618 600 679 q 510 445 510 557 q 565 276 510 333 q 700 218 621 218 q 817 271 779 218 m 661 32 q 741 32 661 32 q 931 146 821 32 q 1042 444 1042 260 q 931 742 1042 628 q 661 857 821 857 q 391 743 501 857 q 281 444 281 629 q 391 146 281 260 q 661 32 501 32 m 661 936 q 763 936 661 936 q 1003 796 864 936 q 1142 446 1142 656 q 1002 94 1142 236 q 660 -47 863 -47 q 319 94 458 -47 q 181 445 181 235 q 319 796 181 656 q 661 936 458 936 z "},"ª":{"ha":419,"x_min":42,"x_max":378,"o":"m 328 356 l 206 367 q 46 356 115 367 q 42 390 42 372 q 54 423 42 408 q 92 438 67 438 q 142 433 94 438 q 258 428 189 428 q 374 438 326 428 q 378 403 378 422 q 365 370 378 385 q 328 356 351 356 m 347 768 l 346 665 q 360 533 346 575 q 322 528 343 528 q 279 561 283 528 q 181 522 232 522 q 60 632 60 522 q 131 719 60 701 q 278 739 190 736 q 263 819 278 797 q 211 840 247 840 q 114 790 136 840 q 72 824 72 800 q 114 874 72 856 q 218 893 156 893 q 314 866 281 893 q 347 768 347 839 m 275 694 q 144 661 163 682 q 136 635 136 651 q 197 574 136 574 q 272 603 247 574 l 272 638 q 275 694 272 675 z "},"«":{"ha":658,"x_min":56,"x_max":575,"o":"m 428 326 q 526 193 476 267 q 575 101 575 119 q 547 61 575 82 q 318 326 456 138 q 547 592 456 515 q 575 552 575 571 q 526 460 575 533 q 428 326 476 386 m 165 326 q 263 193 214 267 q 313 101 313 119 q 285 61 313 82 q 56 326 193 138 q 285 592 193 515 q 313 552 313 571 q 263 460 313 533 q 165 326 214 386 z "},"¬":{"ha":743,"x_min":69,"x_max":624,"o":"m 621 450 l 624 142 q 611 87 624 103 q 568 71 599 71 q 515 82 538 71 q 539 328 539 160 l 539 378 l 218 378 q 79 357 140 378 q 69 399 69 381 q 128 450 69 450 l 621 450 z "},"®":{"ha":843,"x_min":139,"x_max":774,"o":"m 624 427 q 658 462 624 427 q 692 611 692 497 q 624 795 692 725 q 456 865 556 865 q 289 795 357 865 q 221 611 221 725 q 289 427 221 497 q 456 357 357 357 q 624 427 556 357 m 681 842 q 727 795 681 842 q 774 611 774 749 q 681 381 774 474 q 456 288 589 288 q 231 381 322 288 q 139 612 139 474 q 231 842 139 750 q 456 935 322 935 q 681 842 589 935 m 333 483 l 336 567 l 336 663 q 331 775 336 735 q 443 782 417 782 q 593 682 593 782 q 504 589 593 607 q 569 500 532 542 q 600 489 581 489 q 603 474 603 483 q 567 449 603 449 q 508 483 532 449 q 476 528 504 490 q 438 583 447 567 q 407 588 421 583 l 407 551 q 418 458 407 490 q 376 451 406 451 q 333 483 333 451 m 407 624 q 456 618 435 618 q 501 633 478 618 q 524 682 524 649 q 438 738 524 738 q 406 735 428 738 q 407 624 407 721 z "},"¯":{"ha":378,"x_min":0,"x_max":378,"o":"m 42 854 l 183 846 l 214 846 q 375 854 306 846 q 378 817 378 836 q 336 765 378 765 q 308 767 332 765 q 178 774 235 774 l 147 774 q 3 765 64 774 q 0 803 0 779 q 42 854 0 854 z "},"°":{"ha":564,"x_min":67,"x_max":490,"o":"m 187 867 q 170 845 187 867 q 153 760 153 824 q 185 656 153 696 q 276 615 217 615 q 369 658 336 615 q 403 764 403 700 q 372 869 403 828 q 281 910 340 910 q 187 867 221 910 m 278 549 q 231 549 278 549 q 126 608 185 549 q 67 760 67 668 q 127 915 67 853 q 281 976 188 976 q 432 916 374 976 q 490 763 490 856 q 431 610 490 671 q 278 549 371 549 z "},"±":{"ha":743,"x_min":82,"x_max":661,"o":"m 583 8 l 367 19 q 86 8 208 19 q 82 51 82 29 q 94 90 82 72 q 132 108 107 108 q 219 103 136 108 q 424 99 303 99 q 629 108 544 99 q 633 69 633 96 q 619 25 633 42 q 583 8 606 8 m 421 618 l 411 444 q 657 456 561 444 q 661 416 661 443 q 647 372 661 389 q 611 356 633 356 l 410 365 q 421 161 410 283 q 378 157 400 157 q 338 170 356 157 q 321 199 321 183 q 325 260 321 215 q 331 367 329 304 q 86 356 210 365 q 82 398 82 376 q 94 438 82 419 q 132 456 107 456 l 332 446 q 321 664 332 568 q 360 668 333 668 q 404 654 388 668 q 421 618 421 640 z "},"²":{"ha":625,"x_min":83,"x_max":535,"o":"m 146 763 q 101 801 101 767 q 165 890 101 844 q 308 935 228 935 q 440 888 389 935 q 492 759 492 840 q 413 576 492 678 q 172 382 333 475 q 290 381 213 381 q 517 414 442 381 q 535 360 535 386 q 503 322 535 335 q 335 306 458 306 q 147 307 211 306 q 83 364 83 308 q 85 388 83 383 q 321 577 240 479 q 401 754 401 675 q 369 833 401 803 q 294 864 338 864 q 210 835 250 864 q 146 763 169 806 z "},"³":{"ha":589,"x_min":83,"x_max":492,"o":"m 231 656 q 351 688 311 663 q 390 764 390 713 q 367 840 390 815 q 276 864 343 864 q 149 790 210 864 q 104 835 104 799 q 133 883 104 861 q 294 935 201 935 q 433 894 386 935 q 481 786 481 854 q 361 636 481 675 q 460 573 428 615 q 492 478 492 531 q 431 346 492 403 q 256 289 369 289 q 135 313 188 289 q 83 370 83 336 q 122 417 83 404 q 264 360 176 360 q 363 391 325 360 q 401 478 401 422 q 238 603 401 603 q 210 612 215 603 q 204 634 204 621 q 206 654 204 647 q 231 656 221 654 z "},"´":{"ha":279,"x_min":83,"x_max":349,"o":"m 300 975 q 349 915 349 947 q 316 860 349 883 q 203 791 283 838 q 106 728 124 744 q 83 769 83 747 q 106 809 83 792 q 185 869 128 826 q 300 975 243 913 z "},"µ":{"ha":713,"x_min":76,"x_max":629,"o":"m 608 597 l 603 282 q 629 7 603 106 q 578 -4 601 -4 q 514 65 514 -4 q 414 8 472 31 q 290 -14 356 -14 q 176 28 224 -14 q 165 -71 165 -19 q 217 -340 165 -196 q 156 -351 192 -351 q 107 -333 121 -351 q 93 -272 93 -315 q 96 183 93 -81 l 100 429 q 76 639 100 556 q 135 650 104 650 q 183 634 167 650 q 199 579 199 618 l 190 219 q 227 104 190 144 q 322 64 264 64 q 510 140 422 64 q 508 363 508 200 q 499 646 508 525 q 546 650 521 650 q 608 597 608 650 z "},"¶":{"ha":671,"x_min":63,"x_max":643,"o":"m 313 799 l 515 793 q 636 794 593 793 q 643 761 643 774 q 563 714 643 714 l 532 714 q 514 231 514 503 l 519 -104 q 506 -156 519 -137 q 458 -175 492 -175 q 397 -164 425 -175 q 421 211 421 -97 q 435 714 421 519 q 358 717 371 714 q 344 326 344 590 q 282 303 344 303 q 127 370 192 303 q 63 549 63 438 q 134 730 63 661 q 313 799 206 799 z "},"·":{"ha":279,"x_min":56,"x_max":224,"o":"m 199 299 q 187 286 199 299 q 140 274 175 274 q 81 299 106 274 q 56 361 56 324 q 81 424 56 399 q 140 450 106 450 q 199 424 175 450 q 224 361 224 399 q 199 299 224 324 z "},"¸":{"ha":215,"x_min":42,"x_max":257,"o":"m 128 44 l 179 38 q 154 -42 154 -37 q 155 -50 154 -46 q 158 -57 156 -54 q 163 -62 161 -60 q 169 -69 164 -65 q 175 -74 174 -72 q 192 -83 186 -81 q 257 -179 257 -121 q 209 -280 257 -237 q 90 -322 161 -322 q 42 -287 42 -322 q 60 -247 42 -265 q 103 -260 81 -260 q 172 -204 172 -260 q 130 -137 172 -172 q 88 -75 88 -101 q 128 44 88 -29 z "},"¹":{"ha":532,"x_min":97,"x_max":435,"o":"m 232 376 l 235 642 q 231 857 235 764 q 106 831 136 842 q 97 864 97 847 q 144 915 97 904 q 275 935 235 935 q 325 888 325 935 q 322 838 325 881 q 315 607 315 731 l 315 542 q 324 372 315 429 q 429 378 376 372 q 435 350 435 361 q 386 303 435 303 l 214 306 q 106 304 144 306 q 99 333 99 322 q 172 376 99 376 l 232 376 z "},"º":{"ha":438,"x_min":42,"x_max":396,"o":"m 338 356 l 215 367 q 56 356 125 367 q 51 390 51 372 q 64 423 51 408 q 101 438 76 438 q 151 433 104 438 q 267 428 199 428 q 383 438 336 428 q 388 403 388 422 q 374 370 388 385 q 338 356 361 356 m 396 707 q 396 665 396 707 q 347 572 396 622 q 219 522 299 522 q 90 573 139 522 q 42 708 42 624 q 90 842 42 792 q 219 893 139 893 q 347 842 299 893 q 396 707 396 792 m 219 576 q 243 576 219 576 q 294 609 267 576 q 322 699 322 642 q 294 798 322 757 q 218 839 267 839 q 143 806 169 839 q 117 715 117 774 q 144 617 117 657 q 219 576 171 576 z "},"»":{"ha":658,"x_min":56,"x_max":575,"o":"m 203 326 q 105 460 154 386 q 56 552 56 533 q 83 592 56 571 q 313 326 175 515 q 83 61 175 138 q 56 101 56 82 q 105 193 56 119 q 203 326 154 267 m 465 326 q 367 460 417 386 q 318 552 318 533 q 346 592 318 571 q 575 326 438 515 q 346 61 438 138 q 318 101 318 82 q 367 193 318 119 q 465 326 417 267 z "},"¼":{"ha":1269,"x_min":97,"x_max":1172,"o":"m 321 -79 l 726 733 q 864 1028 815 911 q 910 1017 889 1028 q 932 985 932 1006 q 854 818 932 972 q 530 172 632 376 q 381 -149 428 -33 q 333 -137 353 -149 q 313 -111 313 -126 q 321 -79 313 -96 m 781 257 q 988 254 826 254 q 990 517 988 364 q 942 465 978 503 q 890 408 907 428 q 781 257 831 339 m 985 58 l 988 179 q 732 189 801 179 q 706 239 706 190 q 707 271 706 263 q 841 457 756 353 q 985 613 926 561 q 1047 628 1001 628 q 1078 625 1056 628 q 1075 575 1078 622 q 1067 261 1067 431 q 1161 278 1133 265 q 1172 227 1172 256 q 1149 190 1172 199 q 1067 181 1125 182 q 1089 -3 1067 68 q 1038 -14 1067 -14 q 997 3 1010 -14 q 985 58 985 19 m 232 376 l 235 642 q 231 857 235 764 q 106 831 136 842 q 97 864 97 847 q 144 915 97 904 q 275 935 235 935 q 325 888 325 935 q 322 838 325 881 q 315 607 315 731 l 315 542 q 324 372 315 429 q 429 378 376 372 q 435 350 435 361 q 386 303 435 303 l 214 306 q 106 304 144 306 q 99 333 99 322 q 172 376 99 376 l 232 376 z "},"½":{"ha":1340,"x_min":97,"x_max":1250,"o":"m 322 -79 l 728 733 q 865 1028 817 911 q 912 1017 890 1028 q 933 985 933 1006 q 856 818 933 972 q 531 172 633 376 q 382 -149 429 -33 q 334 -137 354 -149 q 314 -111 314 -126 q 322 -79 314 -96 m 861 456 q 817 494 817 460 q 880 583 817 538 q 1024 628 943 628 q 1156 581 1104 628 q 1207 452 1207 533 q 1128 269 1207 371 q 888 75 1049 168 q 1006 74 928 74 q 1232 107 1157 74 q 1250 54 1250 81 q 1218 15 1250 28 q 1050 -1 1174 -1 q 863 0 926 -1 q 799 57 799 1 q 800 81 799 76 q 1036 270 956 172 q 1117 447 1117 368 q 1085 526 1117 496 q 1009 557 1053 557 q 925 528 965 557 q 861 456 885 499 m 232 376 l 235 642 q 231 857 235 764 q 106 831 136 842 q 97 864 97 847 q 144 915 97 904 q 275 935 235 935 q 325 888 325 935 q 322 838 325 881 q 315 607 315 731 l 315 542 q 324 372 315 429 q 429 378 376 372 q 435 350 435 361 q 386 303 435 303 l 214 306 q 106 304 144 306 q 99 333 99 322 q 172 376 99 376 l 232 376 z "},"¾":{"ha":1303,"x_min":83,"x_max":1206,"o":"m 231 656 q 351 688 311 663 q 390 764 390 713 q 367 840 390 815 q 276 864 343 864 q 149 790 210 864 q 104 835 104 799 q 133 883 104 861 q 294 935 201 935 q 433 894 386 935 q 481 786 481 854 q 361 636 481 675 q 460 573 428 615 q 492 478 492 531 q 431 346 492 403 q 256 289 369 289 q 135 313 188 289 q 83 370 83 336 q 122 417 83 404 q 264 360 176 360 q 363 391 325 360 q 401 478 401 422 q 238 603 401 603 q 210 612 215 603 q 204 634 204 621 q 206 654 204 647 q 231 656 221 654 m 814 257 q 1021 254 860 254 q 1024 517 1021 364 q 976 465 1011 503 q 924 408 940 428 q 814 257 864 339 m 1018 58 l 1021 179 q 765 189 835 179 q 739 239 739 190 q 740 271 739 263 q 874 457 789 353 q 1018 613 960 561 q 1081 628 1035 628 q 1111 625 1089 628 q 1108 575 1111 622 q 1100 261 1100 431 q 1194 278 1167 265 q 1206 227 1206 256 q 1182 190 1206 199 q 1100 181 1158 182 q 1122 -3 1100 68 q 1072 -14 1100 -14 q 1031 3 1043 -14 q 1018 58 1018 19 m 354 -79 l 760 733 q 897 1028 849 911 q 944 1017 922 1028 q 965 985 965 1006 q 888 818 965 972 q 563 172 665 376 q 414 -149 461 -33 q 366 -137 386 -149 q 346 -111 346 -126 q 354 -79 346 -96 z "},"¿":{"ha":496,"x_min":28,"x_max":475,"o":"m 226 369 q 279 383 256 383 q 343 289 343 383 q 268 121 343 206 q 206 51 238 86 q 131 -122 131 -33 q 179 -210 131 -181 q 256 -226 208 -226 q 351 -198 303 -226 q 411 -122 399 -169 q 475 -183 475 -132 q 414 -272 475 -239 q 263 -304 353 -304 q 111 -267 174 -304 q 28 -119 28 -218 q 50 -7 28 -57 q 103 75 72 43 q 167 136 135 107 q 242 282 242 207 q 226 369 242 324 m 219 635 q 231 647 219 635 q 278 660 243 660 q 338 635 313 660 q 363 572 363 610 q 338 509 363 535 q 278 483 313 483 q 219 509 243 483 q 194 572 194 535 q 219 635 194 610 z "},"À":{"ha":765,"x_min":7,"x_max":790,"o":"m 274 1242 q 382 1141 325 1185 q 464 1077 439 1097 q 489 1036 489 1057 q 467 996 489 1015 q 360 1063 428 1025 q 259 1125 293 1100 q 225 1182 225 1150 q 274 1242 225 1214 m 539 372 q 396 790 492 496 q 332 613 383 758 q 242 372 281 467 q 424 369 350 369 q 539 372 497 369 m 568 290 q 379 288 413 288 q 207 290 346 288 q 90 -29 114 56 q 26 -7 44 -19 q 7 24 7 6 q 67 182 7 43 q 343 917 267 653 q 403 921 369 921 q 450 909 436 921 q 479 847 464 897 q 655 335 567 565 q 790 14 743 106 q 724 -14 751 -14 q 664 24 679 -14 q 568 290 638 92 z "},"Á":{"ha":765,"x_min":7,"x_max":790,"o":"m 543 1242 q 592 1182 592 1214 q 559 1127 592 1150 q 447 1058 526 1104 q 349 994 367 1011 q 326 1036 326 1014 q 349 1076 326 1058 q 428 1136 371 1093 q 543 1242 486 1179 m 539 372 q 396 790 492 496 q 332 613 383 758 q 242 372 281 467 q 424 369 350 369 q 539 372 497 369 m 568 290 q 379 288 413 288 q 207 290 346 288 q 90 -29 114 56 q 26 -7 44 -19 q 7 24 7 6 q 67 182 7 43 q 343 917 267 653 q 403 921 369 921 q 450 909 436 921 q 479 847 464 897 q 655 335 567 565 q 790 14 743 106 q 724 -14 751 -14 q 664 24 679 -14 q 568 290 638 92 z "},"Â":{"ha":765,"x_min":7,"x_max":790,"o":"m 421 1210 q 544 1116 486 1168 q 601 1033 601 1064 q 569 988 601 1001 q 506 1051 543 1021 q 443 1097 468 1082 l 418 1111 q 392 1090 410 1104 q 365 1067 375 1075 q 339 1047 354 1058 q 313 1027 324 1035 q 292 1013 303 1019 q 257 999 271 999 q 225 1024 243 999 q 421 1210 314 1131 m 539 372 q 396 790 492 496 q 332 613 383 758 q 242 372 281 467 q 424 369 350 369 q 539 372 497 369 m 568 290 q 379 288 413 288 q 207 290 346 288 q 90 -29 114 56 q 26 -7 44 -19 q 7 24 7 6 q 67 182 7 43 q 343 917 267 653 q 403 921 369 921 q 450 909 436 921 q 479 847 464 897 q 655 335 567 565 q 790 14 743 106 q 724 -14 751 -14 q 664 24 679 -14 q 568 290 638 92 z "},"Ã":{"ha":765,"x_min":7,"x_max":790,"o":"m 539 372 q 396 790 492 496 q 332 613 383 758 q 242 372 281 467 q 424 369 350 369 q 539 372 497 369 m 568 290 q 379 288 413 288 q 207 290 346 288 q 90 -29 114 56 q 26 -7 44 -19 q 7 24 7 6 q 67 182 7 43 q 343 917 267 653 q 403 921 369 921 q 450 909 436 921 q 479 847 464 897 q 655 335 567 565 q 790 14 743 106 q 724 -14 751 -14 q 664 24 679 -14 q 568 290 638 92 m 608 1108 q 565 1033 608 1069 q 483 997 522 997 q 392 1028 444 997 q 315 1060 340 1060 q 233 1001 290 1060 q 211 1031 211 1011 q 255 1105 211 1068 q 347 1142 299 1142 q 426 1110 372 1142 q 508 1079 481 1079 q 586 1138 536 1079 q 608 1108 608 1129 z "},"Ä":{"ha":765,"x_min":7,"x_max":790,"o":"m 539 372 q 396 790 492 496 q 332 613 383 758 q 242 372 281 467 q 424 369 350 369 q 539 372 497 369 m 568 290 q 379 288 413 288 q 207 290 346 288 q 90 -29 114 56 q 26 -7 44 -19 q 7 24 7 6 q 67 182 7 43 q 343 917 267 653 q 403 921 369 921 q 450 909 436 921 q 479 847 464 897 q 655 335 567 565 q 790 14 743 106 q 724 -14 751 -14 q 664 24 679 -14 q 568 290 638 92 m 578 1063 q 578 1048 578 1063 q 556 1010 578 1032 q 505 989 533 989 q 456 1010 476 989 q 435 1063 435 1031 q 457 1116 435 1094 q 508 1138 479 1138 q 557 1116 536 1138 q 578 1063 578 1094 m 331 1063 q 331 1048 331 1063 q 308 1010 331 1032 q 258 989 286 989 q 208 1010 229 989 q 188 1063 188 1031 q 210 1116 188 1094 q 260 1138 232 1138 q 310 1116 289 1138 q 331 1063 331 1094 z "},"Å":{"ha":765,"x_min":7,"x_max":790,"o":"m 535 1113 q 535 1085 535 1113 q 501 1023 535 1057 q 413 989 468 989 q 324 1023 358 989 q 290 1113 290 1057 q 324 1202 290 1168 q 413 1236 358 1236 q 501 1202 468 1236 q 535 1113 535 1168 m 413 1035 q 428 1035 413 1035 q 460 1053 443 1035 q 476 1108 476 1072 q 460 1167 476 1143 q 413 1190 443 1190 q 366 1171 383 1190 q 349 1117 349 1151 q 366 1058 349 1082 q 413 1035 383 1035 m 539 372 q 396 790 492 496 q 332 613 383 758 q 242 372 281 467 q 424 369 350 369 q 539 372 497 369 m 568 290 q 379 288 413 288 q 207 290 346 288 q 90 -29 114 56 q 26 -7 44 -19 q 7 24 7 6 q 67 182 7 43 q 343 917 267 653 q 403 921 369 921 q 450 909 436 921 q 479 847 464 897 q 655 335 567 565 q 790 14 743 106 q 724 -14 751 -14 q 664 24 679 -14 q 568 290 638 92 z "},"Æ":{"ha":1061,"x_min":0,"x_max":1019,"o":"m 490 803 q 397 613 469 763 q 275 372 325 464 q 442 369 383 369 l 497 369 l 497 589 q 490 803 497 699 m 596 832 q 601 538 601 771 l 711 538 q 878 543 828 538 q 883 503 883 532 q 869 464 883 475 q 820 451 854 453 q 724 450 786 450 l 601 450 q 611 86 601 147 q 710 83 672 83 q 1008 115 943 83 q 1019 58 1019 88 q 1007 18 1019 29 q 793 -3 982 -3 q 563 -1 604 -3 q 508 19 522 1 q 494 82 494 38 q 497 288 494 126 l 403 288 q 231 290 369 288 q 82 -14 108 56 q 0 43 0 -1 q 92 225 0 61 q 214 446 183 389 q 436 908 350 699 q 791 925 601 925 q 1006 904 981 925 q 1018 864 1018 893 q 1007 807 1018 835 q 749 836 928 836 q 596 832 675 836 z "},"Ç":{"ha":836,"x_min":68,"x_max":775,"o":"m 714 186 q 775 115 775 161 q 699 29 775 69 q 511 -14 624 -11 q 506 -41 506 -36 q 506 -50 506 -46 q 510 -57 507 -54 q 514 -62 513 -60 q 520 -69 515 -65 q 528 -74 525 -72 q 543 -83 538 -81 q 608 -179 608 -121 q 560 -280 608 -237 q 442 -322 513 -322 q 393 -287 393 -322 q 411 -247 393 -265 q 454 -260 432 -260 q 524 -204 524 -260 q 481 -137 524 -172 q 439 -76 439 -101 q 454 -11 439 -51 q 173 132 278 3 q 68 472 68 261 q 186 809 68 683 q 506 935 304 935 q 688 891 614 935 q 761 783 761 847 q 682 714 761 726 q 599 816 656 782 q 478 850 542 850 q 265 747 347 850 q 182 477 182 643 q 265 191 182 311 q 499 71 349 71 q 623 100 565 71 q 714 186 681 129 z "},"È":{"ha":675,"x_min":92,"x_max":633,"o":"m 188 1249 q 296 1148 239 1192 q 378 1084 353 1104 q 403 1043 403 1064 q 381 1003 403 1022 q 274 1069 342 1032 q 173 1132 207 1107 q 139 1189 139 1157 q 188 1249 139 1221 m 108 79 l 111 311 l 111 589 q 92 913 111 788 q 417 925 240 925 q 619 904 594 925 q 632 864 632 893 q 621 807 632 835 q 363 836 542 836 q 210 832 289 836 q 215 538 215 771 l 325 538 q 492 543 442 538 q 497 503 497 532 q 483 464 497 475 q 434 451 468 453 q 338 450 400 450 l 215 450 q 225 86 215 147 q 324 83 286 83 q 622 115 557 83 q 633 58 633 88 q 621 18 633 29 q 407 -3 596 -3 q 177 -1 218 -3 q 122 19 136 1 q 108 79 108 38 z "},"É":{"ha":675,"x_min":92,"x_max":633,"o":"m 508 1249 q 557 1189 557 1221 q 524 1134 557 1157 q 412 1065 492 1111 q 314 1001 332 1018 q 292 1043 292 1021 q 314 1083 292 1065 q 394 1143 336 1100 q 508 1249 451 1186 m 108 79 l 111 311 l 111 589 q 92 913 111 788 q 417 925 240 925 q 619 904 594 925 q 632 864 632 893 q 621 807 632 835 q 363 836 542 836 q 210 832 289 836 q 215 538 215 771 l 325 538 q 492 543 442 538 q 497 503 497 532 q 483 464 497 475 q 434 451 468 453 q 338 450 400 450 l 215 450 q 225 86 215 147 q 324 83 286 83 q 622 115 557 83 q 633 58 633 88 q 621 18 633 29 q 407 -3 596 -3 q 177 -1 218 -3 q 122 19 136 1 q 108 79 108 38 z "},"Ê":{"ha":675,"x_min":92,"x_max":633,"o":"m 349 1207 q 472 1113 414 1165 q 529 1030 529 1061 q 497 985 529 999 q 433 1049 471 1018 q 371 1094 396 1081 l 346 1108 q 320 1087 338 1101 q 292 1064 303 1072 q 267 1044 282 1056 q 241 1024 251 1032 q 219 1010 231 1017 q 185 996 199 996 q 153 1021 171 996 q 349 1207 242 1128 m 108 79 l 111 311 l 111 589 q 92 913 111 788 q 417 925 240 925 q 619 904 594 925 q 632 864 632 893 q 621 807 632 835 q 363 836 542 836 q 210 832 289 836 q 215 538 215 771 l 325 538 q 492 543 442 538 q 497 503 497 532 q 483 464 497 475 q 434 451 468 453 q 338 450 400 450 l 215 450 q 225 86 215 147 q 324 83 286 83 q 622 115 557 83 q 633 58 633 88 q 621 18 633 29 q 407 -3 596 -3 q 177 -1 218 -3 q 122 19 136 1 q 108 79 108 38 z "},"Ë":{"ha":675,"x_min":92,"x_max":633,"o":"m 108 79 l 111 311 l 111 589 q 92 913 111 788 q 417 925 240 925 q 619 904 594 925 q 632 864 632 893 q 621 807 632 835 q 363 836 542 836 q 210 832 289 836 q 215 538 215 771 l 325 538 q 492 543 442 538 q 497 503 497 532 q 483 464 497 475 q 434 451 468 453 q 338 450 400 450 l 215 450 q 225 86 215 147 q 324 83 286 83 q 622 115 557 83 q 633 58 633 88 q 621 18 633 29 q 407 -3 596 -3 q 177 -1 218 -3 q 122 19 136 1 q 108 79 108 38 m 532 1063 q 532 1048 532 1063 q 510 1010 532 1032 q 459 989 488 989 q 410 1010 431 989 q 389 1063 389 1031 q 411 1116 389 1094 q 462 1138 433 1138 q 511 1116 490 1138 q 532 1063 532 1094 m 285 1063 q 285 1048 285 1063 q 263 1010 285 1032 q 212 989 240 989 q 163 1010 183 989 q 142 1063 142 1031 q 164 1116 142 1094 q 215 1138 186 1138 q 264 1116 243 1138 q 285 1063 285 1094 z "},"Ì":{"ha":307,"x_min":-47,"x_max":232,"o":"m 99 75 l 101 321 l 101 599 q 92 921 101 794 q 149 925 115 925 q 217 872 217 925 q 214 817 217 864 q 206 561 206 672 l 206 282 q 232 7 206 94 q 167 -4 207 -4 q 113 14 126 -4 q 99 75 99 32 m 1 1249 q 110 1148 53 1192 q 192 1084 167 1104 q 217 1043 217 1064 q 194 1003 217 1022 q 88 1069 156 1032 q -13 1132 21 1107 q -47 1189 -47 1157 q 1 1249 -47 1221 z "},"Í":{"ha":307,"x_min":92,"x_max":371,"o":"m 99 75 l 101 321 l 101 599 q 92 921 101 794 q 149 925 115 925 q 217 872 217 925 q 214 817 217 864 q 206 561 206 672 l 206 282 q 232 7 206 94 q 167 -4 207 -4 q 113 14 126 -4 q 99 75 99 32 m 322 1249 q 371 1189 371 1221 q 338 1134 371 1157 q 226 1065 306 1111 q 128 1001 146 1018 q 106 1043 106 1021 q 128 1083 106 1065 q 208 1143 150 1100 q 322 1249 265 1186 z "},"Î":{"ha":307,"x_min":-33,"x_max":343,"o":"m 99 75 l 101 321 l 101 599 q 92 921 101 794 q 149 925 115 925 q 217 872 217 925 q 214 817 217 864 q 206 561 206 672 l 206 282 q 232 7 206 94 q 167 -4 207 -4 q 113 14 126 -4 q 99 75 99 32 m 163 1207 q 285 1113 228 1165 q 343 1030 343 1061 q 311 985 343 999 q 247 1049 285 1018 q 185 1094 210 1081 l 160 1108 q 134 1087 151 1101 q 106 1064 117 1072 q 81 1044 96 1056 q 55 1024 65 1032 q 33 1010 44 1017 q -1 996 14 996 q -33 1021 -15 996 q 163 1207 56 1128 z "},"Ï":{"ha":307,"x_min":-46,"x_max":344,"o":"m 99 75 l 101 321 l 101 599 q 92 921 101 794 q 149 925 115 925 q 217 872 217 925 q 214 817 217 864 q 206 561 206 672 l 206 282 q 232 7 206 94 q 167 -4 207 -4 q 113 14 126 -4 q 99 75 99 32 m 97 1063 q 97 1048 97 1063 q 75 1010 97 1032 q 24 989 53 989 q -25 1010 -4 989 q -46 1063 -46 1031 q -24 1116 -46 1094 q 27 1138 -1 1138 q 76 1116 56 1138 q 97 1063 97 1094 m 344 1063 q 344 1048 344 1063 q 322 1010 344 1032 q 272 989 300 989 q 222 1010 243 989 q 201 1063 201 1031 q 224 1116 201 1094 q 274 1138 246 1138 q 324 1116 303 1138 q 344 1063 344 1094 z "},"Ð":{"ha":882,"x_min":-22,"x_max":814,"o":"m 213 844 q 218 618 218 749 l 218 538 l 307 538 q 465 543 422 538 q 471 503 471 526 q 458 466 471 479 q 405 451 446 453 q 217 450 364 450 q 199 121 213 257 q 372 71 274 71 q 535 104 471 71 q 633 194 599 138 q 697 435 697 300 q 594 746 697 642 q 301 850 492 850 q 213 844 271 850 m 39 536 l 114 538 q 96 918 114 783 q 299 935 179 935 q 506 911 419 935 q 663 835 592 888 q 774 689 735 783 q 814 463 814 594 q 703 120 814 254 q 394 -14 592 -14 q 92 74 197 -14 q 113 450 110 190 q -17 444 32 450 q -22 485 -22 461 q -10 522 -22 508 q 39 536 3 535 z "},"Ñ":{"ha":858,"x_min":92,"x_max":767,"o":"m 674 165 q 665 515 665 265 l 665 599 q 656 921 665 794 q 699 925 679 925 q 767 872 767 925 q 764 817 767 864 q 756 561 756 672 l 756 324 q 765 1 756 128 q 719 -4 743 -4 q 647 33 672 -4 q 450 369 590 121 q 210 767 310 617 q 208 282 208 714 q 235 7 208 94 q 176 -4 210 -4 q 129 14 143 -4 q 115 75 115 32 l 118 321 l 118 599 q 92 915 118 831 q 151 926 118 926 q 200 917 185 926 q 413 627 260 881 q 674 165 565 374 m 635 1115 q 592 1040 635 1076 q 510 1004 549 1004 q 419 1035 471 1004 q 342 1067 367 1067 q 260 1008 317 1067 q 238 1038 238 1018 q 281 1112 238 1075 q 374 1149 325 1149 q 453 1117 399 1149 q 535 1086 507 1086 q 613 1144 563 1086 q 635 1115 635 1136 z "},"Ò":{"ha":989,"x_min":68,"x_max":921,"o":"m 333 1249 q 442 1148 385 1192 q 524 1084 499 1104 q 549 1043 549 1064 q 526 1003 549 1022 q 420 1069 488 1032 q 319 1132 353 1107 q 285 1189 285 1157 q 333 1249 285 1221 m 921 461 q 921 353 921 461 q 805 115 921 244 q 494 -14 689 -14 q 183 115 299 -14 q 68 461 68 244 q 183 806 68 678 q 494 935 299 935 q 805 806 689 935 q 921 461 921 678 m 735 715 q 638 813 700 776 q 494 850 575 850 q 267 752 351 850 q 182 503 182 654 q 251 210 182 338 q 348 108 286 146 q 492 71 410 71 q 723 172 642 71 q 804 433 804 272 q 735 715 804 593 z "},"Ó":{"ha":989,"x_min":68,"x_max":921,"o":"m 654 1249 q 703 1189 703 1221 q 670 1134 703 1157 q 558 1065 638 1111 q 460 1001 478 1018 q 438 1043 438 1021 q 460 1083 438 1065 q 540 1143 482 1100 q 654 1249 597 1186 m 921 461 q 921 353 921 461 q 805 115 921 244 q 494 -14 689 -14 q 183 115 299 -14 q 68 461 68 244 q 183 806 68 678 q 494 935 299 935 q 805 806 689 935 q 921 461 921 678 m 735 715 q 638 813 700 776 q 494 850 575 850 q 267 752 351 850 q 182 503 182 654 q 251 210 182 338 q 348 108 286 146 q 492 71 410 71 q 723 172 642 71 q 804 433 804 272 q 735 715 804 593 z "},"Ô":{"ha":989,"x_min":68,"x_max":921,"o":"m 494 1206 q 617 1112 560 1164 q 675 1028 675 1060 q 643 983 675 997 q 579 1047 617 1017 q 517 1092 542 1078 l 492 1107 q 466 1085 483 1100 q 438 1063 449 1071 q 413 1042 428 1054 q 387 1023 397 1031 q 367 1008 376 1015 q 331 994 344 994 q 299 1019 317 994 q 494 1206 388 1126 m 921 461 q 921 353 921 461 q 805 115 921 244 q 494 -14 689 -14 q 183 115 299 -14 q 68 461 68 244 q 183 806 68 678 q 494 935 299 935 q 805 806 689 935 q 921 461 921 678 m 735 715 q 638 813 700 776 q 494 850 575 850 q 267 752 351 850 q 182 503 182 654 q 251 210 182 338 q 348 108 286 146 q 492 71 410 71 q 723 172 642 71 q 804 433 804 272 q 735 715 804 593 z "},"Õ":{"ha":989,"x_min":68,"x_max":921,"o":"m 693 1115 q 650 1040 693 1076 q 568 1004 607 1004 q 477 1035 529 1004 q 400 1067 425 1067 q 318 1008 375 1067 q 296 1038 296 1018 q 340 1112 296 1075 q 432 1149 383 1149 q 511 1117 457 1149 q 593 1086 565 1086 q 671 1144 621 1086 q 693 1115 693 1136 m 921 461 q 921 353 921 461 q 805 115 921 244 q 494 -14 689 -14 q 183 115 299 -14 q 68 461 68 244 q 183 806 68 678 q 494 935 299 935 q 805 806 689 935 q 921 461 921 678 m 735 715 q 638 813 700 776 q 494 850 575 850 q 267 752 351 850 q 182 503 182 654 q 251 210 182 338 q 348 108 286 146 q 492 71 410 71 q 723 172 642 71 q 804 433 804 272 q 735 715 804 593 z "},"Ö":{"ha":989,"x_min":68,"x_max":921,"o":"m 921 461 q 921 353 921 461 q 805 115 921 244 q 494 -14 689 -14 q 183 115 299 -14 q 68 461 68 244 q 183 806 68 678 q 494 935 299 935 q 805 806 689 935 q 921 461 921 678 m 735 715 q 638 813 700 776 q 494 850 575 850 q 267 752 351 850 q 182 503 182 654 q 251 210 182 338 q 348 108 286 146 q 492 71 410 71 q 723 172 642 71 q 804 433 804 272 q 735 715 804 593 m 689 1063 q 689 1048 689 1063 q 667 1010 689 1032 q 616 989 644 989 q 567 1010 588 989 q 546 1063 546 1031 q 568 1116 546 1094 q 619 1138 590 1138 q 668 1116 647 1138 q 689 1063 689 1094 m 442 1063 q 442 1048 442 1063 q 419 1010 442 1032 q 369 989 397 989 q 319 1010 340 989 q 299 1063 299 1031 q 321 1116 299 1094 q 372 1138 343 1138 q 421 1116 400 1138 q 442 1063 442 1094 z "},"×":{"ha":743,"x_min":85,"x_max":657,"o":"m 426 350 q 657 135 579 197 q 586 83 626 83 q 552 99 568 83 q 464 194 536 115 q 369 294 392 272 q 154 64 232 160 q 101 135 101 100 q 115 167 101 153 l 314 351 q 85 567 140 518 q 154 619 118 619 q 184 608 172 619 q 226 563 196 596 q 299 485 256 531 q 371 407 342 439 q 586 638 524 560 q 622 607 606 626 q 638 568 638 588 q 622 533 638 549 q 527 444 606 517 q 426 350 449 372 z "},"Ø":{"ha":989,"x_min":68,"x_max":921,"o":"m 804 435 q 711 749 804 632 l 356 104 q 492 71 414 71 q 723 172 642 71 q 804 435 804 272 m 182 503 q 296 150 182 269 l 656 801 q 494 850 588 850 q 267 752 351 850 q 182 503 182 654 m 188 -46 l 246 60 q 68 460 68 185 q 183 806 68 678 q 493 935 299 935 q 700 888 608 935 q 774 1033 749 979 q 817 1020 797 1032 q 838 993 838 1008 q 829 963 838 978 l 764 844 q 921 460 921 718 q 805 115 921 244 q 493 -14 689 -14 q 313 21 394 -14 q 243 -117 269 -60 q 179 -72 179 -108 q 188 -46 179 -62 z "},"Ù":{"ha":894,"x_min":100,"x_max":803,"o":"m 290 1249 q 399 1148 342 1192 q 481 1084 456 1104 q 506 1043 506 1064 q 483 1003 506 1022 q 377 1069 444 1032 q 276 1132 310 1107 q 242 1189 242 1157 q 290 1249 242 1221 m 111 267 l 124 696 q 100 914 124 828 q 165 925 128 925 q 222 909 203 925 q 240 844 240 893 q 230 591 240 794 q 219 283 219 388 q 276 126 219 178 q 403 75 332 75 q 549 108 474 75 q 671 186 624 142 l 672 364 l 672 599 q 663 921 672 794 q 719 925 686 925 q 788 872 788 925 q 785 821 788 869 q 776 444 776 675 q 781 141 776 214 q 803 7 785 68 q 738 -4 778 -4 q 684 13 699 -4 q 669 78 669 31 l 669 93 q 536 16 614 46 q 393 -14 458 -14 q 187 48 263 -14 q 111 267 111 110 z "},"Ú":{"ha":894,"x_min":100,"x_max":803,"o":"m 611 1249 q 660 1189 660 1221 q 627 1134 660 1157 q 515 1065 594 1111 q 417 1001 435 1018 q 394 1043 394 1021 q 417 1083 394 1065 q 497 1143 439 1100 q 611 1249 554 1186 m 111 267 l 124 696 q 100 914 124 828 q 165 925 128 925 q 222 909 203 925 q 240 844 240 893 q 230 591 240 794 q 219 283 219 388 q 276 126 219 178 q 403 75 332 75 q 549 108 474 75 q 671 186 624 142 l 672 364 l 672 599 q 663 921 672 794 q 719 925 686 925 q 788 872 788 925 q 785 821 788 869 q 776 444 776 675 q 781 141 776 214 q 803 7 785 68 q 738 -4 778 -4 q 684 13 699 -4 q 669 78 669 31 l 669 93 q 536 16 614 46 q 393 -14 458 -14 q 187 48 263 -14 q 111 267 111 110 z "},"Û":{"ha":894,"x_min":100,"x_max":803,"o":"m 451 1207 q 574 1113 517 1165 q 632 1030 632 1061 q 600 985 632 999 q 536 1049 574 1018 q 474 1094 499 1081 l 449 1108 q 423 1087 440 1101 q 395 1064 406 1072 q 369 1044 385 1056 q 344 1024 354 1032 q 322 1010 333 1017 q 288 996 303 996 q 256 1021 274 996 q 451 1207 344 1128 m 111 267 l 124 696 q 100 914 124 828 q 165 925 128 925 q 222 909 203 925 q 240 844 240 893 q 230 591 240 794 q 219 283 219 388 q 276 126 219 178 q 403 75 332 75 q 549 108 474 75 q 671 186 624 142 l 672 364 l 672 599 q 663 921 672 794 q 719 925 686 925 q 788 872 788 925 q 785 821 788 869 q 776 444 776 675 q 781 141 776 214 q 803 7 785 68 q 738 -4 778 -4 q 684 13 699 -4 q 669 78 669 31 l 669 93 q 536 16 614 46 q 393 -14 458 -14 q 187 48 263 -14 q 111 267 111 110 z "},"Ü":{"ha":894,"x_min":100,"x_max":803,"o":"m 111 267 l 124 696 q 100 914 124 828 q 165 925 128 925 q 222 909 203 925 q 240 844 240 893 q 230 591 240 794 q 219 283 219 388 q 276 126 219 178 q 403 75 332 75 q 549 108 474 75 q 671 186 624 142 l 672 364 l 672 599 q 663 921 672 794 q 719 925 686 925 q 788 872 788 925 q 785 821 788 869 q 776 444 776 675 q 781 141 776 214 q 803 7 785 68 q 738 -4 778 -4 q 684 13 699 -4 q 669 78 669 31 l 669 93 q 536 16 614 46 q 393 -14 458 -14 q 187 48 263 -14 q 111 267 111 110 m 642 1063 q 642 1048 642 1063 q 619 1010 642 1032 q 569 989 597 989 q 519 1010 540 989 q 499 1063 499 1031 q 521 1116 499 1094 q 572 1138 543 1138 q 621 1116 600 1138 q 642 1063 642 1094 m 394 1063 q 394 1048 394 1063 q 372 1010 394 1032 q 322 989 350 989 q 272 1010 293 989 q 251 1063 251 1031 q 274 1116 251 1094 q 324 1138 296 1138 q 374 1116 353 1138 q 394 1063 394 1094 z "},"Ý":{"ha":696,"x_min":-14,"x_max":689,"o":"m 503 1249 q 551 1189 551 1221 q 519 1134 551 1157 q 406 1065 486 1111 q 308 1001 326 1018 q 286 1043 286 1021 q 308 1083 286 1065 q 388 1143 331 1100 q 503 1249 446 1186 m 689 871 q 583 674 689 836 q 399 418 478 513 l 399 300 q 425 7 399 97 q 360 -4 400 -4 q 306 14 319 -4 q 292 75 292 32 q 294 322 293 203 l 294 408 q -14 860 93 788 q 17 896 7 888 q 36 913 26 904 q 74 926 53 926 q 140 879 108 926 q 363 501 224 758 q 505 735 429 589 q 583 933 581 882 q 689 871 689 926 z "},"Þ":{"ha":711,"x_min":92,"x_max":663,"o":"m 206 297 q 353 263 267 263 q 492 317 439 263 q 546 465 546 372 q 486 642 546 593 q 300 690 426 690 q 207 685 268 690 q 206 469 206 646 l 206 297 m 99 75 l 101 321 l 101 599 q 92 921 101 794 q 149 925 115 925 q 217 872 217 925 q 211 771 217 849 q 290 775 256 775 q 663 475 663 775 q 576 254 663 331 q 381 178 489 178 q 206 222 274 178 q 232 7 206 93 q 167 -4 207 -4 q 113 14 126 -4 q 99 75 99 32 z "},"ß":{"ha":722,"x_min":90,"x_max":660,"o":"m 210 272 l 211 68 q 197 13 211 29 q 149 -4 182 -4 q 90 7 115 -4 q 118 281 118 100 l 118 644 q 190 861 118 788 q 351 935 261 935 q 496 894 440 935 q 551 782 551 854 q 489 631 551 683 q 438 592 464 608 q 375 511 375 553 q 475 400 375 463 q 559 347 517 375 q 631 274 601 318 q 660 176 660 229 q 603 44 660 101 q 473 -14 546 -14 q 351 18 400 -14 q 301 97 301 50 q 364 156 301 138 q 405 88 372 111 q 474 64 438 64 q 536 92 510 64 q 563 162 563 121 q 535 238 563 203 q 467 300 507 274 q 388 353 428 326 q 292 506 292 418 q 317 573 292 542 q 373 624 343 604 q 428 679 403 644 q 454 758 454 714 q 426 830 454 803 q 345 857 397 857 q 251 813 293 857 q 210 682 210 769 l 210 272 z "},"à":{"ha":644,"x_min":63,"x_max":568,"o":"m 165 975 q 274 874 217 918 q 356 810 331 831 q 381 769 381 790 q 358 729 381 749 q 252 796 319 758 q 151 858 185 833 q 117 915 117 883 q 165 975 117 947 m 544 433 l 542 246 q 568 7 542 86 q 515 -4 546 -4 q 471 10 483 -4 q 454 57 458 25 q 276 -14 368 -14 q 63 182 63 -14 q 96 286 63 253 q 188 336 129 319 q 451 374 292 364 q 422 537 451 492 q 299 582 393 582 q 218 557 260 582 q 156 485 176 532 q 92 540 92 497 q 158 627 92 594 q 329 660 225 660 q 489 610 433 660 q 544 433 544 561 m 450 303 q 390 296 410 299 q 335 289 369 293 q 285 281 301 285 q 244 269 268 276 q 208 254 219 263 q 183 236 196 246 q 160 182 160 217 q 196 90 160 119 q 288 60 232 60 q 447 122 382 60 q 446 193 446 142 q 450 303 446 244 z "},"á":{"ha":644,"x_min":63,"x_max":568,"o":"m 486 975 q 535 915 535 947 q 502 860 535 883 q 390 791 469 838 q 292 728 310 744 q 269 769 269 747 q 292 809 269 792 q 372 869 314 826 q 486 975 429 913 m 544 433 l 542 246 q 568 7 542 86 q 515 -4 546 -4 q 471 10 483 -4 q 454 57 458 25 q 276 -14 368 -14 q 63 182 63 -14 q 96 286 63 253 q 188 336 129 319 q 451 374 292 364 q 422 537 451 492 q 299 582 393 582 q 218 557 260 582 q 156 485 176 532 q 92 540 92 497 q 158 627 92 594 q 329 660 225 660 q 489 610 433 660 q 544 433 544 561 m 450 303 q 390 296 410 299 q 335 289 369 293 q 285 281 301 285 q 244 269 268 276 q 208 254 219 263 q 183 236 196 246 q 160 182 160 217 q 196 90 160 119 q 288 60 232 60 q 447 122 382 60 q 446 193 446 142 q 450 303 446 244 z "},"â":{"ha":644,"x_min":63,"x_max":568,"o":"m 326 943 q 449 849 392 901 q 507 766 507 797 q 475 721 507 735 q 411 785 449 754 q 349 831 374 817 l 324 844 q 298 823 315 838 q 270 800 281 808 q 244 780 260 792 q 219 760 229 768 q 197 746 208 753 q 163 732 178 732 q 131 757 149 732 q 326 943 219 864 m 544 433 l 542 246 q 568 7 542 86 q 515 -4 546 -4 q 471 10 483 -4 q 454 57 458 25 q 276 -14 368 -14 q 63 182 63 -14 q 96 286 63 253 q 188 336 129 319 q 451 374 292 364 q 422 537 451 492 q 299 582 393 582 q 218 557 260 582 q 156 485 176 532 q 92 540 92 497 q 158 627 92 594 q 329 660 225 660 q 489 610 433 660 q 544 433 544 561 m 450 303 q 390 296 410 299 q 335 289 369 293 q 285 281 301 285 q 244 269 268 276 q 208 254 219 263 q 183 236 196 246 q 160 182 160 217 q 196 90 160 119 q 288 60 232 60 q 447 122 382 60 q 446 193 446 142 q 450 303 446 244 z "},"ã":{"ha":644,"x_min":63,"x_max":568,"o":"m 524 861 q 481 786 524 822 q 399 750 438 750 q 308 781 360 750 q 231 813 256 813 q 149 754 206 813 q 126 783 126 764 q 170 858 126 821 q 263 894 214 894 q 342 863 288 894 q 424 832 396 832 q 501 890 451 832 q 524 861 524 882 m 544 433 l 542 246 q 568 7 542 86 q 515 -4 546 -4 q 471 10 483 -4 q 454 57 458 25 q 276 -14 368 -14 q 63 182 63 -14 q 96 286 63 253 q 188 336 129 319 q 451 374 292 364 q 422 537 451 492 q 299 582 393 582 q 218 557 260 582 q 156 485 176 532 q 92 540 92 497 q 158 627 92 594 q 329 660 225 660 q 489 610 433 660 q 544 433 544 561 m 450 303 q 390 296 410 299 q 335 289 369 293 q 285 281 301 285 q 244 269 268 276 q 208 254 219 263 q 183 236 196 246 q 160 182 160 217 q 196 90 160 119 q 288 60 232 60 q 447 122 382 60 q 446 193 446 142 q 450 303 446 244 z "},"ä":{"ha":644,"x_min":63,"x_max":568,"o":"m 544 433 l 542 246 q 568 7 542 86 q 515 -4 546 -4 q 471 10 483 -4 q 454 57 458 25 q 276 -14 368 -14 q 63 182 63 -14 q 96 286 63 253 q 188 336 129 319 q 451 374 292 364 q 422 537 451 492 q 299 582 393 582 q 218 557 260 582 q 156 485 176 532 q 92 540 92 497 q 158 627 92 594 q 329 660 225 660 q 489 610 433 660 q 544 433 544 561 m 450 303 q 390 296 410 299 q 335 289 369 293 q 285 281 301 285 q 244 269 268 276 q 208 254 219 263 q 183 236 196 246 q 160 182 160 217 q 196 90 160 119 q 288 60 232 60 q 447 122 382 60 q 446 193 446 142 q 450 303 446 244 m 517 798 q 517 782 517 798 q 494 745 517 767 q 444 724 472 724 q 394 744 415 724 q 374 797 374 765 q 396 851 374 829 q 447 872 418 872 q 496 851 475 872 q 517 798 517 829 m 269 798 q 269 782 269 798 q 247 745 269 767 q 197 724 225 724 q 147 744 168 724 q 126 797 126 765 q 149 851 126 829 q 199 872 171 872 q 249 851 228 872 q 269 798 269 829 z "},"å":{"ha":644,"x_min":63,"x_max":568,"o":"m 447 846 q 447 818 447 846 q 414 756 447 790 q 326 722 381 722 q 237 756 271 722 q 203 846 203 790 q 237 935 203 901 q 326 969 271 969 q 414 935 381 969 q 447 846 447 901 m 326 768 q 341 768 326 768 q 372 787 356 768 q 389 841 389 806 q 372 900 389 876 q 326 924 356 924 q 278 904 296 924 q 261 850 261 885 q 278 792 261 815 q 326 768 296 768 m 544 433 l 542 246 q 568 7 542 86 q 515 -4 546 -4 q 471 10 483 -4 q 454 57 458 25 q 276 -14 368 -14 q 63 182 63 -14 q 96 286 63 253 q 188 336 129 319 q 451 374 292 364 q 422 537 451 492 q 299 582 393 582 q 218 557 260 582 q 156 485 176 532 q 92 540 92 497 q 158 627 92 594 q 329 660 225 660 q 489 610 433 660 q 544 433 544 561 m 450 303 q 390 296 410 299 q 335 289 369 293 q 285 281 301 285 q 244 269 268 276 q 208 254 219 263 q 183 236 196 246 q 160 182 160 217 q 196 90 160 119 q 288 60 232 60 q 447 122 382 60 q 446 193 446 142 q 450 303 446 244 z "},"æ":{"ha":1040,"x_min":63,"x_max":978,"o":"m 288 60 q 483 151 396 60 q 450 303 451 218 q 181 236 224 282 q 160 182 160 214 q 196 90 160 119 q 288 60 232 60 m 754 583 q 613 526 672 583 q 551 350 554 469 q 815 379 750 350 q 882 474 882 410 q 845 551 882 518 q 754 583 808 583 m 760 660 q 917 605 857 660 q 978 486 978 550 q 958 386 978 422 q 908 329 939 350 q 817 297 876 308 q 551 281 729 281 q 622 124 563 185 q 773 64 681 64 q 917 131 865 64 q 960 69 960 106 q 901 10 960 33 q 768 -14 843 -14 q 514 101 600 -14 q 402 15 468 43 q 276 -14 336 -14 q 63 182 63 -14 q 96 286 63 253 q 188 336 129 319 q 451 374 292 364 q 422 537 451 492 q 299 582 393 582 q 218 557 260 582 q 156 485 176 532 q 92 540 92 497 q 158 627 92 594 q 314 660 225 660 q 524 551 481 660 q 760 660 614 660 z "},"ç":{"ha":619,"x_min":63,"x_max":565,"o":"m 161 320 q 161 258 161 320 q 224 130 161 196 q 377 64 286 64 q 521 131 468 64 q 564 69 564 106 q 506 10 564 33 q 372 -14 447 -14 l 363 -14 q 357 -41 357 -36 q 358 -50 357 -46 q 361 -57 358 -54 q 365 -62 364 -60 q 372 -69 367 -65 q 378 -74 376 -72 q 394 -83 389 -81 q 460 -179 460 -121 q 412 -280 460 -237 q 293 -322 364 -322 q 244 -287 244 -322 q 263 -247 244 -265 q 306 -260 283 -260 q 375 -204 375 -260 q 333 -137 375 -172 q 290 -77 290 -101 q 307 -7 290 -53 q 131 93 200 13 q 63 315 63 174 q 90 472 63 403 q 164 581 118 540 q 368 660 257 660 q 500 628 435 660 q 565 542 565 596 q 501 478 565 488 q 440 555 486 528 q 346 582 394 582 q 215 513 268 582 q 161 320 161 444 z "},"è":{"ha":653,"x_min":63,"x_max":590,"o":"m 221 975 q 329 874 272 918 q 411 810 386 831 q 436 769 436 790 q 414 729 436 749 q 308 796 375 758 q 206 858 240 833 q 172 915 172 883 q 221 975 172 947 m 372 660 q 530 605 469 660 q 590 486 590 550 q 571 386 590 422 q 520 329 551 350 q 431 297 489 308 q 164 281 342 281 q 224 122 175 181 q 371 64 274 64 q 508 136 468 64 q 564 75 564 114 q 501 11 564 36 q 360 -14 438 -14 q 146 69 229 -14 q 63 317 63 151 q 155 572 63 483 q 372 660 247 660 m 367 583 q 224 526 283 583 q 163 350 165 469 q 426 379 361 350 q 474 415 454 392 q 494 478 494 439 q 458 551 494 518 q 367 583 421 583 z "},"é":{"ha":653,"x_min":63,"x_max":590,"o":"m 500 975 q 549 915 549 947 q 516 860 549 883 q 403 791 483 838 q 306 728 324 744 q 283 769 283 747 q 306 809 283 792 q 385 869 328 826 q 500 975 443 913 m 372 660 q 530 605 469 660 q 590 486 590 550 q 571 386 590 422 q 520 329 551 350 q 431 297 489 308 q 164 281 342 281 q 224 122 175 181 q 371 64 274 64 q 508 136 468 64 q 564 75 564 114 q 501 11 564 36 q 360 -14 438 -14 q 146 69 229 -14 q 63 317 63 151 q 155 572 63 483 q 372 660 247 660 m 367 583 q 224 526 283 583 q 163 350 165 469 q 426 379 361 350 q 474 415 454 392 q 494 478 494 439 q 458 551 494 518 q 367 583 421 583 z "},"ê":{"ha":653,"x_min":63,"x_max":590,"o":"m 368 943 q 491 849 433 901 q 549 766 549 797 q 517 721 549 735 q 453 785 490 754 q 390 831 415 817 l 365 844 q 340 823 357 838 q 312 800 322 808 q 286 780 301 792 q 260 760 271 768 q 239 746 250 753 q 205 732 219 732 q 172 757 190 732 q 368 943 261 864 m 372 660 q 530 605 469 660 q 590 486 590 550 q 571 386 590 422 q 520 329 551 350 q 431 297 489 308 q 164 281 342 281 q 224 122 175 181 q 371 64 274 64 q 508 136 468 64 q 564 75 564 114 q 501 11 564 36 q 360 -14 438 -14 q 146 69 229 -14 q 63 317 63 151 q 155 572 63 483 q 372 660 247 660 m 367 583 q 224 526 283 583 q 163 350 165 469 q 426 379 361 350 q 474 415 454 392 q 494 478 494 439 q 458 551 494 518 q 367 583 421 583 z "},"ë":{"ha":653,"x_min":63,"x_max":590,"o":"m 372 660 q 530 605 469 660 q 590 486 590 550 q 571 386 590 422 q 520 329 551 350 q 431 297 489 308 q 164 281 342 281 q 224 122 175 181 q 371 64 274 64 q 508 136 468 64 q 564 75 564 114 q 501 11 564 36 q 360 -14 438 -14 q 146 69 229 -14 q 63 317 63 151 q 155 572 63 483 q 372 660 247 660 m 367 583 q 224 526 283 583 q 163 350 165 469 q 426 379 361 350 q 474 415 454 392 q 494 478 494 439 q 458 551 494 518 q 367 583 421 583 m 560 798 q 560 782 560 798 q 538 745 560 767 q 487 724 515 724 q 438 744 458 724 q 417 797 417 765 q 439 851 417 829 q 490 872 461 872 q 539 851 518 872 q 560 798 560 829 m 313 798 q 313 782 313 798 q 290 745 313 767 q 240 724 268 724 q 190 744 211 724 q 169 797 169 765 q 192 851 169 829 q 242 872 214 872 q 292 851 271 872 q 313 798 313 829 z "},"ì":{"ha":296,"x_min":-33,"x_max":231,"o":"m 15 975 q 124 874 67 918 q 206 810 181 831 q 231 769 231 790 q 208 729 231 749 q 102 796 169 758 q 1 858 35 833 q -33 915 -33 883 q 15 975 -33 947 m 99 75 l 101 321 q 92 646 101 519 q 139 650 114 650 q 204 597 204 650 q 201 542 204 590 q 193 244 193 393 q 219 7 193 94 q 160 -4 194 -4 q 113 14 126 -4 q 99 75 99 32 z "},"í":{"ha":296,"x_min":50,"x_max":315,"o":"m 267 975 q 315 915 315 947 q 283 860 315 883 q 170 791 250 838 q 72 728 90 744 q 50 769 50 747 q 72 809 50 792 q 152 869 94 826 q 267 975 210 913 m 99 75 l 101 321 q 92 646 101 519 q 139 650 114 650 q 204 597 204 650 q 201 542 204 590 q 193 244 193 393 q 219 7 193 94 q 160 -4 194 -4 q 113 14 126 -4 q 99 75 99 32 z "},"î":{"ha":296,"x_min":-43,"x_max":333,"o":"m 153 943 q 276 849 218 901 q 333 766 333 797 q 301 721 333 735 q 238 785 275 754 q 175 831 200 817 l 150 844 q 124 823 142 838 q 97 800 107 808 q 71 780 86 792 q 45 760 56 768 q 25 746 35 753 q -11 732 3 732 q -43 757 -25 732 q 153 943 46 864 m 99 75 l 101 321 q 92 646 101 519 q 139 650 114 650 q 204 597 204 650 q 201 542 204 590 q 193 244 193 393 q 219 7 193 94 q 160 -4 194 -4 q 113 14 126 -4 q 99 75 99 32 z "},"ï":{"ha":296,"x_min":-47,"x_max":343,"o":"m 99 75 l 101 321 q 92 646 101 519 q 139 650 114 650 q 204 597 204 650 q 201 542 204 590 q 193 244 193 393 q 219 7 193 94 q 160 -4 194 -4 q 113 14 126 -4 q 99 75 99 32 m 343 798 q 343 782 343 798 q 321 745 343 767 q 270 724 299 724 q 221 744 242 724 q 200 797 200 765 q 222 851 200 829 q 273 872 244 872 q 322 851 301 872 q 343 798 343 829 m 96 798 q 96 782 96 798 q 74 745 96 767 q 23 724 51 724 q -26 744 -6 724 q -47 797 -47 765 q -25 851 -47 829 q 26 872 -3 872 q 75 851 54 872 q 96 798 96 829 z "},"ð":{"ha":735,"x_min":63,"x_max":667,"o":"m 365 64 q 413 64 365 64 q 515 129 461 64 q 569 308 569 194 q 514 502 569 422 q 363 582 458 582 q 213 516 267 582 q 160 336 160 450 q 214 143 160 222 q 365 64 268 64 m 388 814 l 243 707 q 207 753 207 731 q 229 792 207 776 q 325 856 269 818 q 139 918 246 900 q 138 939 138 925 q 171 969 138 969 q 270 950 204 969 q 390 901 336 931 q 542 1015 490 972 q 572 964 572 988 q 549 926 572 940 q 501 894 535 917 q 453 860 468 871 q 619 637 571 765 q 667 322 667 508 q 583 78 667 169 q 365 -14 500 -14 q 146 78 229 -14 q 63 322 63 169 q 146 567 63 475 q 364 660 229 660 q 535 603 469 660 q 388 814 485 736 z "},"ñ":{"ha":721,"x_min":83,"x_max":638,"o":"m 515 67 l 524 426 q 485 543 524 504 q 388 582 447 582 q 201 506 293 582 q 204 206 204 317 q 213 1 204 96 q 165 -3 190 -3 q 103 50 103 -3 q 106 152 103 56 q 110 344 110 249 q 83 639 110 572 q 133 650 111 650 q 197 581 197 650 q 304 636 239 613 q 442 660 369 660 q 566 613 514 660 q 618 464 618 567 l 614 217 q 638 7 614 89 q 578 -4 610 -4 q 531 12 547 -4 q 515 67 515 28 m 563 847 q 519 772 563 808 q 438 736 476 736 q 347 767 399 736 q 269 799 294 799 q 188 740 244 799 q 165 769 165 750 q 209 844 165 807 q 301 881 253 881 q 381 849 326 881 q 463 818 435 818 q 540 876 490 818 q 563 847 563 868 z "},"ò":{"ha":729,"x_min":63,"x_max":667,"o":"m 204 975 q 313 874 256 918 q 394 810 369 831 q 419 769 419 790 q 397 729 419 749 q 291 796 358 758 q 190 858 224 833 q 156 915 156 883 q 204 975 156 947 m 667 322 q 667 246 667 322 q 583 78 667 169 q 365 -14 500 -14 q 146 78 229 -14 q 63 322 63 169 q 146 567 63 475 q 365 660 229 660 q 583 567 500 660 q 667 322 667 475 m 365 64 q 413 64 365 64 q 515 129 461 64 q 569 308 569 194 q 514 502 569 422 q 363 582 458 582 q 213 516 267 582 q 160 336 160 450 q 214 143 160 222 q 365 64 268 64 z "},"ó":{"ha":729,"x_min":63,"x_max":667,"o":"m 525 975 q 574 915 574 947 q 541 860 574 883 q 428 791 508 838 q 331 728 349 744 q 308 769 308 747 q 331 809 308 792 q 410 869 353 826 q 525 975 468 913 m 667 322 q 667 246 667 322 q 583 78 667 169 q 365 -14 500 -14 q 146 78 229 -14 q 63 322 63 169 q 146 567 63 475 q 365 660 229 660 q 583 567 500 660 q 667 322 667 475 m 365 64 q 413 64 365 64 q 515 129 461 64 q 569 308 569 194 q 514 502 569 422 q 363 582 458 582 q 213 516 267 582 q 160 336 160 450 q 214 143 160 222 q 365 64 268 64 z "},"ô":{"ha":729,"x_min":63,"x_max":667,"o":"m 365 943 q 488 849 431 901 q 546 766 546 797 q 514 721 546 735 q 450 785 488 754 q 388 831 413 817 l 363 844 q 337 823 354 838 q 309 800 319 808 q 283 780 299 792 q 258 760 268 768 q 236 746 247 753 q 201 732 215 732 q 169 757 188 732 q 365 943 258 864 m 667 322 q 667 246 667 322 q 583 78 667 169 q 365 -14 500 -14 q 146 78 229 -14 q 63 322 63 169 q 146 567 63 475 q 365 660 229 660 q 583 567 500 660 q 667 322 667 475 m 365 64 q 413 64 365 64 q 515 129 461 64 q 569 308 569 194 q 514 502 569 422 q 363 582 458 582 q 213 516 267 582 q 160 336 160 450 q 214 143 160 222 q 365 64 268 64 z "},"õ":{"ha":729,"x_min":63,"x_max":667,"o":"m 667 322 q 667 246 667 322 q 583 78 667 169 q 365 -14 500 -14 q 146 78 229 -14 q 63 322 63 169 q 146 567 63 475 q 365 660 229 660 q 583 567 500 660 q 667 322 667 475 m 365 64 q 413 64 365 64 q 515 129 461 64 q 569 308 569 194 q 514 502 569 422 q 363 582 458 582 q 213 516 267 582 q 160 336 160 450 q 214 143 160 222 q 365 64 268 64 m 563 847 q 519 772 563 808 q 438 736 476 736 q 347 767 399 736 q 269 799 294 799 q 188 740 244 799 q 165 769 165 750 q 209 844 165 807 q 301 881 253 881 q 381 849 326 881 q 463 818 435 818 q 540 876 490 818 q 563 847 563 868 z "},"ö":{"ha":729,"x_min":63,"x_max":667,"o":"m 667 322 q 667 246 667 322 q 583 78 667 169 q 365 -14 500 -14 q 146 78 229 -14 q 63 322 63 169 q 146 567 63 475 q 365 660 229 660 q 583 567 500 660 q 667 322 667 475 m 365 64 q 413 64 365 64 q 515 129 461 64 q 569 308 569 194 q 514 502 569 422 q 363 582 458 582 q 213 516 267 582 q 160 336 160 450 q 214 143 160 222 q 365 64 268 64 m 560 798 q 560 782 560 798 q 538 745 560 767 q 487 724 515 724 q 438 744 458 724 q 417 797 417 765 q 439 851 417 829 q 490 872 461 872 q 539 851 518 872 q 560 798 560 829 m 313 798 q 313 782 313 798 q 290 745 313 767 q 240 724 268 724 q 190 744 211 724 q 169 797 169 765 q 192 851 169 829 q 242 872 214 872 q 292 851 271 872 q 313 798 313 829 z "},"÷":{"ha":743,"x_min":96,"x_max":647,"o":"m 597 300 l 381 311 q 100 300 222 311 q 96 342 96 321 q 108 382 96 364 q 146 400 121 400 q 233 395 150 400 q 438 390 317 390 q 643 400 558 390 q 647 360 647 388 q 633 317 647 333 q 597 300 619 300 m 430 532 q 419 521 430 532 q 376 510 408 510 q 322 532 344 510 q 300 588 300 554 q 322 645 300 622 q 376 668 344 668 q 430 645 408 668 q 451 588 451 622 q 430 532 451 554 m 430 54 q 419 43 430 54 q 376 32 408 32 q 322 54 344 32 q 300 110 300 76 q 322 167 300 144 q 376 190 344 190 q 430 167 408 190 q 451 110 451 144 q 430 54 451 76 z "},"ø":{"ha":729,"x_min":63,"x_max":667,"o":"m 368 64 q 516 130 463 64 q 569 310 569 196 q 510 507 569 425 l 276 86 q 368 64 315 64 m 360 582 q 213 515 265 582 q 160 328 160 447 q 219 135 160 208 l 454 557 q 360 582 411 582 m 118 -46 l 172 51 q 63 321 63 142 q 145 567 63 475 q 364 660 228 660 q 494 632 435 660 q 565 775 522 686 q 609 763 589 774 q 629 738 629 751 q 621 704 629 724 l 558 592 q 667 334 667 499 q 583 78 667 169 q 364 -14 500 -14 q 238 11 294 -14 q 174 -117 192 -79 q 110 -72 110 -108 q 118 -46 110 -62 z "},"ù":{"ha":719,"x_min":83,"x_max":636,"o":"m 203 975 q 311 874 254 918 q 393 810 368 831 q 418 769 418 790 q 396 729 418 749 q 290 796 357 758 q 188 858 222 833 q 154 915 154 883 q 203 975 154 947 m 615 597 l 610 282 q 636 7 610 106 q 585 -4 608 -4 q 521 65 521 -4 q 300 -14 421 -14 q 103 182 103 -14 l 107 429 q 83 639 107 556 q 142 650 111 650 q 190 634 174 650 q 206 579 206 618 l 197 219 q 234 104 197 144 q 329 64 271 64 q 517 140 429 64 q 515 363 515 200 q 506 646 515 525 q 553 650 528 650 q 615 597 615 650 z "},"ú":{"ha":719,"x_min":83,"x_max":636,"o":"m 524 975 q 572 915 572 947 q 540 860 572 883 q 427 791 507 838 q 329 728 347 744 q 307 769 307 747 q 329 809 307 792 q 409 869 351 826 q 524 975 467 913 m 615 597 l 610 282 q 636 7 610 106 q 585 -4 608 -4 q 521 65 521 -4 q 300 -14 421 -14 q 103 182 103 -14 q 107 429 103 182 q 83 639 107 556 q 142 650 111 650 q 190 634 174 650 q 206 579 206 618 l 197 219 q 234 104 197 144 q 329 64 271 64 q 517 140 429 64 q 515 363 515 200 q 506 646 515 525 q 553 650 528 650 q 615 597 615 650 z "},"û":{"ha":719,"x_min":83,"x_max":636,"o":"m 364 943 q 487 849 429 901 q 544 766 544 797 q 513 721 544 735 q 449 785 486 754 q 386 831 411 817 l 361 844 q 335 823 353 838 q 308 800 318 808 q 282 780 297 792 q 256 760 267 768 q 236 746 246 753 q 200 732 214 732 q 168 757 186 732 q 364 943 257 864 m 615 597 l 610 282 q 636 7 610 106 q 585 -4 608 -4 q 521 65 521 -4 q 300 -14 421 -14 q 103 182 103 -14 l 107 429 q 83 639 107 556 q 142 650 111 650 q 190 634 174 650 q 206 579 206 618 l 197 219 q 234 104 197 144 q 329 64 271 64 q 517 140 429 64 q 515 363 515 200 q 506 646 515 525 q 553 650 528 650 q 615 597 615 650 z "},"ü":{"ha":719,"x_min":83,"x_max":636,"o":"m 615 597 l 610 282 q 636 7 610 106 q 585 -4 608 -4 q 521 65 521 -4 q 300 -14 421 -14 q 103 182 103 -14 l 107 429 q 83 639 107 556 q 142 650 111 650 q 190 634 174 650 q 206 579 206 618 q 197 219 206 579 q 234 104 197 144 q 329 64 271 64 q 517 140 429 64 q 515 363 515 200 q 506 646 515 525 q 553 650 528 650 q 615 597 615 650 m 554 798 q 554 782 554 798 q 532 745 554 767 q 481 724 510 724 q 432 744 453 724 q 411 797 411 765 q 433 851 411 829 q 484 872 456 872 q 533 851 513 872 q 554 798 554 829 m 307 798 q 307 782 307 798 q 285 745 307 767 q 234 724 263 724 q 185 744 206 724 q 164 797 164 765 q 186 851 164 829 q 237 872 208 872 q 286 851 265 872 q 307 798 307 829 z "},"ý":{"ha":613,"x_min":0,"x_max":571,"o":"m 467 975 q 515 915 515 947 q 483 860 515 883 q 370 791 450 838 q 272 728 290 744 q 250 769 250 747 q 272 809 250 792 q 352 869 294 826 q 467 975 410 913 m 522 660 q 571 599 571 660 q 522 383 571 539 q 404 82 472 226 q 174 -312 282 -178 q 119 -349 146 -349 q 43 -293 81 -349 q 154 -185 85 -267 q 275 -22 224 -104 q 143 345 226 139 q 0 608 60 551 q 80 653 49 653 q 133 608 111 653 q 232 376 167 542 q 329 100 297 210 q 434 378 389 229 q 479 613 479 526 q 476 653 479 619 q 522 660 497 660 z "},"þ":{"ha":701,"x_min":83,"x_max":639,"o":"m 186 507 l 188 106 q 354 64 251 64 q 461 106 417 64 q 540 339 540 183 q 492 523 540 464 q 361 582 444 582 q 186 507 278 582 m 89 -272 l 93 318 l 93 657 q 83 1028 93 903 q 132 1032 106 1032 q 196 979 196 1032 q 194 917 196 972 q 186 585 186 717 q 397 660 290 660 q 572 585 504 660 q 639 360 639 511 q 507 40 639 143 q 348 -14 438 -14 q 185 33 258 -14 q 194 -259 185 -203 q 213 -340 204 -315 q 152 -351 188 -351 q 103 -333 117 -351 q 89 -272 89 -315 z "},"ÿ":{"ha":613,"x_min":0,"x_max":571,"o":"m 483 798 q 483 782 483 798 q 461 745 483 767 q 410 724 439 724 q 361 744 382 724 q 340 797 340 765 q 363 851 340 829 q 413 872 385 872 q 463 851 442 872 q 483 798 483 829 m 236 798 q 236 782 236 798 q 214 745 236 767 q 163 724 192 724 q 114 744 135 724 q 93 797 93 765 q 115 851 93 829 q 166 872 138 872 q 215 851 194 872 q 236 798 236 829 m 522 660 q 571 599 571 660 q 522 383 571 539 q 404 82 472 226 q 174 -312 282 -178 q 119 -349 146 -349 q 43 -293 81 -349 q 154 -185 85 -267 q 275 -22 224 -104 q 143 345 226 139 q 0 608 60 551 q 80 653 49 653 q 133 608 111 653 q 232 376 167 542 q 329 100 297 210 q 434 378 389 229 q 479 613 479 526 q 476 653 479 619 q 522 660 497 660 z "},"ı":{"ha":296,"x_min":92,"x_max":219,"o":"m 99 75 l 101 321 q 92 646 101 519 q 139 650 114 650 q 204 597 204 650 q 201 542 204 590 q 193 244 193 393 q 219 7 193 94 q 160 -4 194 -4 q 113 14 126 -4 q 99 75 99 32 z "},"Ł":{"ha":596,"x_min":-62,"x_max":596,"o":"m 101 368 q -18 267 51 329 q -62 321 -62 293 q -42 354 -62 338 l 101 463 l 101 599 q 92 921 101 794 q 149 925 115 925 q 217 872 217 925 q 214 817 217 865 q 206 543 206 668 q 386 694 304 621 q 431 642 431 672 q 410 607 431 622 l 206 450 q 215 86 206 147 q 307 83 274 83 q 586 115 524 83 q 596 58 596 86 q 583 18 596 29 q 382 -3 560 -3 q 165 -1 204 -3 q 112 19 125 1 q 99 79 99 38 l 101 311 l 101 368 z "},"ł":{"ha":296,"x_min":-96,"x_max":397,"o":"m 94 418 l -51 294 q -96 349 -96 321 q -75 382 -96 365 l 94 511 l 94 626 q 83 1028 94 954 q 132 1032 106 1032 q 196 979 196 1032 q 194 917 196 972 q 186 582 186 717 q 353 722 268 647 q 397 669 397 700 q 376 635 397 650 l 186 489 l 186 281 q 213 7 186 96 q 154 -4 188 -4 q 106 13 121 -4 q 92 68 92 29 q 94 418 92 163 z "},"Œ":{"ha":1222,"x_min":68,"x_max":1181,"o":"m 656 113 l 658 311 l 658 589 q 651 804 658 693 q 494 850 583 850 q 267 752 351 850 q 182 503 182 654 q 251 210 182 338 q 348 108 286 146 q 498 71 410 71 q 656 113 586 71 m 757 832 q 763 538 763 771 l 872 538 q 1039 543 989 538 q 1044 503 1044 532 q 1030 464 1044 475 q 981 451 1015 453 q 885 450 947 450 l 763 450 q 772 86 763 147 q 871 83 833 83 q 1169 115 1104 83 q 1181 58 1181 88 q 1168 18 1181 29 q 943 -3 1143 -3 l 885 -3 q 654 13 715 -3 q 493 -14 578 -14 q 183 115 299 -14 q 68 461 68 244 q 183 806 68 678 q 493 935 299 935 q 639 913 568 935 q 965 925 788 925 q 1167 904 1142 925 q 1179 864 1179 893 q 1168 807 1179 835 q 910 836 1089 836 q 757 832 836 836 z "},"œ":{"ha":1156,"x_min":63,"x_max":1093,"o":"m 869 583 q 728 526 788 583 q 667 350 669 469 q 931 379 865 350 q 997 474 997 410 q 960 551 997 518 q 869 583 924 583 m 365 64 q 413 64 365 64 q 515 129 461 64 q 569 308 569 194 q 514 502 569 422 q 363 582 458 582 q 213 516 267 582 q 160 336 160 450 q 214 143 160 222 q 365 64 268 64 m 364 -14 q 146 78 229 -14 q 63 322 63 169 q 146 567 63 475 q 364 660 229 660 q 617 521 535 660 q 729 624 660 589 q 885 660 799 660 q 1033 605 972 660 q 1093 486 1093 550 q 1074 386 1093 422 q 1023 329 1054 350 q 933 297 992 308 q 667 281 844 281 q 737 124 678 185 q 888 64 796 64 q 1032 131 981 64 q 1075 69 1075 106 q 1017 10 1075 33 q 883 -14 958 -14 q 617 122 701 -14 q 364 -14 533 -14 z "},"Š":{"ha":719,"x_min":63,"x_max":657,"o":"m 383 994 q 260 1088 318 1036 q 203 1172 203 1140 q 235 1217 203 1203 q 299 1153 261 1183 q 361 1108 336 1122 l 386 1093 q 412 1115 394 1100 q 440 1138 429 1129 q 465 1158 450 1146 q 491 1177 481 1169 q 511 1192 501 1185 q 547 1206 532 1206 q 579 1181 561 1206 q 383 994 490 1074 m 557 740 q 472 816 533 786 q 343 846 411 846 q 227 807 275 846 q 179 704 179 768 q 206 606 179 640 q 274 553 232 571 q 367 522 317 535 q 469 492 418 508 q 562 450 519 475 q 631 376 604 425 q 657 257 657 328 q 629 131 657 186 q 554 46 601 76 q 345 -14 463 -14 q 145 24 228 -14 q 63 117 63 63 q 97 171 63 149 q 133 190 108 178 q 228 106 160 139 q 372 74 297 74 q 501 116 446 74 q 557 233 557 158 q 508 347 557 307 q 388 405 458 386 q 248 446 318 424 q 128 523 178 468 q 79 671 79 578 q 163 867 79 799 q 378 935 247 935 q 555 901 474 935 q 636 810 636 868 q 557 740 636 754 z "},"š":{"ha":568,"x_min":56,"x_max":511,"o":"m 308 731 q 185 824 243 772 q 128 908 128 876 q 160 953 128 939 q 224 889 186 919 q 286 844 261 858 l 311 829 q 337 851 319 836 q 365 874 354 865 q 390 894 375 882 q 416 913 406 906 q 436 928 426 921 q 472 942 457 942 q 504 917 486 942 q 308 731 415 810 m 431 492 q 368 557 415 532 q 272 582 321 582 q 188 556 222 582 q 153 484 153 531 q 190 413 153 438 q 279 376 226 388 q 385 349 332 364 q 474 294 438 335 q 511 188 511 254 q 440 38 511 89 q 278 -14 369 -14 q 122 18 188 -14 q 56 97 56 50 q 118 156 56 138 q 184 88 133 111 q 294 64 235 64 q 391 90 354 64 q 428 167 428 117 q 391 242 428 218 q 301 276 354 265 q 196 301 249 286 q 106 360 143 317 q 69 480 69 403 q 141 608 69 557 q 290 660 213 660 q 431 631 368 660 q 493 554 493 601 q 431 492 493 507 z "},"Ÿ":{"ha":696,"x_min":-14,"x_max":689,"o":"m 689 871 q 583 674 689 836 q 399 418 478 513 l 399 300 q 425 7 399 97 q 360 -4 400 -4 q 306 14 319 -4 q 292 75 292 32 q 294 322 293 203 l 294 408 q -14 860 93 788 q 17 896 7 888 q 36 913 26 904 q 74 926 53 926 q 140 879 108 926 q 363 501 224 758 q 505 735 429 589 q 583 933 581 882 q 689 871 689 926 m 542 1063 q 542 1048 542 1063 q 519 1010 542 1032 q 469 989 497 989 q 419 1010 440 989 q 399 1063 399 1031 q 421 1116 399 1094 q 472 1138 443 1138 q 521 1116 500 1138 q 542 1063 542 1094 m 294 1063 q 294 1048 294 1063 q 272 1010 294 1032 q 222 989 250 989 q 172 1010 193 989 q 151 1063 151 1031 q 174 1116 151 1094 q 224 1138 196 1138 q 274 1116 253 1138 q 294 1063 294 1094 z "},"Ž":{"ha":743,"x_min":36,"x_max":715,"o":"m 413 994 q 290 1088 347 1036 q 232 1172 232 1140 q 264 1217 232 1203 q 328 1153 290 1183 q 390 1108 365 1122 l 415 1093 q 441 1115 424 1100 q 469 1138 458 1129 q 494 1158 479 1146 q 520 1177 510 1169 q 542 1192 531 1185 q 576 1206 561 1206 q 608 1181 590 1206 q 413 994 519 1074 m 693 900 q 715 843 715 875 q 692 781 715 811 l 131 79 q 243 74 181 74 q 682 118 513 74 q 696 55 696 82 q 672 17 696 28 q 403 -8 619 -8 q 61 8 186 -8 q 36 82 36 42 q 71 165 36 122 l 594 833 q 425 842 529 842 q 78 804 229 842 q 64 863 64 838 q 104 913 64 901 q 349 926 163 926 q 693 900 536 926 z "},"ž":{"ha":596,"x_min":35,"x_max":547,"o":"m 318 729 q 195 823 253 771 q 138 906 138 875 q 169 951 138 938 q 233 888 196 918 q 296 842 271 857 l 321 828 q 347 849 329 835 q 374 872 364 864 q 400 892 385 881 q 426 912 415 904 q 447 926 436 919 q 481 940 467 940 q 514 915 496 940 q 318 729 425 808 m 525 626 q 547 563 547 604 q 524 499 547 522 l 114 72 q 207 68 161 68 q 515 110 356 68 q 528 60 528 85 q 516 24 528 36 q 492 8 504 13 q 288 -8 429 -8 q 56 8 147 -8 q 35 79 35 38 q 65 151 35 121 l 469 567 q 319 575 392 575 q 75 542 175 575 q 64 603 63 572 q 99 644 65 633 q 269 654 132 654 q 525 626 406 654 z "},"ƒ":{"ha":743,"x_min":14,"x_max":678,"o":"m 514 518 l 389 522 l 368 181 q 242 -142 354 -78 q 133 -167 196 -167 q 42 -146 71 -167 q 14 -99 14 -125 q 33 -51 14 -72 q 90 -25 53 -31 q 164 -90 108 -90 q 240 -43 219 -90 q 268 115 261 4 l 293 524 q 206 518 267 524 q 201 540 201 531 q 244 575 201 574 l 296 576 q 435 908 315 839 q 551 936 485 936 q 647 915 617 936 q 678 868 678 894 q 658 821 678 842 q 601 794 639 800 q 517 860 582 860 q 428 813 453 860 q 397 654 404 765 l 393 582 q 581 599 517 589 q 586 562 586 588 q 569 527 586 536 q 514 518 551 518 z "},"ˆ":{"ha":385,"x_min":-3,"x_max":374,"o":"m 193 943 q 316 849 258 901 q 374 766 374 797 q 342 721 374 735 q 278 785 315 754 q 215 831 240 817 l 190 844 q 165 823 182 838 q 137 800 147 808 q 111 780 126 792 q 85 760 96 768 q 64 746 75 753 q 30 732 44 732 q -3 757 15 732 q 193 943 86 864 z "},"ˇ":{"ha":385,"x_min":36,"x_max":413,"o":"m 217 721 q 94 815 151 763 q 36 898 36 867 q 68 943 36 929 q 132 879 94 910 q 194 833 169 849 l 219 819 q 245 841 228 826 q 273 864 263 856 q 299 884 283 872 q 324 903 314 896 q 344 918 335 911 q 380 932 365 932 q 413 907 394 932 q 217 721 324 800 z "},"˘":{"ha":378,"x_min":0,"x_max":378,"o":"m 99 862 q 114 847 99 862 q 189 832 129 832 q 278 862 249 832 q 326 954 308 892 q 378 913 378 950 q 324 800 378 858 q 189 742 271 742 q 53 800 107 742 q 0 913 0 858 q 51 954 0 950 q 99 862 69 892 z "},"˙":{"ha":143,"x_min":0,"x_max":143,"o":"m 143 798 q 143 782 143 798 q 121 745 143 767 q 70 724 99 724 q 21 744 42 724 q 0 797 0 765 q 22 851 0 829 q 73 872 44 872 q 122 851 101 872 q 143 798 143 829 z "},"˚":{"ha":213,"x_min":-31,"x_max":231,"o":"m 151 847 q 138 899 151 879 q 101 919 125 919 q 49 860 49 919 q 63 809 49 829 q 101 789 78 789 q 151 847 151 789 m 195 758 q 177 740 195 758 q 101 722 160 722 q 6 758 43 722 q -31 854 -31 794 q 6 950 -31 914 q 101 986 43 986 q 195 950 160 986 q 231 854 231 914 q 195 758 231 794 z "},"˛":{"ha":653,"x_min":274,"x_max":533,"o":"m 456 21 l 493 10 q 387 -74 415 -29 q 358 -163 358 -118 q 376 -228 358 -208 q 422 -249 394 -249 q 501 -201 471 -249 q 533 -244 533 -221 q 495 -286 533 -268 q 405 -304 457 -304 q 313 -274 353 -304 q 274 -178 274 -244 q 320 -64 274 -111 q 456 21 367 -17 z "},"˜":{"ha":397,"x_min":0,"x_max":397,"o":"m 397 847 q 354 772 397 808 q 272 736 311 736 q 181 767 233 736 q 104 799 129 799 q 22 740 79 799 q 0 769 0 750 q 44 844 0 807 q 136 881 88 881 q 215 849 161 881 q 297 818 269 818 q 375 876 325 818 q 397 847 397 868 z "},"˝":{"ha":557,"x_min":10,"x_max":539,"o":"m 226 975 q 275 915 275 947 q 242 860 275 882 q 129 790 208 838 q 32 728 50 743 q 10 769 10 747 q 34 811 10 792 q 116 874 58 831 q 226 975 174 917 m 490 975 q 539 915 539 947 q 506 860 539 882 q 393 790 472 838 q 296 728 314 743 q 274 769 274 747 q 298 811 274 792 q 380 874 322 831 q 490 975 438 917 z "},"π":{"ha":711,"x_min":14,"x_max":683,"o":"m 240 339 l 243 68 q 231 13 243 29 q 188 -4 218 -4 q 136 7 158 -4 q 163 192 163 67 l 163 235 q 158 474 163 383 q 153 574 153 565 q 25 549 81 571 q 14 590 14 571 q 17 619 14 608 q 38 639 21 629 q 86 649 54 649 l 389 646 l 488 646 q 672 672 613 646 q 683 625 683 653 q 667 585 683 597 q 611 572 650 572 l 540 572 q 531 235 531 349 l 531 192 q 557 7 531 67 q 499 -4 532 -4 q 451 13 465 -4 q 436 68 436 29 l 439 339 q 440 574 439 514 q 346 575 407 575 l 240 575 l 240 339 z "},"–":{"ha":826,"x_min":42,"x_max":785,"o":"m 735 313 l 525 324 l 326 324 q 46 313 168 324 q 42 355 42 333 q 54 394 42 376 q 92 413 67 413 q 179 408 96 413 q 324 403 263 403 l 521 403 q 781 413 697 403 q 785 373 785 400 q 771 329 785 346 q 735 313 757 313 z "},"—":{"ha":1049,"x_min":42,"x_max":1007,"o":"m 92 408 l 240 403 l 858 403 q 1003 413 946 403 q 1007 374 1007 400 q 993 332 1007 347 q 957 317 979 317 l 818 324 l 200 324 q 46 313 114 324 q 42 355 42 333 q 53 392 42 376 q 92 408 65 408 z "},"‘":{"ha":246,"x_min":24,"x_max":221,"o":"m 110 860 q 178 778 110 792 q 192 729 192 756 q 168 683 192 703 q 110 663 144 663 q 49 694 75 663 q 24 803 24 726 q 72 954 24 881 q 185 1028 119 1028 q 221 986 221 1028 q 219 969 221 975 l 213 969 q 139 936 168 969 q 110 860 110 903 z "},"’":{"ha":339,"x_min":58,"x_max":256,"o":"m 169 831 q 101 913 169 899 q 88 961 88 935 q 111 1008 88 988 q 169 1028 135 1028 q 230 996 204 1028 q 256 887 256 964 q 208 736 256 810 q 94 663 160 663 q 58 704 58 663 q 60 721 58 715 l 67 721 q 140 754 111 721 q 169 831 169 788 z "},"‚":{"ha":303,"x_min":36,"x_max":233,"o":"m 147 -31 q 79 51 147 38 q 65 100 65 74 q 89 147 65 126 q 147 167 113 167 q 208 135 182 167 q 233 26 233 103 q 185 -125 233 -51 q 72 -199 138 -199 q 36 -157 36 -199 q 38 -140 36 -146 l 44 -140 q 118 -107 89 -140 q 147 -31 147 -74 z "},"“":{"ha":568,"x_min":42,"x_max":513,"o":"m 401 857 q 469 775 401 789 q 483 726 483 753 q 460 680 483 700 q 401 660 436 660 q 341 692 367 660 q 315 801 315 724 q 363 951 315 878 q 476 1025 411 1025 q 513 983 513 1025 q 511 967 513 972 l 504 967 q 431 933 460 967 q 401 857 401 900 m 128 857 q 196 775 128 789 q 210 726 210 753 q 186 680 210 700 q 128 660 163 660 q 67 692 93 660 q 42 801 42 724 q 90 951 42 878 q 203 1025 138 1025 q 239 983 239 1025 q 238 967 239 972 l 231 967 q 157 933 186 967 q 128 857 128 900 z "},"”":{"ha":632,"x_min":69,"x_max":535,"o":"m 181 831 q 113 913 181 899 q 99 961 99 935 q 122 1008 99 988 q 181 1028 146 1028 q 241 996 215 1028 q 267 887 267 964 q 219 736 267 810 q 106 663 171 663 q 69 704 69 663 q 71 721 69 715 l 78 721 q 151 754 122 721 q 181 831 181 788 m 449 831 q 381 913 449 899 q 367 961 367 935 q 390 1008 367 988 q 449 1028 414 1028 q 509 996 483 1028 q 535 887 535 964 q 487 736 535 810 q 374 663 439 663 q 338 704 338 663 q 339 721 338 715 l 346 721 q 419 754 390 721 q 449 831 449 788 z "},"„":{"ha":571,"x_min":36,"x_max":501,"o":"m 147 -31 q 79 51 147 38 q 65 100 65 74 q 89 147 65 126 q 147 167 113 167 q 208 135 182 167 q 233 26 233 103 q 185 -125 233 -51 q 72 -199 138 -199 q 36 -157 36 -199 q 38 -140 36 -146 l 44 -140 q 118 -107 89 -140 q 147 -31 147 -74 m 415 -31 q 347 51 415 38 q 333 100 333 74 q 357 147 333 126 q 415 167 381 167 q 476 135 450 167 q 501 26 501 103 q 453 -125 501 -51 q 340 -199 406 -199 q 304 -157 304 -199 q 306 -140 304 -146 l 313 -140 q 386 -107 357 -140 q 415 -31 415 -74 z "},"†":{"ha":632,"x_min":63,"x_max":569,"o":"m 490 597 l 357 606 q 373 86 364 199 q 382 -45 382 -26 q 365 -91 382 -64 q 332 -133 349 -118 l 315 -147 q 250 -40 250 -94 q 254 28 250 -26 q 275 607 268 199 q 157 599 224 606 q 67 590 90 592 q 63 638 63 613 q 115 703 63 703 q 142 700 122 703 q 275 685 208 686 q 257 926 275 704 q 317 935 294 935 q 375 926 339 935 q 357 685 357 704 q 558 718 454 686 q 569 659 569 693 q 551 611 569 625 q 490 597 533 597 z "},"‡":{"ha":633,"x_min":63,"x_max":571,"o":"m 357 606 l 376 390 l 358 182 q 476 190 410 183 q 567 199 543 197 q 571 151 571 176 q 518 86 571 86 q 492 89 511 86 q 358 104 425 103 q 376 -137 358 85 q 317 -146 339 -146 q 258 -137 294 -146 q 276 104 276 85 q 75 71 179 103 q 64 130 64 96 q 82 178 64 164 q 143 192 100 192 l 276 183 q 265 293 275 225 q 256 391 256 361 q 265 492 256 421 q 275 607 274 564 q 157 599 224 606 q 67 590 90 592 q 63 638 63 613 q 115 703 63 703 q 142 700 122 703 q 275 685 208 686 q 257 926 275 704 q 317 935 294 935 q 375 926 339 935 q 357 685 357 704 q 558 718 454 686 q 569 659 569 693 q 551 611 569 625 q 490 597 533 597 l 357 606 z "},"•":{"ha":372,"x_min":35,"x_max":338,"o":"m 338 372 q 338 338 338 372 q 294 260 338 304 q 187 215 250 215 q 79 260 124 215 q 35 372 35 304 q 80 485 35 439 q 188 532 125 532 q 294 485 250 532 q 338 372 338 439 z "},"…":{"ha":1063,"x_min":58,"x_max":1007,"o":"m 202 11 q 190 -1 202 11 q 143 -14 178 -14 q 83 11 108 -14 q 58 74 58 36 q 83 137 58 111 q 143 163 108 163 q 202 137 178 163 q 226 74 226 111 q 202 11 226 36 m 983 11 q 970 -1 983 11 q 924 -14 958 -14 q 864 11 889 -14 q 839 74 839 36 q 864 137 839 111 q 924 163 889 163 q 983 137 958 163 q 1007 74 1007 111 q 983 11 1007 36 m 592 11 q 580 -1 592 11 q 533 -14 568 -14 q 474 11 499 -14 q 449 74 449 36 q 474 137 449 111 q 533 163 499 163 q 592 137 568 163 q 617 74 617 111 q 592 11 617 36 z "},"‰":{"ha":1517,"x_min":69,"x_max":1447,"o":"m 210 35 l 621 683 q 788 961 726 851 q 831 947 811 960 q 850 919 850 935 q 840 888 850 903 l 429 238 q 263 -40 331 82 q 199 1 203 -28 q 210 35 199 18 m 1447 217 q 1447 164 1447 217 q 1394 49 1447 111 q 1249 -14 1340 -14 q 1105 49 1158 -14 q 1051 217 1051 111 q 1105 385 1051 324 q 1249 447 1158 447 q 1394 385 1340 447 q 1447 217 1447 322 m 1247 56 q 1272 56 1247 56 q 1326 99 1297 56 q 1356 208 1356 142 q 1328 326 1356 274 q 1251 379 1300 379 q 1172 338 1203 379 q 1140 230 1140 296 q 1169 110 1140 164 q 1247 56 1197 56 m 975 217 q 975 164 975 217 q 922 49 975 111 q 777 -14 868 -14 q 633 49 686 -14 q 579 217 579 111 q 633 385 579 324 q 777 447 686 447 q 922 385 868 447 q 975 217 975 322 m 775 56 q 800 56 775 56 q 854 99 825 56 q 883 208 883 142 q 856 326 883 274 q 779 379 828 379 q 699 338 731 379 q 668 230 668 296 q 697 110 668 164 q 775 56 725 56 m 465 693 q 465 640 465 693 q 412 525 465 588 q 267 463 358 463 q 123 525 176 463 q 69 694 69 588 q 123 862 69 800 q 267 924 176 924 q 412 861 358 924 q 465 693 465 799 m 265 532 q 290 532 265 532 q 344 575 315 532 q 374 684 374 618 q 346 803 374 750 q 269 856 318 856 q 190 814 221 856 q 158 706 158 772 q 187 586 158 640 q 265 532 215 532 z "},"‹":{"ha":396,"x_min":56,"x_max":313,"o":"m 165 326 q 263 193 214 267 q 313 101 313 119 q 285 61 313 82 q 56 326 193 138 q 285 592 193 515 q 313 552 313 571 q 263 460 313 533 q 165 326 214 386 z "},"›":{"ha":396,"x_min":56,"x_max":313,"o":"m 203 326 q 105 460 154 386 q 56 552 56 533 q 83 592 56 571 q 313 326 175 515 q 83 61 175 138 q 56 101 56 82 q 105 193 56 119 q 203 326 154 267 z "},"⁄":{"ha":406,"x_min":-125,"x_max":494,"o":"m 426 1028 q 494 985 494 1019 q 486 958 494 975 l 81 146 q -57 -149 -12 -40 l -86 -144 q -125 -107 -125 -131 q -117 -79 -125 -96 l 289 733 q 426 1028 378 911 z "},"€":{"ha":743,"x_min":22,"x_max":715,"o":"m 125 406 q 124 457 124 424 q 125 504 124 490 q 26 497 96 503 q 22 521 22 511 q 60 558 22 558 l 129 558 q 182 731 142 657 q 278 849 222 806 q 532 935 392 935 q 715 869 715 935 q 685 807 715 825 q 522 857 615 857 q 340 780 428 857 q 229 558 253 703 l 406 558 q 631 565 550 558 l 633 544 q 596 504 633 504 l 224 504 q 222 466 222 490 q 225 406 222 442 l 406 406 q 631 413 550 406 l 633 392 q 596 351 633 351 l 232 351 q 344 140 258 213 q 522 67 429 67 q 685 117 615 67 q 715 54 715 99 q 532 -12 715 -12 q 283 69 394 -12 q 186 183 226 110 q 132 351 146 256 q 26 344 101 350 q 22 368 22 358 q 60 406 22 406 l 125 406 z "},"™":{"ha":1196,"x_min":139,"x_max":1104,"o":"m 585 458 l 586 606 l 586 772 q 574 903 586 840 q 628 911 607 911 q 692 868 667 911 q 836 535 763 743 q 982 868 893 707 q 1047 911 1006 911 q 1100 900 1072 911 q 1088 767 1088 847 l 1088 558 q 1104 413 1088 471 q 1053 404 1079 404 q 1017 417 1026 404 q 1007 463 1007 429 q 1008 587 1007 497 q 1008 774 1008 676 q 875 410 942 625 q 836 406 864 406 q 797 432 808 406 q 749 556 778 479 q 658 771 683 725 l 658 558 q 675 413 658 471 q 627 404 650 404 q 594 417 604 404 q 585 458 585 429 m 182 906 l 356 906 q 511 910 472 906 q 517 879 517 888 q 476 839 517 839 l 368 839 l 368 572 q 386 413 368 469 q 331 404 356 404 q 297 417 307 404 q 288 458 288 429 l 288 839 q 144 835 194 839 q 139 870 139 851 q 149 897 139 889 q 182 906 160 904 z "},"Ω":{"ha":1161,"x_min":63,"x_max":1099,"o":"m 278 822 q 340 881 278 822 q 581 940 401 940 q 883 822 760 940 q 1006 515 1006 703 q 735 83 1006 244 l 986 83 q 1064 225 1015 124 q 1074 226 1068 226 q 1099 204 1099 226 q 1061 0 1099 167 l 754 0 q 674 83 674 0 q 678 128 674 86 q 890 501 890 256 q 808 762 889 661 q 581 863 726 863 q 353 762 435 863 q 271 501 272 661 q 483 128 271 256 q 488 82 488 107 q 407 0 488 0 l 100 0 q 63 204 63 167 q 88 226 63 226 q 97 225 93 226 q 175 83 146 124 l 426 83 q 156 515 156 244 q 278 822 156 703 z "},"∂":{"ha":721,"x_min":69,"x_max":638,"o":"m 540 411 q 369 481 454 481 q 226 410 283 481 q 168 233 168 340 q 203 112 168 160 q 310 64 239 64 q 435 118 382 64 q 540 411 528 214 m 146 831 q 132 883 132 860 q 211 935 132 935 q 531 806 425 935 q 638 449 638 676 q 564 136 638 274 q 460 27 526 68 q 310 -14 394 -14 q 131 64 193 -14 q 69 263 69 142 q 148 470 69 383 q 336 557 226 557 q 543 481 446 557 q 469 754 540 657 q 271 851 399 851 q 146 831 214 851 z "},"∆":{"ha":921,"x_min":56,"x_max":865,"o":"m 153 97 q 440 83 240 83 q 725 97 640 83 q 447 771 497 631 q 153 97 278 392 m 56 56 q 168 306 89 132 q 410 863 332 667 q 468 893 422 893 q 504 889 479 893 q 865 56 739 339 q 826 0 865 0 l 94 0 q 56 56 56 0 z "},"∏":{"ha":949,"x_min":28,"x_max":943,"o":"m 107 922 l 353 919 l 617 919 q 939 928 803 919 q 943 882 943 908 q 890 828 943 828 l 735 833 q 731 772 735 825 q 724 531 724 656 l 724 282 q 750 7 724 94 q 685 -4 725 -4 q 631 14 644 -4 q 617 75 617 32 l 619 321 l 619 836 l 579 836 q 315 835 383 836 l 315 321 l 318 75 q 306 14 318 32 q 257 -4 293 -4 q 199 7 221 -4 q 225 282 225 94 l 225 531 q 219 741 225 654 q 214 833 214 828 q 39 815 104 829 q 28 867 28 835 q 46 911 28 900 q 107 922 64 922 z "},"∑":{"ha":874,"x_min":35,"x_max":804,"o":"m 633 831 l 206 832 l 425 446 q 431 419 431 435 q 397 350 431 404 l 188 13 l 692 13 q 769 154 721 53 q 779 156 774 156 q 804 133 804 156 q 764 -86 804 89 l 56 -86 q 42 -79 47 -86 q 35 -60 36 -72 l 328 397 l 50 875 q 58 903 50 892 q 81 914 67 914 l 701 914 q 733 731 733 772 q 708 708 733 708 q 699 710 703 708 q 633 831 658 794 z "},"−":{"ha":743,"x_min":96,"x_max":647,"o":"m 597 299 l 381 310 q 100 299 222 310 q 96 341 96 319 q 108 381 96 363 q 146 399 121 399 q 233 394 150 399 q 438 389 317 389 q 643 399 558 389 q 647 359 647 386 q 633 315 647 332 q 597 299 619 299 z "},"√":{"ha":774,"x_min":42,"x_max":714,"o":"m 224 668 l 472 128 l 644 1024 q 671 1025 654 1025 q 714 994 714 1025 q 518 3 714 992 q 499 -35 513 -25 q 458 -44 485 -44 l 450 -44 l 158 582 q 65 533 133 572 q 42 564 42 544 q 57 593 42 583 q 224 668 149 649 z "},"∞":{"ha":1018,"x_min":56,"x_max":963,"o":"m 751 233 q 843 271 807 233 q 879 366 879 308 q 842 457 879 424 q 763 490 806 490 q 681 469 719 490 q 623 429 643 447 q 571 379 603 411 l 558 367 q 751 233 674 233 m 139 360 q 139 333 139 360 q 176 270 139 307 q 257 233 213 233 q 341 255 301 233 q 404 297 381 276 q 463 354 428 318 q 424 400 447 375 q 352 458 401 425 q 255 490 303 490 q 173 451 207 490 q 139 360 139 413 m 56 363 q 56 406 56 363 q 115 508 56 450 q 253 567 174 567 q 390 528 332 567 q 511 419 447 490 q 588 492 560 468 q 665 542 615 517 q 765 567 715 567 q 906 509 850 567 q 963 360 963 451 q 900 214 963 269 q 751 158 838 158 q 635 192 692 158 q 507 300 579 225 q 435 232 467 258 q 353 182 403 206 q 256 158 304 158 q 113 217 171 158 q 56 363 56 275 z "},"∫":{"ha":411,"x_min":-42,"x_max":453,"o":"m 251 761 l 264 236 q 210 -131 264 -18 q 47 -243 156 -243 q -17 -222 7 -243 q -42 -172 -42 -201 q -18 -123 -42 -142 q 32 -101 6 -104 q 99 -167 57 -167 q 169 44 169 -167 q 158 296 169 131 q 147 556 147 461 q 364 1026 147 1026 q 428 1006 404 1026 q 453 955 453 985 q 429 906 453 925 q 379 885 406 888 q 313 950 354 950 q 251 761 251 950 z "},"≈":{"ha":743,"x_min":26,"x_max":715,"o":"m 671 276 q 715 227 715 264 q 666 147 715 190 q 550 103 617 103 q 418 130 483 103 q 298 184 353 157 q 206 211 243 211 q 141 196 169 211 q 100 165 113 181 q 71 124 88 150 q 26 173 26 136 q 76 253 26 210 q 199 297 125 297 q 382 243 274 297 q 531 189 490 189 q 601 204 572 189 q 642 235 629 219 q 671 276 654 250 m 671 554 q 715 505 715 542 q 666 424 715 468 q 550 381 617 381 q 418 408 483 381 q 298 462 353 435 q 206 489 243 489 q 141 474 169 489 q 100 443 113 458 q 71 401 88 428 q 26 451 26 414 q 76 531 26 488 q 199 575 125 575 q 382 521 274 575 q 531 467 490 467 q 601 482 572 467 q 642 513 629 497 q 671 554 654 528 z "},"≠":{"ha":743,"x_min":96,"x_max":647,"o":"m 146 261 q 269 254 151 261 l 379 450 q 100 439 222 450 q 96 481 96 460 q 108 521 96 503 q 146 539 121 539 q 233 534 150 539 q 378 529 317 529 l 424 529 q 550 775 494 658 q 594 763 574 774 q 614 735 614 751 q 606 704 614 719 l 508 531 q 643 539 592 533 q 647 499 647 526 q 633 456 647 472 q 594 439 619 439 q 461 447 569 439 l 353 251 l 378 251 q 643 261 558 251 q 647 222 647 249 q 633 178 647 194 q 597 161 619 161 l 381 172 l 308 172 l 304 164 q 183 -67 231 31 q 119 -22 119 -58 q 128 4 119 -12 l 221 169 q 100 161 190 168 q 96 203 96 182 q 108 243 96 225 q 146 261 121 261 z "},"≤":{"ha":743,"x_min":147,"x_max":575,"o":"m 199 101 l 361 96 q 571 106 486 96 q 575 69 575 93 q 561 29 575 46 q 525 13 547 13 l 364 19 q 153 8 275 19 q 149 47 149 29 q 161 83 149 65 q 199 101 174 101 m 265 417 q 408 317 289 397 q 547 221 526 236 q 519 183 538 199 q 482 167 501 167 q 442 185 463 167 l 147 417 l 442 649 q 483 667 465 667 q 519 651 500 667 q 547 613 539 635 q 455 547 524 594 q 328 460 386 500 q 265 417 269 419 z "},"≥":{"ha":743,"x_min":146,"x_max":574,"o":"m 357 19 l 196 13 q 160 29 174 13 q 146 69 146 46 q 150 106 146 93 q 360 96 235 96 l 522 101 q 560 83 547 101 q 572 47 572 65 q 568 8 572 29 q 357 19 446 19 m 456 417 q 393 460 451 419 q 266 547 335 500 q 174 613 197 594 q 201 651 182 635 q 238 667 221 667 q 279 649 256 667 l 574 417 l 279 185 q 239 167 258 167 q 201 183 219 167 q 174 221 183 199 q 313 317 194 236 q 456 417 432 397 z "},"◊":{"ha":711,"x_min":49,"x_max":663,"o":"m 575 476 l 356 888 l 136 476 l 356 65 l 575 476 m 49 476 l 293 928 q 356 953 307 953 q 418 928 406 953 l 663 476 l 418 25 q 354 0 401 0 q 293 25 307 0 l 49 476 z "},"":{"ha":575,"x_min":-40,"x_max":540,"o":"m 124 257 l 4 156 q -40 210 -40 182 q -19 243 -40 226 l 125 353 l 125 467 q 117 718 125 611 q 171 721 139 721 q 235 679 235 721 q 233 636 235 674 q 225 429 225 499 q 408 583 299 486 q 453 531 453 561 q 432 496 453 511 l 225 335 q 233 76 225 121 q 307 74 281 74 q 532 99 481 74 q 540 48 540 72 q 531 14 540 24 q 351 -1 510 -1 l 176 0 q 133 15 144 1 q 122 52 122 29 q 123 139 122 75 q 124 257 124 203 z "},"":{"ha":1172,"x_min":85,"x_max":1121,"o":"m 438 65 q 615 138 551 65 q 682 326 679 210 l 682 350 q 618 563 678 474 q 442 651 558 651 q 260 578 326 651 q 194 390 194 504 q 296 115 194 204 q 438 65 353 65 m 921 -1 l 738 0 q 691 15 703 1 q 679 61 679 29 l 679 72 q 431 -10 585 -10 q 181 90 276 -10 q 85 359 85 190 q 181 628 85 528 q 428 728 276 728 q 674 649 579 728 l 665 711 q 944 721 801 721 q 1103 708 1088 721 q 1119 669 1119 694 q 1110 619 1119 644 q 901 642 1043 642 q 778 639 847 642 q 782 424 782 606 l 871 424 q 1004 428 964 424 q 1008 394 1008 418 q 997 359 1008 369 q 958 347 985 349 q 881 346 931 346 l 782 346 q 790 76 782 122 q 871 74 840 74 q 1111 99 1056 74 q 1121 49 1121 74 q 1110 14 1121 24 q 921 -1 1089 -1 z "},"":{"ha":631,"x_min":63,"x_max":564,"o":"m 319 783 q 197 877 254 825 q 139 960 139 929 q 171 1006 139 992 q 235 942 197 972 q 297 897 272 911 l 322 882 q 348 903 331 889 q 376 926 365 918 q 401 947 386 935 q 427 966 417 958 q 447 981 438 974 q 483 994 469 994 q 515 969 497 994 q 319 783 426 863 m 475 561 q 407 626 456 600 q 304 651 358 651 q 210 623 250 651 q 171 546 171 594 q 200 470 171 497 q 273 432 229 443 q 367 406 317 421 q 462 373 418 390 q 535 313 506 356 q 564 208 564 271 q 485 43 564 96 q 305 -10 407 -10 q 133 21 203 -10 q 63 91 63 51 q 125 161 63 131 q 203 93 147 119 q 320 67 260 67 q 426 97 381 67 q 471 178 471 126 q 431 259 471 231 q 333 301 390 288 q 217 334 275 315 q 119 398 160 353 q 79 517 79 443 q 150 674 79 619 q 316 728 221 728 q 478 701 411 728 q 546 624 546 674 q 475 561 546 575 z "},"":{"ha":654,"x_min":44,"x_max":619,"o":"m 339 783 q 216 877 274 825 q 158 960 158 929 q 190 1006 158 992 q 254 942 217 972 q 317 897 292 911 l 342 882 q 367 903 350 889 q 395 926 385 918 q 421 947 406 935 q 447 966 436 958 q 467 981 457 974 q 503 994 489 994 q 535 969 517 994 q 339 783 446 863 m 601 701 q 619 656 619 681 q 600 608 619 632 l 144 68 q 225 65 183 65 q 589 100 444 65 q 600 44 600 67 q 581 14 600 22 q 357 -6 538 -6 q 65 6 176 -6 q 44 65 44 33 q 72 128 44 96 l 497 642 q 334 646 460 646 q 83 617 208 646 q 72 674 72 647 q 104 711 72 701 q 303 722 151 722 q 601 701 456 722 z "},"":{"ha":363,"x_min":83,"x_max":251,"o":"m 227 11 q 215 -1 227 11 q 168 -14 203 -14 q 108 11 133 -14 q 83 74 83 36 q 108 137 83 111 q 168 163 133 163 q 227 137 203 163 q 251 74 251 111 q 227 11 251 36 m 110 431 q 85 764 110 686 q 157 778 124 778 q 222 725 222 778 q 210 609 222 696 q 197 449 197 522 l 197 403 q 219 276 197 321 q 168 263 192 263 q 111 314 113 263 q 110 431 110 328 z "},"":{"ha":743,"x_min":83,"x_max":635,"o":"m 326 725 q 224 689 264 722 q 185 597 185 656 q 222 508 185 539 q 326 457 258 478 l 326 725 m 383 61 q 501 102 454 64 q 549 205 549 140 q 507 297 549 269 q 383 347 465 325 l 383 61 m 549 636 q 483 693 529 669 q 382 724 436 717 l 382 442 q 419 432 414 433 q 453 422 424 431 q 490 410 483 414 q 522 397 497 407 q 555 381 547 388 q 580 362 563 374 q 603 338 597 350 q 619 310 610 325 q 635 236 635 286 q 564 56 635 115 q 383 -12 493 -3 q 389 -92 386 -68 l 368 -94 q 328 -57 328 -94 l 328 -14 q 156 21 229 -11 q 83 97 83 53 q 99 135 83 121 q 144 163 114 149 q 217 98 165 125 q 328 64 268 71 l 328 360 q 144 449 194 392 q 97 592 97 503 q 160 734 97 681 q 326 800 224 788 q 321 903 324 872 q 344 907 336 907 q 382 869 382 907 l 382 804 q 542 775 468 804 q 617 694 617 746 q 549 636 617 649 z "},"":{"ha":703,"x_min":71,"x_max":661,"o":"m 213 567 q 271 426 213 526 q 345 498 322 465 q 368 569 368 531 q 294 656 368 656 q 213 567 213 656 m 181 203 q 181 173 181 203 q 220 107 181 143 q 315 71 260 71 q 413 93 371 71 q 228 306 311 190 q 181 203 181 263 m 525 336 q 583 258 583 336 q 547 119 583 181 q 658 81 606 82 q 661 45 661 67 q 645 7 661 24 q 596 -10 629 -10 q 475 39 539 -10 q 310 -10 404 -10 q 143 44 215 -10 q 71 194 71 97 q 99 292 71 254 q 185 369 128 331 q 131 471 153 425 q 108 558 108 517 q 164 685 108 638 q 301 732 219 732 q 428 689 383 732 q 472 595 472 646 q 460 510 472 544 q 419 447 447 475 q 310 363 379 407 q 475 172 392 249 q 483 235 483 196 q 467 318 483 275 q 525 336 506 336 z "},"":{"ha":729,"x_min":63,"x_max":667,"o":"m 585 78 q 544 32 585 78 q 364 -14 503 -14 q 144 78 225 -14 q 63 324 63 169 q 144 569 63 478 q 364 660 225 660 q 585 569 503 660 q 667 324 667 478 q 585 78 667 169 m 362 64 q 412 64 362 64 q 524 134 463 64 q 586 308 586 204 q 527 497 586 413 q 367 582 468 582 q 205 512 267 582 q 143 338 143 442 q 202 149 143 233 q 362 64 261 64 z "},"":{"ha":482,"x_min":64,"x_max":438,"o":"m 213 79 l 215 347 q 211 574 215 469 q 67 554 96 560 q 64 578 64 568 q 118 638 64 629 q 267 660 251 660 q 299 647 282 660 q 317 617 317 635 q 314 554 317 599 q 306 310 306 421 l 306 263 q 315 75 306 136 q 432 81 368 75 q 438 50 438 64 q 383 -3 438 -3 l 193 0 q 72 -1 115 0 q 65 32 65 19 q 146 79 65 79 l 213 79 z "},"":{"ha":669,"x_min":43,"x_max":636,"o":"m 175 85 q 422 92 283 85 q 619 114 561 99 q 636 64 636 90 q 532 1 636 6 q 322 -3 428 -3 q 107 0 215 -3 q 43 63 43 0 q 44 79 43 74 q 143 142 67 94 q 258 219 219 190 q 350 292 297 247 q 453 463 453 376 q 415 547 453 514 q 324 581 376 581 q 222 549 271 581 q 143 468 174 517 q 93 511 93 475 q 168 610 93 560 q 339 660 243 660 q 494 611 435 660 q 554 486 554 563 q 460 282 554 390 q 175 85 365 174 z "},"":{"ha":592,"x_min":24,"x_max":513,"o":"m 132 288 q 326 336 261 288 q 390 444 390 385 q 352 544 390 504 q 259 583 314 583 q 158 554 204 583 q 83 471 111 525 q 40 485 57 471 q 24 517 24 499 q 95 612 24 564 q 266 660 167 660 q 426 601 365 660 q 486 461 486 542 q 452 356 486 406 q 353 281 418 307 q 470 197 428 257 q 513 60 513 136 q 421 -142 513 -64 q 171 -221 329 -221 q 65 -201 101 -221 q 28 -145 28 -181 q 74 -99 28 -110 q 189 -140 115 -140 q 354 -90 294 -140 q 414 42 414 -39 q 351 172 414 124 q 181 219 289 219 q 142 228 154 219 q 131 268 131 236 l 132 288 z "},"":{"ha":694,"x_min":24,"x_max":650,"o":"m 107 158 q 260 154 181 154 q 414 158 339 154 q 418 549 414 331 q 107 158 282 413 m 411 642 q 481 658 429 658 q 515 656 490 658 q 511 600 515 651 q 503 274 503 469 l 503 163 q 639 186 606 171 q 650 128 650 161 q 620 85 650 96 q 504 74 590 75 q 531 -210 504 -126 q 472 -221 506 -221 q 425 -203 439 -221 q 411 -134 411 -185 q 414 72 411 -83 q 54 82 131 72 q 24 139 24 86 q 26 174 24 154 q 218 430 85 267 q 411 642 351 593 z "},"":{"ha":621,"x_min":46,"x_max":557,"o":"m 535 610 q 432 549 535 549 q 183 557 329 549 l 164 333 q 275 340 207 340 q 482 274 407 340 q 557 77 557 207 q 465 -137 557 -53 q 208 -221 372 -221 q 88 -201 131 -221 q 46 -145 46 -181 q 92 -99 46 -110 q 215 -140 136 -140 q 394 -83 329 -140 q 458 62 458 -26 q 401 208 458 150 q 225 267 343 267 q 101 260 153 267 q 88 307 88 274 q 106 649 88 340 q 306 646 144 646 q 521 657 467 646 q 535 610 535 636 z "},"":{"ha":678,"x_min":63,"x_max":615,"o":"m 615 294 q 615 235 615 294 q 542 81 615 176 q 332 -14 468 -14 q 129 82 196 -14 q 63 318 63 178 q 112 579 63 458 q 265 783 161 700 q 506 867 369 867 q 563 821 563 867 q 557 782 563 807 q 500 788 518 788 q 311 719 390 788 q 197 554 232 651 q 161 350 161 457 q 347 64 161 64 q 471 126 428 64 q 514 283 514 189 q 470 428 514 376 q 357 481 426 481 q 281 464 318 481 q 267 506 267 486 q 289 538 267 525 q 381 557 328 557 q 558 484 501 557 q 615 294 615 411 z "},"":{"ha":586,"x_min":-10,"x_max":556,"o":"m 451 557 q 97 550 236 550 q -10 611 -10 550 q 4 658 -10 631 q 160 647 72 647 q 544 650 472 647 q 556 599 556 628 q 547 546 556 571 q 419 259 524 471 q 253 -63 314 47 q 172 -197 193 -174 q 125 -221 150 -221 q 36 -167 81 -221 q 272 170 154 -46 q 451 557 389 386 z "},"":{"ha":700,"x_min":63,"x_max":638,"o":"m 378 511 q 473 586 444 546 q 501 678 501 626 q 456 760 501 731 q 349 789 411 789 q 241 760 286 789 q 196 686 196 731 q 378 511 196 582 m 213 113 q 239 88 213 113 q 349 64 264 64 q 484 113 433 64 q 535 231 535 161 q 484 344 535 300 q 328 433 433 389 q 204 351 246 399 q 163 232 163 303 q 213 113 163 161 m 563 55 q 526 20 563 55 q 350 -14 489 -14 q 137 55 211 -14 q 63 220 63 124 q 112 372 63 317 q 256 468 161 426 q 137 556 176 507 q 97 685 97 606 q 171 816 97 765 q 356 867 244 867 q 535 811 468 867 q 601 686 601 756 q 446 476 601 547 q 586 374 535 433 q 638 219 638 315 q 563 55 638 124 z "},"":{"ha":678,"x_min":63,"x_max":615,"o":"m 63 352 q 63 411 63 352 q 136 565 63 469 q 346 660 210 660 q 549 564 482 660 q 615 328 615 468 q 566 67 615 188 q 413 -137 517 -54 q 172 -221 308 -221 q 115 -175 115 -221 q 121 -136 115 -161 q 178 -142 160 -142 q 367 -74 288 -142 q 481 92 446 -6 q 517 296 517 189 q 331 582 517 582 q 207 519 250 582 q 164 363 164 457 q 208 217 164 269 q 321 165 251 165 q 397 182 360 165 q 411 140 411 160 q 389 108 411 121 q 297 89 350 89 q 119 162 176 89 q 63 352 63 235 z "},"":{"ha":451,"x_min":35,"x_max":424,"o":"m 267 13 q 255 0 267 13 q 208 -12 243 -12 q 149 13 174 -12 q 124 75 124 38 q 149 138 124 113 q 208 164 174 164 q 267 138 243 164 q 292 75 292 113 q 267 13 292 38 m 261 278 q 207 264 225 264 q 144 339 144 264 q 172 419 144 379 q 233 487 200 460 q 293 553 265 514 q 321 628 321 592 q 295 683 321 664 q 230 701 269 701 q 152 676 190 701 q 104 610 114 650 q 35 669 35 619 q 88 749 35 719 q 219 779 142 779 q 360 744 296 779 q 424 636 424 710 q 361 492 424 550 q 308 447 335 468 q 246 346 246 397 q 261 278 246 318 z "},"":{"ha":649,"x_min":8,"x_max":661,"o":"m 432 293 q 319 589 406 356 q 210 294 250 389 q 348 292 293 292 q 432 293 403 292 m 181 221 q 90 -22 110 53 q 8 21 8 -11 q 54 143 8 39 q 169 424 100 247 q 271 714 238 601 q 323 718 293 718 q 365 709 353 718 q 391 665 378 700 q 453 498 404 631 q 550 248 503 365 q 661 10 597 131 q 590 -10 622 -10 q 542 18 557 -10 q 460 221 533 38 q 313 218 340 218 q 181 221 286 218 z "},"":{"ha":678,"x_min":97,"x_max":600,"o":"m 282 653 l 211 649 q 215 418 215 583 q 274 415 249 415 q 467 532 467 415 q 282 653 467 653 m 200 103 q 327 64 253 64 q 448 101 401 64 q 494 208 494 139 q 442 316 494 278 q 319 354 390 354 q 215 349 249 354 q 200 103 215 236 m 97 57 q 115 401 115 181 q 101 715 115 622 q 296 728 179 728 q 493 685 413 728 q 574 538 574 642 q 474 392 574 433 q 600 206 600 342 q 529 47 600 104 q 354 -10 458 -10 q 97 57 185 -10 z "},"":{"ha":717,"x_min":67,"x_max":656,"o":"m 601 157 q 656 94 656 135 q 590 22 656 53 q 426 -10 525 -10 q 165 92 264 -10 q 67 363 67 193 q 165 630 67 532 q 432 728 263 728 q 583 694 522 728 q 644 609 644 660 q 568 546 644 558 q 503 624 549 597 q 408 651 458 651 q 242 574 307 651 q 176 371 176 496 q 242 156 176 246 q 425 65 307 65 q 526 89 478 65 q 601 157 574 113 z "},"":{"ha":767,"x_min":97,"x_max":700,"o":"m 97 57 q 114 378 113 150 q 101 715 115 607 q 269 728 168 728 q 442 710 371 728 q 575 650 514 692 q 700 360 700 565 q 607 94 700 199 q 349 -10 514 -10 q 97 57 183 -10 m 281 653 l 211 649 q 215 417 215 593 q 200 104 215 242 q 335 67 257 67 q 463 92 413 67 q 539 158 513 117 q 589 340 589 239 q 509 574 589 496 q 281 653 429 653 z "},"":{"ha":621,"x_min":114,"x_max":569,"o":"m 128 61 l 131 250 l 131 463 q 114 711 131 621 q 393 721 250 721 q 552 708 536 721 q 568 669 568 694 q 558 619 568 644 q 350 642 492 642 q 226 639 296 642 q 231 424 231 606 l 319 424 q 453 428 413 424 q 457 393 457 417 q 445 359 457 369 q 406 347 433 349 q 329 346 379 346 l 231 346 q 239 76 231 122 q 319 74 289 74 q 560 99 503 74 q 569 49 569 74 q 558 14 569 24 q 369 -1 538 -1 l 186 0 q 140 15 151 1 q 128 61 128 29 z "},"":{"ha":568,"x_min":114,"x_max":568,"o":"m 128 54 l 131 246 l 131 464 q 114 711 131 621 q 393 721 250 721 q 552 708 536 721 q 568 669 568 694 q 558 619 568 644 q 350 642 492 642 q 226 639 304 642 q 231 500 231 601 l 231 413 l 319 413 q 453 417 413 413 q 457 378 457 406 q 439 342 457 350 q 357 335 421 335 l 231 335 l 231 217 q 253 3 231 71 q 190 -6 225 -6 q 141 8 154 -6 q 128 54 128 22 z "},"":{"ha":733,"x_min":67,"x_max":664,"o":"m 656 92 q 590 22 656 53 q 426 -10 524 -10 q 165 92 264 -10 q 67 363 67 193 q 165 630 67 532 q 432 728 263 728 q 583 694 522 728 q 644 609 644 660 q 568 546 644 558 q 503 625 547 599 q 408 651 458 651 q 242 574 307 651 q 176 371 176 496 q 241 156 176 246 q 421 65 306 65 q 560 108 504 65 q 551 332 557 235 q 599 335 574 335 q 664 294 664 335 q 660 222 664 293 q 656 92 656 150 z "},"":{"ha":814,"x_min":126,"x_max":701,"o":"m 132 58 l 135 250 l 135 467 q 126 717 135 611 q 179 721 151 721 q 244 679 244 721 q 242 635 244 674 q 235 426 235 538 q 408 425 293 425 q 579 426 522 425 l 579 471 q 571 717 578 617 q 624 721 596 721 q 689 679 689 721 q 686 636 689 674 q 679 438 679 542 l 679 219 q 701 6 679 74 q 642 -3 681 -3 q 590 11 603 -3 q 576 58 576 25 l 579 250 l 579 353 q 406 351 521 351 q 235 353 292 351 l 235 219 q 257 6 235 74 q 197 -3 236 -3 q 145 11 158 -3 q 132 58 132 25 z "},"":{"ha":372,"x_min":128,"x_max":258,"o":"m 133 58 l 136 250 l 136 467 q 128 717 136 611 q 181 721 153 721 q 246 679 246 721 q 244 636 246 674 q 236 438 236 499 l 236 219 q 258 6 236 74 q 199 -3 238 -3 q 147 11 160 -3 q 133 58 133 25 z "},"":{"ha":358,"x_min":14,"x_max":244,"o":"m 136 136 l 135 467 q 126 717 135 632 q 181 721 150 721 q 244 679 244 721 q 242 639 244 674 q 236 456 236 538 l 236 119 q 216 -3 236 49 q 165 -81 196 -56 q 60 -128 107 -128 q 14 -53 17 -128 q 117 0 97 -36 q 136 136 136 36 z "},"":{"ha":639,"x_min":114,"x_max":622,"o":"m 119 58 l 122 250 l 122 467 q 114 717 122 611 q 167 721 139 721 q 232 679 232 721 q 231 636 232 674 q 222 425 222 499 q 391 572 307 485 q 494 719 475 660 q 564 671 564 710 q 485 553 564 642 q 313 388 407 465 q 500 110 431 194 q 586 67 540 67 q 613 69 600 67 q 622 34 622 54 q 600 1 622 14 q 546 -11 578 -11 q 429 44 479 -11 q 349 149 389 90 q 232 325 251 294 l 222 318 l 222 219 q 244 6 222 74 q 185 -3 224 -3 q 133 11 146 -3 q 119 58 119 25 z "},"":{"ha":538,"x_min":114,"x_max":538,"o":"m 119 61 l 122 242 l 122 467 q 114 718 122 611 q 168 721 136 721 q 232 679 232 721 q 231 636 232 674 q 222 438 222 499 l 222 342 q 231 76 222 122 q 304 74 278 74 q 529 99 478 74 q 538 48 538 72 q 528 14 538 24 q 349 -1 507 -1 q 174 0 349 -1 q 131 15 142 1 q 119 61 119 29 z "},"":{"ha":992,"x_min":114,"x_max":878,"o":"m 133 58 l 135 250 l 135 522 q 114 714 135 644 q 186 722 156 722 q 281 661 243 722 q 363 497 319 600 q 432 320 407 393 q 499 117 457 247 q 719 671 583 454 q 808 722 750 722 q 878 714 842 722 q 857 472 857 649 l 857 219 q 878 4 857 74 q 821 -3 860 -3 q 769 11 782 -3 q 756 60 756 25 q 756 267 756 96 q 757 574 757 439 q 544 1 665 383 q 492 -1 528 -3 q 444 25 457 0 q 343 279 414 88 q 222 574 272 471 l 222 219 q 244 4 222 74 q 188 -3 217 -3 q 146 11 158 -3 q 133 58 133 25 z "},"":{"ha":803,"x_min":114,"x_max":676,"o":"m 133 58 l 135 250 l 135 467 q 114 714 135 647 q 178 722 139 722 q 246 690 217 722 q 404 471 300 635 q 588 161 508 307 q 581 435 581 261 q 572 718 581 610 q 613 721 594 721 q 676 679 676 721 q 675 636 676 674 q 668 438 668 524 l 668 251 q 675 0 668 89 q 632 -3 647 -3 q 565 25 585 -3 q 408 281 524 89 q 219 579 293 472 q 222 272 222 475 q 244 4 222 68 q 189 -3 219 -3 q 146 11 158 -3 q 133 58 133 25 z "},"":{"ha":842,"x_min":67,"x_max":775,"o":"m 775 359 q 775 275 775 359 q 678 90 775 190 q 420 -10 582 -10 q 163 90 258 -10 q 67 359 67 190 q 163 628 67 528 q 420 728 258 728 q 678 628 582 728 q 775 359 775 528 m 664 339 q 561 603 664 517 q 421 651 504 651 q 242 578 308 651 q 176 390 176 504 q 278 115 176 204 q 419 65 335 65 q 600 141 536 65 q 664 339 664 217 z "},"":{"ha":635,"x_min":114,"x_max":599,"o":"m 229 356 q 340 333 274 333 q 447 374 407 333 q 488 498 488 415 q 442 617 488 581 q 301 653 397 653 q 225 649 296 653 q 229 439 229 557 l 229 356 m 126 58 l 128 250 l 128 467 q 114 715 128 617 q 288 728 189 728 q 599 492 599 728 q 528 317 599 376 q 370 257 458 257 q 229 292 282 257 l 229 215 q 251 4 229 72 q 190 -3 226 -3 q 140 11 153 -3 q 126 58 126 25 z "},"":{"ha":840,"x_min":67,"x_max":774,"o":"m 418 65 q 599 141 535 65 q 664 341 664 217 q 603 558 664 465 q 425 651 543 651 q 241 578 307 651 q 175 390 175 504 q 276 115 175 204 q 418 65 333 65 m 376 -10 q 149 101 232 3 q 67 364 67 199 q 161 628 67 529 q 419 728 256 728 q 678 628 582 728 q 774 364 774 528 q 688 101 774 200 q 458 -8 603 3 q 586 -86 486 -86 q 672 -61 639 -86 q 706 -36 685 -53 q 749 -100 749 -67 q 704 -151 749 -133 q 587 -169 660 -169 q 453 -129 514 -169 q 376 -10 393 -89 z "},"":{"ha":689,"x_min":114,"x_max":647,"o":"m 126 58 l 129 250 l 129 467 q 114 715 129 619 q 289 728 189 728 q 600 510 600 728 q 551 369 600 424 q 419 297 501 315 q 538 101 504 135 q 608 67 572 67 q 638 69 615 67 q 647 33 647 50 q 557 -10 647 -10 q 407 106 479 -10 q 308 299 360 183 q 282 326 282 304 q 292 368 282 340 q 344 361 322 361 q 449 401 408 361 q 489 515 489 440 q 444 621 489 589 q 308 653 400 653 q 225 649 300 653 q 231 431 231 585 l 231 217 q 251 4 231 72 q 190 -3 228 -3 q 140 11 153 -3 q 126 58 126 25 z "},"":{"ha":631,"x_min":63,"x_max":564,"o":"m 475 561 q 407 626 456 600 q 304 651 358 651 q 210 623 250 651 q 171 546 171 594 q 200 470 171 497 q 273 432 229 443 q 367 406 317 421 q 462 373 418 390 q 535 313 506 356 q 564 208 564 271 q 485 43 564 96 q 305 -10 407 -10 q 133 21 203 -10 q 63 91 63 51 q 125 161 63 131 q 203 93 147 119 q 320 67 260 67 q 426 97 381 67 q 471 178 471 126 q 431 259 471 231 q 333 301 390 288 q 217 334 275 315 q 119 398 160 353 q 79 517 79 443 q 150 674 79 619 q 316 728 221 728 q 478 701 411 728 q 546 624 546 674 q 475 561 546 575 z "},"":{"ha":581,"x_min":21,"x_max":560,"o":"m 239 58 l 242 250 l 242 467 q 239 639 242 531 q 24 635 76 639 q 21 668 21 642 q 33 704 21 694 q 71 714 44 714 q 197 715 71 714 l 332 715 q 557 718 517 715 q 560 685 560 704 q 510 639 560 639 l 349 639 l 342 438 l 342 219 q 364 6 342 74 q 304 -3 343 -3 q 252 11 265 -3 q 239 58 239 25 z "},"":{"ha":806,"x_min":119,"x_max":706,"o":"m 128 207 l 138 542 q 119 713 138 647 q 180 721 144 721 q 233 708 215 721 q 250 658 250 696 q 241 464 250 619 q 232 228 232 308 q 275 110 232 147 q 374 72 318 72 q 488 97 429 72 q 582 156 546 122 l 583 289 l 583 467 q 575 717 583 611 q 629 721 597 721 q 693 679 693 721 q 692 639 693 678 q 683 333 683 500 q 687 110 683 167 q 706 4 690 53 q 645 -3 682 -3 q 594 10 608 -3 q 581 60 581 24 l 581 76 q 472 15 535 39 q 357 -10 410 -10 q 190 38 251 -10 q 128 207 128 85 z "},"":{"ha":697,"x_min":14,"x_max":669,"o":"m 558 721 q 613 728 581 728 q 657 715 644 728 q 669 668 669 703 q 590 356 669 551 q 425 54 511 160 q 374 7 393 17 q 326 -3 354 -3 q 286 0 299 -3 q 163 398 250 174 q 14 681 75 622 q 104 719 58 719 q 139 707 125 719 q 171 660 153 694 q 269 405 211 575 q 361 113 328 235 q 499 381 436 208 q 563 679 563 553 q 558 721 563 704 z "},"":{"ha":1124,"x_min":14,"x_max":1096,"o":"m 985 721 q 1038 728 1007 728 q 1083 717 1069 728 q 1096 678 1096 706 q 1019 356 1096 556 q 860 56 942 157 q 811 9 832 21 q 763 -3 790 -3 q 722 0 735 -3 q 596 413 683 186 q 413 56 515 182 q 364 9 385 21 q 316 -3 343 -3 q 275 0 289 -3 q 157 397 242 172 q 14 681 72 622 q 100 721 58 721 q 164 674 142 721 q 262 414 207 582 q 350 113 317 246 q 481 376 419 204 q 542 667 542 549 q 538 721 542 706 q 591 728 560 728 q 635 717 622 728 q 649 673 649 706 q 636 575 649 640 q 797 113 715 426 q 927 377 865 206 q 989 667 989 549 q 985 721 989 706 z "},"":{"ha":690,"x_min":43,"x_max":681,"o":"m 43 46 q 300 372 43 122 q 50 679 113 632 q 136 728 94 728 q 213 681 178 728 q 367 449 258 624 q 470 594 424 514 q 528 728 517 674 q 626 667 626 715 q 559 544 626 631 q 411 376 492 457 q 681 38 601 88 q 596 -10 636 -10 q 525 31 556 -10 q 343 299 444 132 q 217 138 276 226 q 140 -10 157 50 q 43 46 43 -1 z "},"":{"ha":589,"x_min":0,"x_max":578,"o":"m 246 58 l 247 250 l 247 324 q 0 667 85 613 q 83 722 47 722 q 144 685 118 722 q 315 406 231 564 q 425 586 371 482 q 482 728 479 690 q 578 672 578 722 q 499 525 578 639 q 349 329 419 411 l 349 225 q 369 6 349 78 q 310 -3 349 -3 q 258 11 271 -3 q 246 58 246 25 z "},"":{"ha":654,"x_min":44,"x_max":619,"o":"m 601 701 q 619 656 619 681 q 600 608 619 632 l 144 68 q 225 65 183 65 q 589 100 444 65 q 600 44 600 67 q 581 14 600 22 q 357 -6 538 -6 q 65 6 176 -6 q 44 65 44 33 q 72 128 44 96 l 497 642 q 334 646 460 646 q 83 617 208 646 q 72 674 72 647 q 104 711 72 701 q 303 722 151 722 q 601 701 456 722 z "},"":{"ha":363,"x_min":111,"x_max":279,"o":"m 135 706 q 148 718 135 706 q 194 731 160 731 q 254 706 229 731 q 279 643 279 681 q 254 580 279 606 q 194 554 229 554 q 135 580 160 554 q 111 643 111 606 q 135 706 111 681 m 253 286 q 278 -47 253 31 q 206 -61 239 -61 q 140 -8 140 -61 q 153 108 140 21 q 165 268 165 194 l 165 314 q 143 440 165 396 q 194 454 171 454 q 251 403 250 454 q 253 286 253 389 z "},"":{"ha":743,"x_min":93,"x_max":663,"o":"m 378 69 l 378 571 q 249 488 299 550 q 199 319 199 425 q 249 151 199 214 q 378 69 299 89 m 603 483 q 533 554 569 529 q 440 579 497 579 l 432 579 l 432 61 l 446 61 q 603 157 535 61 q 663 93 663 143 q 588 13 663 43 q 443 -17 513 -17 l 432 -17 q 439 -133 433 -64 l 418 -136 q 378 -99 378 -136 l 378 -12 q 174 88 256 6 q 93 319 93 171 q 174 551 93 468 q 376 651 256 633 q 371 783 376 706 q 394 788 386 788 q 432 750 432 788 l 432 657 l 443 657 q 588 627 513 657 q 663 547 663 597 q 603 483 663 497 z "},"":{"ha":661,"x_min":8,"x_max":661,"o":"m 432 293 q 319 589 406 356 q 210 294 250 389 q 348 292 293 292 q 432 293 403 292 m 181 221 q 90 -22 110 53 q 8 21 8 -11 q 54 143 8 39 q 169 424 100 247 q 271 714 238 601 q 323 718 293 718 q 365 709 353 718 q 391 665 378 700 q 453 498 404 631 q 550 248 503 365 q 661 10 597 131 q 590 -10 622 -10 q 542 18 557 -10 q 460 221 533 38 q 313 218 340 218 q 181 221 286 218 m 518 915 q 475 840 518 876 q 393 804 432 804 q 302 835 354 804 q 225 867 250 867 q 143 808 200 867 q 121 838 121 818 q 165 912 121 875 q 257 949 208 949 q 336 917 282 949 q 418 886 390 886 q 496 944 446 886 q 518 915 518 936 z "},"":{"ha":451,"x_min":28,"x_max":417,"o":"m 184 706 q 196 718 184 706 q 243 731 208 731 q 303 706 278 731 q 328 643 328 681 q 303 580 328 606 q 243 554 278 554 q 184 580 208 554 q 160 643 160 606 q 184 706 160 681 m 190 440 q 244 454 226 454 q 307 379 307 454 q 279 299 307 339 q 219 231 251 258 q 158 165 186 204 q 131 90 131 126 q 156 35 131 54 q 222 17 182 17 q 299 42 261 17 q 347 108 338 68 q 417 49 417 99 q 363 -31 417 -1 q 233 -61 310 -61 q 92 -26 156 -61 q 28 82 28 8 q 90 225 28 168 q 143 271 117 250 q 206 372 206 321 q 190 440 206 400 z "},"":{"ha":661,"x_min":8,"x_max":661,"o":"m 178 1038 q 286 937 229 981 q 368 873 343 893 q 393 832 393 853 q 371 792 393 811 q 265 858 332 821 q 163 921 197 896 q 129 978 129 946 q 178 1038 129 1010 m 432 293 q 319 589 406 356 q 210 294 250 389 q 348 292 293 292 q 432 293 403 292 m 181 221 q 90 -22 110 53 q 8 21 8 -11 q 54 143 8 39 q 169 424 100 247 q 271 714 238 601 q 323 718 293 718 q 365 709 353 718 q 391 665 378 700 q 453 498 404 631 q 550 248 503 365 q 661 10 597 131 q 590 -10 622 -10 q 542 18 557 -10 q 460 221 533 38 q 313 218 340 218 q 181 221 286 218 z "},"":{"ha":661,"x_min":8,"x_max":661,"o":"m 465 1038 q 514 978 514 1010 q 481 923 514 946 q 369 853 449 900 q 271 790 289 807 q 249 832 249 810 q 271 872 249 854 q 351 932 293 889 q 465 1038 408 975 m 432 293 q 319 589 406 356 q 210 294 250 389 q 348 292 293 292 q 432 293 403 292 m 181 221 q 90 -22 110 53 q 8 21 8 -11 q 54 143 8 39 q 169 424 100 247 q 271 714 238 601 q 323 718 293 718 q 365 709 353 718 q 391 665 378 700 q 453 498 404 631 q 550 248 503 365 q 661 10 597 131 q 590 -10 622 -10 q 542 18 557 -10 q 460 221 533 38 q 313 218 340 218 q 181 221 286 218 z "},"":{"ha":661,"x_min":8,"x_max":661,"o":"m 326 1006 q 449 912 392 964 q 507 828 507 860 q 475 783 507 797 q 411 847 449 817 q 349 892 374 878 l 324 907 q 298 885 315 900 q 270 863 281 871 q 244 842 260 854 q 219 823 229 831 q 197 808 208 815 q 163 794 178 794 q 131 819 149 794 q 326 1006 219 926 m 432 293 q 319 589 406 356 q 210 294 250 389 q 348 292 293 292 q 432 293 403 292 m 181 221 q 90 -22 110 53 q 8 21 8 -11 q 54 143 8 39 q 169 424 100 247 q 271 714 238 601 q 323 718 293 718 q 365 709 353 718 q 391 665 378 700 q 453 498 404 631 q 550 248 503 365 q 661 10 597 131 q 590 -10 622 -10 q 542 18 557 -10 q 460 221 533 38 q 313 218 340 218 q 181 221 286 218 z "},"":{"ha":661,"x_min":8,"x_max":661,"o":"m 529 910 q 486 835 529 871 q 404 799 443 799 q 313 830 365 799 q 236 861 261 861 q 154 803 211 861 q 132 832 132 813 q 176 906 132 869 q 268 943 219 943 q 347 912 293 943 q 429 881 401 881 q 507 939 457 881 q 529 910 529 931 m 432 293 q 319 589 406 356 q 210 294 250 389 q 348 292 293 292 q 432 293 403 292 m 181 221 q 90 -22 110 53 q 8 21 8 -11 q 54 143 8 39 q 169 424 100 247 q 271 714 238 601 q 323 718 293 718 q 365 709 353 718 q 391 665 378 700 q 453 498 404 631 q 550 248 503 365 q 661 10 597 131 q 590 -10 622 -10 q 542 18 557 -10 q 460 221 533 38 q 313 218 340 218 q 181 221 286 218 z "},"":{"ha":661,"x_min":8,"x_max":661,"o":"m 432 293 q 319 589 406 356 q 210 294 250 389 q 348 292 293 292 q 432 293 403 292 m 181 221 q 90 -22 110 53 q 8 21 8 -11 q 54 143 8 39 q 169 424 100 247 q 271 714 238 601 q 323 718 293 718 q 365 709 353 718 q 391 665 378 700 q 453 498 404 631 q 550 248 503 365 q 661 10 597 131 q 590 -10 622 -10 q 542 18 557 -10 q 460 221 533 38 q 313 218 340 218 q 181 221 286 218 m 515 855 q 515 839 515 855 q 493 802 515 824 q 442 781 471 781 q 393 801 414 781 q 372 854 372 822 q 394 908 372 886 q 445 929 417 929 q 494 908 474 929 q 515 855 515 886 m 268 855 q 268 839 268 855 q 246 802 268 824 q 195 781 224 781 q 146 801 167 781 q 125 854 125 822 q 147 908 125 886 q 198 929 169 929 q 247 908 226 929 q 268 855 268 886 z "},"":{"ha":661,"x_min":8,"x_max":661,"o":"m 440 908 q 440 881 440 908 q 407 819 440 853 q 319 785 374 785 q 230 819 264 785 q 196 908 196 853 q 230 998 196 964 q 319 1032 264 1032 q 407 998 374 1032 q 440 908 440 964 m 319 831 q 334 831 319 831 q 365 849 349 831 q 382 903 382 868 q 365 963 382 939 q 319 986 349 986 q 272 967 289 986 q 254 913 254 947 q 272 854 254 878 q 319 831 289 831 m 432 293 q 319 589 406 356 q 210 294 250 389 q 348 292 293 292 q 432 293 403 292 m 181 221 q 90 -22 110 53 q 8 21 8 -11 q 54 143 8 39 q 169 424 100 247 q 271 714 238 601 q 323 718 293 718 q 365 709 353 718 q 391 665 378 700 q 453 498 404 631 q 550 248 503 365 q 661 10 597 131 q 590 -10 622 -10 q 542 18 557 -10 q 460 221 533 38 q 313 218 340 218 q 181 221 286 218 z "},"":{"ha":901,"x_min":0,"x_max":850,"o":"m 650 -1 l 467 0 q 420 15 432 1 q 408 64 408 29 q 411 218 408 99 l 340 218 q 206 221 311 218 q 74 -22 93 21 q 0 32 0 -8 q 39 108 0 47 q 369 707 218 400 q 622 721 426 721 q 838 704 817 721 q 849 669 849 694 q 839 619 849 644 q 631 642 772 642 q 507 639 576 642 q 511 424 511 606 l 600 424 q 733 428 693 424 q 738 394 738 418 q 726 359 738 369 q 687 347 714 349 q 610 346 660 346 l 511 346 q 519 76 511 122 q 600 74 569 74 q 840 99 783 74 q 850 49 850 74 q 839 14 850 24 q 650 -1 818 -1 m 411 292 l 411 463 q 408 586 411 506 q 249 294 296 374 q 375 292 332 292 l 411 292 z "},"":{"ha":725,"x_min":67,"x_max":656,"o":"m 601 157 q 656 94 656 135 q 596 24 656 54 q 443 -10 536 -7 q 436 -38 436 -31 q 437 -50 436 -46 q 440 -57 438 -54 q 444 -62 443 -60 q 451 -69 446 -65 q 458 -74 456 -72 q 474 -83 468 -81 q 539 -179 539 -121 q 491 -280 539 -237 q 372 -322 443 -322 q 324 -287 324 -322 q 342 -247 324 -265 q 385 -260 363 -260 q 454 -204 454 -260 q 412 -137 454 -172 q 369 -77 369 -101 q 386 -7 369 -53 q 153 105 239 6 q 67 368 67 204 q 165 630 67 532 q 432 728 263 728 q 583 694 522 728 q 644 609 644 660 q 568 546 644 558 q 503 624 549 597 q 408 651 458 651 q 242 574 307 651 q 176 371 176 496 q 242 156 176 246 q 425 65 307 65 q 526 89 478 65 q 601 157 574 113 z "},"":{"ha":621,"x_min":114,"x_max":569,"o":"m 189 1038 q 297 937 240 981 q 379 873 354 893 q 404 832 404 853 q 382 792 404 811 q 276 858 343 821 q 174 921 208 896 q 140 978 140 946 q 189 1038 140 1010 m 128 61 l 131 250 l 131 463 q 114 711 131 621 q 393 721 250 721 q 552 708 536 721 q 568 669 568 694 q 558 619 568 644 q 350 642 492 642 q 226 639 296 642 q 231 424 231 606 l 319 424 q 453 428 413 424 q 457 393 457 417 q 445 359 457 369 q 406 347 433 349 q 329 346 379 346 l 231 346 q 239 76 231 122 q 319 74 289 74 q 560 99 503 74 q 569 49 569 74 q 558 14 569 24 q 369 -1 538 -1 l 186 0 q 140 15 151 1 q 128 61 128 29 z "},"":{"ha":621,"x_min":114,"x_max":569,"o":"m 510 1038 q 558 978 558 1010 q 526 923 558 946 q 413 853 493 900 q 315 790 333 807 q 293 832 293 810 q 315 872 293 854 q 395 932 338 889 q 510 1038 453 975 m 128 61 l 131 250 l 131 463 q 114 711 131 621 q 393 721 250 721 q 552 708 536 721 q 568 669 568 694 q 558 619 568 644 q 350 642 492 642 q 226 639 296 642 q 231 424 231 606 l 319 424 q 453 428 413 424 q 457 393 457 417 q 445 359 457 369 q 406 347 433 349 q 329 346 379 346 l 231 346 q 239 76 231 122 q 319 74 289 74 q 560 99 503 74 q 569 49 569 74 q 558 14 569 24 q 369 -1 538 -1 l 186 0 q 140 15 151 1 q 128 61 128 29 z "},"":{"ha":621,"x_min":114,"x_max":569,"o":"m 336 1006 q 459 912 401 964 q 517 828 517 860 q 485 783 517 797 q 421 847 458 817 q 358 892 383 878 l 333 907 q 308 885 325 900 q 280 863 290 871 q 254 842 269 854 q 228 823 239 831 q 208 808 218 815 q 172 794 186 794 q 140 819 158 794 q 336 1006 229 926 m 128 61 l 131 250 l 131 463 q 114 711 131 621 q 393 721 250 721 q 552 708 536 721 q 568 669 568 694 q 558 619 568 644 q 350 642 492 642 q 226 639 296 642 q 231 424 231 606 l 319 424 q 453 428 413 424 q 457 393 457 417 q 445 359 457 369 q 406 347 433 349 q 329 346 379 346 l 231 346 q 239 76 231 122 q 319 74 289 74 q 560 99 503 74 q 569 49 569 74 q 558 14 569 24 q 369 -1 538 -1 l 186 0 q 140 15 151 1 q 128 61 128 29 z "},"":{"ha":621,"x_min":114,"x_max":569,"o":"m 519 855 q 519 839 519 855 q 497 802 519 824 q 447 781 475 781 q 397 801 418 781 q 376 854 376 822 q 399 908 376 886 q 449 929 421 929 q 499 908 478 929 q 519 855 519 886 m 272 855 q 272 839 272 855 q 250 802 272 824 q 199 781 228 781 q 150 801 171 781 q 129 854 129 822 q 151 908 129 886 q 202 929 174 929 q 251 908 231 929 q 272 855 272 886 m 128 61 l 131 250 l 131 463 q 114 711 131 621 q 393 721 250 721 q 552 708 536 721 q 568 669 568 694 q 558 619 568 644 q 350 642 492 642 q 226 639 296 642 q 231 424 231 606 l 319 424 q 453 428 413 424 q 457 393 457 417 q 445 359 457 369 q 406 347 433 349 q 329 346 379 346 l 231 346 q 239 76 231 122 q 319 74 289 74 q 560 99 503 74 q 569 49 569 74 q 558 14 569 24 q 369 -1 538 -1 l 186 0 q 140 15 151 1 q 128 61 128 29 z "},"":{"ha":372,"x_min":6,"x_max":269,"o":"m 133 58 l 136 250 l 136 467 q 128 717 136 611 q 181 721 153 721 q 246 679 246 721 q 244 636 246 674 q 236 438 236 499 l 236 219 q 258 6 236 74 q 199 -3 238 -3 q 147 11 160 -3 q 133 58 133 25 m 54 1038 q 163 937 106 981 q 244 873 219 893 q 269 832 269 853 q 247 792 269 811 q 141 858 208 821 q 40 921 74 896 q 6 978 6 946 q 54 1038 6 1010 z "},"":{"ha":372,"x_min":103,"x_max":368,"o":"m 133 58 l 136 250 l 136 467 q 128 717 136 611 q 181 721 153 721 q 246 679 246 721 q 244 636 246 674 q 236 438 236 499 l 236 219 q 258 6 236 74 q 199 -3 238 -3 q 147 11 160 -3 q 133 58 133 25 m 319 1038 q 368 978 368 1010 q 335 923 368 946 q 223 853 303 900 q 125 790 143 807 q 103 832 103 810 q 125 872 103 854 q 205 932 147 889 q 319 1038 263 975 z "},"":{"ha":372,"x_min":-4,"x_max":372,"o":"m 133 58 l 136 250 l 136 467 q 128 717 136 611 q 181 721 153 721 q 246 679 246 721 q 244 636 246 674 q 236 438 236 499 l 236 219 q 258 6 236 74 q 199 -3 238 -3 q 147 11 160 -3 q 133 58 133 25 m 192 1006 q 315 912 257 964 q 372 828 372 860 q 340 783 372 797 q 276 847 314 817 q 214 892 239 878 l 189 907 q 163 885 181 900 q 135 863 146 871 q 110 842 125 854 q 84 823 94 831 q 64 808 74 815 q 28 794 43 794 q -4 819 14 794 q 192 1006 85 926 z "},"":{"ha":372,"x_min":-10,"x_max":381,"o":"m 133 58 l 136 250 l 136 467 q 128 717 136 611 q 181 721 153 721 q 246 679 246 721 q 244 636 246 674 q 236 438 236 499 l 236 219 q 258 6 236 74 q 199 -3 238 -3 q 147 11 160 -3 q 133 58 133 25 m 381 855 q 381 839 381 855 q 358 802 381 824 q 308 781 336 781 q 258 801 279 781 q 238 854 238 822 q 260 908 238 886 q 310 929 282 929 q 360 908 339 929 q 381 855 381 886 m 133 855 q 133 839 133 855 q 111 802 133 824 q 60 781 89 781 q 11 801 32 781 q -10 854 -10 822 q 13 908 -10 886 q 63 929 35 929 q 113 908 92 929 q 133 855 133 886 z "},"":{"ha":742,"x_min":-28,"x_max":657,"o":"m 21 422 l 72 424 q 58 715 72 607 q 226 728 125 728 q 399 710 328 728 q 531 650 471 692 q 657 360 657 565 q 564 94 657 199 q 306 -10 471 -10 q 54 57 140 -10 q 71 346 68 143 q -24 342 22 346 q -28 376 -28 353 q -16 410 -28 400 q 21 422 -4 421 m 238 653 l 168 649 q 172 478 172 593 l 172 424 l 228 424 q 361 428 321 424 q 365 393 365 417 q 353 359 365 369 q 315 347 342 349 q 238 346 288 346 l 171 346 q 157 104 165 178 q 292 67 214 67 q 419 92 369 67 q 496 158 469 117 q 546 340 546 239 q 466 574 546 496 q 238 653 386 653 z "},"":{"ha":790,"x_min":114,"x_max":676,"o":"m 133 58 l 135 250 l 135 467 q 114 714 135 647 q 178 722 139 722 q 246 690 217 722 q 404 471 300 635 q 588 161 508 307 q 581 435 581 261 q 572 718 581 610 q 613 721 594 721 q 676 679 676 721 q 675 636 676 674 q 668 438 668 524 l 668 251 q 675 0 668 89 q 632 -3 647 -3 q 565 25 585 -3 q 408 281 524 89 q 219 579 293 472 q 222 272 222 475 q 244 4 222 68 q 189 -3 219 -3 q 146 11 158 -3 q 133 58 133 25 m 593 910 q 550 835 593 871 q 468 799 507 799 q 377 830 429 799 q 300 861 325 861 q 218 803 275 861 q 196 832 196 813 q 240 906 196 869 q 332 943 283 943 q 411 912 357 943 q 493 881 465 881 q 571 939 521 881 q 593 910 593 931 z "},"":{"ha":842,"x_min":67,"x_max":775,"o":"m 258 1038 q 367 937 310 981 q 449 873 424 893 q 474 832 474 853 q 451 792 474 811 q 345 858 413 821 q 244 921 278 896 q 210 978 210 946 q 258 1038 210 1010 m 775 359 q 775 275 775 359 q 678 90 775 190 q 420 -10 582 -10 q 163 90 258 -10 q 67 359 67 190 q 163 628 67 528 q 420 728 258 728 q 678 628 582 728 q 775 359 775 528 m 664 339 q 561 603 664 517 q 421 651 504 651 q 242 578 308 651 q 176 390 176 504 q 278 115 176 204 q 419 65 335 65 q 600 141 536 65 q 664 339 664 217 z "},"":{"ha":842,"x_min":67,"x_max":775,"o":"m 565 1038 q 614 978 614 1010 q 581 923 614 946 q 469 853 549 900 q 371 790 389 807 q 349 832 349 810 q 371 872 349 854 q 451 932 393 889 q 565 1038 508 975 m 775 359 q 775 275 775 359 q 678 90 775 190 q 420 -10 582 -10 q 163 90 258 -10 q 67 359 67 190 q 163 628 67 528 q 420 728 258 728 q 678 628 582 728 q 775 359 775 528 m 664 339 q 561 603 664 517 q 421 651 504 651 q 242 578 308 651 q 176 390 176 504 q 278 115 176 204 q 419 65 335 65 q 600 141 536 65 q 664 339 664 217 z "},"":{"ha":842,"x_min":67,"x_max":775,"o":"m 429 1006 q 552 912 494 964 q 610 828 610 860 q 578 783 610 797 q 514 847 551 817 q 451 892 476 878 l 426 907 q 401 885 418 900 q 373 863 383 871 q 347 842 363 854 q 322 823 332 831 q 300 808 311 815 q 265 794 279 794 q 233 819 251 794 q 429 1006 322 926 m 775 359 q 775 275 775 359 q 678 90 775 190 q 420 -10 582 -10 q 163 90 258 -10 q 67 359 67 190 q 163 628 67 528 q 420 728 258 728 q 678 628 582 728 q 775 359 775 528 m 664 339 q 561 603 664 517 q 421 651 504 651 q 242 578 308 651 q 176 390 176 504 q 278 115 176 204 q 419 65 335 65 q 600 141 536 65 q 664 339 664 217 z "},"":{"ha":842,"x_min":67,"x_max":775,"o":"m 619 910 q 576 835 619 871 q 494 799 533 799 q 403 830 456 799 q 326 861 351 861 q 244 803 301 861 q 222 832 222 813 q 266 906 222 869 q 358 943 310 943 q 438 912 383 943 q 519 881 492 881 q 597 939 547 881 q 619 910 619 931 m 775 359 q 775 275 775 359 q 678 90 775 190 q 420 -10 582 -10 q 163 90 258 -10 q 67 359 67 190 q 163 628 67 528 q 420 728 258 728 q 678 628 582 728 q 775 359 775 528 m 664 339 q 561 603 664 517 q 421 651 504 651 q 242 578 308 651 q 176 390 176 504 q 278 115 176 204 q 419 65 335 65 q 600 141 536 65 q 664 339 664 217 z "},"":{"ha":842,"x_min":67,"x_max":775,"o":"m 617 855 q 617 839 617 855 q 594 802 617 824 q 544 781 572 781 q 494 801 515 781 q 474 854 474 822 q 496 908 474 886 q 547 929 518 929 q 596 908 575 929 q 617 855 617 886 m 369 855 q 369 839 369 855 q 347 802 369 824 q 297 781 325 781 q 247 801 268 781 q 226 854 226 822 q 249 908 226 886 q 299 929 271 929 q 349 908 328 929 q 369 855 369 886 m 775 359 q 775 275 775 359 q 678 90 775 190 q 420 -10 582 -10 q 163 90 258 -10 q 67 359 67 190 q 163 628 67 528 q 420 728 258 728 q 678 628 582 728 q 775 359 775 528 m 664 339 q 561 603 664 517 q 421 651 504 651 q 242 578 308 651 q 176 390 176 504 q 278 115 176 204 q 419 65 335 65 q 600 141 536 65 q 664 339 664 217 z "},"":{"ha":842,"x_min":67,"x_max":775,"o":"m 176 390 q 253 139 176 229 l 525 628 q 421 651 481 651 q 242 578 308 651 q 176 390 176 504 m 419 65 q 600 141 536 65 q 664 353 664 217 q 586 581 664 490 l 314 89 q 419 65 358 65 m 274 15 q 207 -117 254 -15 q 143 -72 143 -108 q 151 -46 143 -62 l 206 51 q 67 358 67 149 q 163 628 67 528 q 419 728 258 728 q 567 701 496 728 q 633 838 593 751 q 677 825 657 836 q 697 800 697 814 q 689 767 697 786 l 633 667 q 775 358 775 567 q 678 90 775 190 q 419 -10 582 -10 q 274 15 344 -10 z "},"":{"ha":806,"x_min":119,"x_max":706,"o":"m 225 1038 q 333 937 276 981 q 415 873 390 893 q 440 832 440 853 q 418 792 440 811 q 312 858 379 821 q 210 921 244 896 q 176 978 176 946 q 225 1038 176 1010 m 128 207 l 138 542 q 119 713 138 647 q 180 721 144 721 q 233 708 215 721 q 250 658 250 696 q 241 464 250 619 q 232 228 232 308 q 275 110 232 147 q 374 72 318 72 q 488 97 429 72 q 582 156 546 122 l 583 289 l 583 467 q 575 717 583 611 q 629 721 597 721 q 693 679 693 721 q 692 639 693 678 q 683 333 683 500 q 687 110 683 167 q 706 4 690 53 q 645 -3 682 -3 q 594 10 608 -3 q 581 60 581 24 l 581 76 q 472 15 535 39 q 357 -10 410 -10 q 190 38 251 -10 q 128 207 128 85 z "},"":{"ha":806,"x_min":119,"x_max":706,"o":"m 578 1038 q 626 978 626 1010 q 594 923 626 946 q 481 853 561 900 q 383 790 401 807 q 361 832 361 810 q 383 872 361 854 q 463 932 406 889 q 578 1038 521 975 m 128 207 l 138 542 q 119 713 138 647 q 180 721 144 721 q 233 708 215 721 q 250 658 250 696 q 241 464 250 619 q 232 228 232 308 q 275 110 232 147 q 374 72 318 72 q 488 97 429 72 q 582 156 546 122 l 583 289 l 583 467 q 575 717 583 611 q 629 721 597 721 q 693 679 693 721 q 692 639 693 678 q 683 333 683 500 q 687 110 683 167 q 706 4 690 53 q 645 -3 682 -3 q 594 10 608 -3 q 581 60 581 24 l 581 76 q 472 15 535 39 q 357 -10 410 -10 q 190 38 251 -10 q 128 207 128 85 z "},"":{"ha":806,"x_min":119,"x_max":706,"o":"m 421 1006 q 544 912 486 964 q 601 828 601 860 q 569 783 601 797 q 506 847 543 817 q 443 892 468 878 l 418 907 q 392 885 410 900 q 365 863 375 871 q 339 842 354 854 q 313 823 324 831 q 292 808 303 815 q 257 794 271 794 q 225 819 243 794 q 421 1006 314 926 m 128 207 l 138 542 q 119 713 138 647 q 180 721 144 721 q 233 708 215 721 q 250 658 250 696 q 241 464 250 619 q 232 228 232 308 q 275 110 232 147 q 374 72 318 72 q 488 97 429 72 q 582 156 546 122 l 583 289 l 583 467 q 575 717 583 611 q 629 721 597 721 q 693 679 693 721 q 692 639 693 678 q 683 333 683 500 q 687 110 683 167 q 706 4 690 53 q 645 -3 682 -3 q 594 10 608 -3 q 581 60 581 24 l 581 76 q 472 15 535 39 q 357 -10 410 -10 q 190 38 251 -10 q 128 207 128 85 z "},"":{"ha":806,"x_min":119,"x_max":706,"o":"m 608 855 q 608 839 608 855 q 586 802 608 824 q 535 781 564 781 q 486 801 507 781 q 465 854 465 822 q 488 908 465 886 q 538 929 510 929 q 588 908 567 929 q 608 855 608 886 m 361 855 q 361 839 361 855 q 339 802 361 824 q 288 781 317 781 q 239 801 260 781 q 218 854 218 822 q 240 908 218 886 q 291 929 263 929 q 340 908 319 929 q 361 855 361 886 m 128 207 l 138 542 q 119 713 138 647 q 180 721 144 721 q 233 708 215 721 q 250 658 250 696 q 241 464 250 619 q 232 228 232 308 q 275 110 232 147 q 374 72 318 72 q 488 97 429 72 q 582 156 546 122 l 583 289 l 583 467 q 575 717 583 611 q 629 721 597 721 q 693 679 693 721 q 692 639 693 678 q 683 333 683 500 q 687 110 683 167 q 706 4 690 53 q 645 -3 682 -3 q 594 10 608 -3 q 581 60 581 24 l 581 76 q 472 15 535 39 q 357 -10 410 -10 q 190 38 251 -10 q 128 207 128 85 z "},"":{"ha":589,"x_min":0,"x_max":578,"o":"m 481 1038 q 529 978 529 1010 q 497 923 529 946 q 384 853 464 900 q 286 790 304 807 q 264 832 264 810 q 286 872 264 854 q 366 932 308 889 q 481 1038 424 975 m 246 58 l 247 250 l 247 324 q 0 667 85 613 q 83 722 47 722 q 144 685 118 722 q 315 406 231 564 q 425 586 371 482 q 482 728 479 690 q 578 672 578 722 q 499 525 578 639 q 349 329 419 411 l 349 225 q 369 6 349 78 q 310 -3 349 -3 q 258 11 271 -3 q 246 58 246 25 z "},"":{"ha":651,"x_min":114,"x_max":592,"o":"m 119 58 l 122 250 l 122 467 q 114 717 122 611 q 167 721 139 721 q 232 679 232 721 q 226 599 232 665 q 281 600 246 600 q 592 364 592 600 q 522 189 592 249 q 366 129 451 129 q 222 164 281 129 q 244 6 225 65 q 185 -3 224 -3 q 133 11 146 -3 q 119 58 119 25 m 222 228 q 333 206 267 206 q 440 247 400 206 q 481 370 481 288 q 435 489 481 453 q 294 525 390 525 q 224 521 290 525 q 222 438 222 494 l 222 228 z "},"":{"ha":589,"x_min":0,"x_max":578,"o":"m 493 855 q 493 839 493 855 q 471 802 493 824 q 420 781 449 781 q 371 801 392 781 q 350 854 350 822 q 372 908 350 886 q 423 929 394 929 q 472 908 451 929 q 493 855 493 886 m 246 855 q 246 839 246 855 q 224 802 246 824 q 173 781 201 781 q 124 801 144 781 q 103 854 103 822 q 125 908 103 886 q 176 929 147 929 q 225 908 204 929 q 246 855 246 886 m 246 58 l 247 250 l 247 324 q 0 667 85 613 q 83 722 47 722 q 144 685 118 722 q 315 406 231 564 q 425 586 371 482 q 482 728 479 690 q 578 672 578 722 q 499 525 578 639 q 349 329 419 411 l 349 225 q 369 6 349 78 q 310 -3 349 -3 q 258 11 271 -3 q 246 58 246 25 z "},"":{"ha":1133,"x_min":111,"x_max":1022,"o":"m 731 410 q 736 347 736 360 q 872 317 821 322 q 953 284 924 311 q 992 220 982 257 q 1012 135 1001 183 q 1022 8 1022 86 q 1013 -1 1022 -1 l 976 -1 q 968 8 968 -1 q 978 17 968 17 l 1004 17 q 979 190 1004 82 l 972 221 q 942 271 967 249 q 867 298 917 293 q 769 319 817 303 q 719 338 721 335 q 716 374 718 346 q 713 411 714 401 q 639 429 675 411 q 635 439 635 431 q 644 447 635 447 q 669 438 646 447 q 722 429 692 429 q 760 438 753 429 q 780 522 768 446 q 801 618 792 597 q 807 704 807 636 q 801 800 807 772 q 621 935 776 935 q 439 876 504 935 q 374 719 374 817 q 405 559 374 621 q 490 483 436 497 q 499 472 499 481 q 494 399 499 464 q 488 332 490 335 q 483 329 486 329 q 368 299 447 329 q 258 264 289 268 q 164 189 181 253 l 154 149 q 131 17 135 65 l 328 17 q 338 8 338 17 q 328 -1 338 -1 l 121 -1 q 111 8 111 -1 q 136 150 115 67 l 147 192 q 183 252 153 225 q 250 284 213 279 q 365 317 288 289 q 474 347 442 346 q 481 467 479 425 q 388 551 421 486 q 356 721 356 615 q 425 891 356 826 q 621 956 494 956 q 822 804 789 956 q 826 714 826 779 q 819 611 826 649 q 794 505 801 567 q 774 428 788 443 q 731 410 761 413 m 704 782 l 711 775 l 686 736 l 668 751 l 704 782 m 715 775 l 722 782 l 758 751 l 740 736 l 715 775 m 718 797 l 708 797 l 701 840 l 725 840 l 718 797 m 707 794 l 703 785 l 660 794 l 668 815 l 707 794 m 722 785 l 719 794 l 758 815 l 767 794 l 722 785 z "},"ﬀ":{"ha":849,"x_min":7,"x_max":897,"o":"m 117 68 l 119 568 q 11 561 74 568 q 7 599 7 575 q 58 643 7 638 q 119 646 89 646 q 181 928 119 854 q 347 993 236 993 q 433 978 397 993 q 469 936 469 963 q 442 872 469 910 q 325 915 394 915 q 233 867 256 915 q 211 711 211 818 l 211 646 l 547 646 q 608 928 547 854 q 775 993 664 993 q 861 978 825 993 q 897 936 897 963 q 869 872 897 910 q 753 915 822 915 q 661 867 683 915 q 639 711 639 818 l 639 646 q 828 651 774 646 q 833 616 833 640 q 819 582 833 592 q 766 571 804 572 q 639 569 728 569 l 639 281 q 665 7 639 96 q 607 -4 640 -4 q 559 13 574 -4 q 544 68 544 29 l 547 568 l 211 568 l 211 281 q 238 7 211 96 q 179 -4 213 -4 q 131 13 146 -4 q 117 68 117 29 z "},"ﬁ":{"ha":690,"x_min":7,"x_max":614,"o":"m 117 68 l 119 568 q 11 561 74 568 q 7 599 7 575 q 58 643 7 638 q 119 646 89 646 l 119 671 q 190 919 119 844 q 363 994 260 994 q 504 969 436 994 q 572 889 572 943 q 552 849 572 865 q 497 833 532 833 q 438 900 469 879 q 346 921 407 921 q 249 876 285 921 q 213 711 213 832 l 213 646 l 486 646 q 533 650 508 650 q 599 597 599 650 q 596 542 599 590 q 588 244 588 393 q 614 7 588 94 q 555 -4 589 -4 q 507 14 521 -4 q 493 75 493 32 l 496 321 q 490 569 496 471 l 213 569 l 213 281 q 239 7 213 96 q 181 -4 214 -4 q 132 13 147 -4 q 117 68 117 29 z "},"ﬂ":{"ha":738,"x_min":7,"x_max":654,"o":"m 117 68 l 119 568 q 11 561 74 568 q 7 599 7 575 q 58 643 7 638 q 119 646 89 646 q 181 928 119 854 q 347 993 236 993 q 433 978 397 993 q 469 936 469 963 q 442 872 469 910 q 325 915 394 915 q 233 867 256 915 q 211 711 211 818 l 211 646 q 400 651 346 646 q 406 616 406 640 q 391 582 406 592 q 338 571 376 572 q 211 569 300 569 l 211 281 q 238 7 211 96 q 179 -4 213 -4 q 131 13 146 -4 q 117 68 117 29 m 535 68 l 538 465 l 538 626 q 526 1028 538 954 q 575 1032 549 1032 q 639 979 639 1032 q 636 906 639 974 q 629 497 629 733 l 629 281 q 654 7 629 96 q 597 -4 629 -4 q 549 13 564 -4 q 535 68 535 29 z "},"ﬃ":{"ha":1118,"x_min":7,"x_max":1042,"o":"m 117 68 l 119 568 q 11 561 74 568 q 7 599 7 575 q 58 643 7 638 q 119 646 89 646 q 181 928 119 854 q 347 993 236 993 q 433 978 397 993 q 469 936 469 963 q 442 872 469 910 q 325 915 394 915 q 233 867 256 915 q 211 711 211 818 l 211 646 l 547 646 l 547 671 q 617 919 547 844 q 790 994 688 994 q 932 969 864 994 q 1000 889 1000 943 q 980 849 1000 865 q 925 833 960 833 q 866 900 897 879 q 774 921 835 921 q 676 876 713 921 q 640 711 640 832 l 640 646 l 914 646 q 961 650 936 650 q 1026 597 1026 650 q 1024 540 1026 589 q 1015 244 1015 394 q 1042 7 1015 94 q 983 -4 1017 -4 q 935 14 949 -4 q 921 75 921 32 l 924 321 q 918 569 924 471 l 640 569 l 640 281 q 667 7 640 96 q 608 -4 642 -4 q 560 13 575 -4 q 544 68 544 29 l 547 568 l 211 568 l 211 281 q 238 7 211 96 q 179 -4 213 -4 q 131 13 146 -4 q 117 68 117 29 z "},"ﬄ":{"ha":1165,"x_min":7,"x_max":1082,"o":"m 963 68 l 965 465 l 965 626 q 954 1028 965 954 q 1003 1032 976 1032 q 1067 979 1067 1032 q 1064 906 1067 974 q 1057 497 1057 733 l 1057 281 q 1082 7 1057 96 q 1024 -4 1057 -4 q 977 13 992 -4 q 963 68 963 29 m 544 68 l 547 568 l 211 568 l 211 281 q 238 7 211 96 q 179 -4 213 -4 q 131 13 146 -4 q 117 68 117 29 l 119 568 q 11 561 74 568 q 7 599 7 575 q 58 643 7 638 q 119 646 89 646 q 181 928 119 854 q 347 993 236 993 q 433 978 397 993 q 469 936 469 963 q 442 872 469 910 q 325 915 394 915 q 233 867 256 915 q 211 711 211 818 l 211 646 l 547 646 q 608 928 547 854 q 775 993 664 993 q 861 978 825 993 q 897 936 897 963 q 869 872 897 910 q 753 915 822 915 q 661 867 683 915 q 639 711 639 818 l 639 646 q 828 651 774 646 q 833 616 833 640 q 819 582 833 592 q 766 571 804 572 q 639 569 728 569 l 639 281 q 665 7 639 96 q 607 -4 640 -4 q 559 13 574 -4 q 544 68 544 29 z "},"ﬆ":{"ha":1071,"x_min":56,"x_max":1050,"o":"m 674 646 l 713 646 q 706 788 708 742 q 678 822 704 807 q 598 836 653 836 q 499 791 543 836 q 456 681 456 746 q 474 604 456 642 q 493 550 493 567 q 431 492 493 507 q 368 557 415 532 q 270 582 321 582 q 186 558 219 582 q 153 490 153 533 q 179 422 153 447 q 246 387 206 397 q 333 363 286 376 q 419 333 379 349 q 486 280 460 317 q 513 189 513 243 q 442 36 513 86 q 280 -14 372 -14 q 122 18 188 -14 q 56 97 56 50 q 118 156 56 138 q 184 88 133 111 q 294 64 235 64 q 428 174 428 64 q 391 240 428 217 q 301 276 354 264 q 196 306 249 289 q 106 365 143 322 q 69 485 69 408 q 140 610 69 561 q 303 660 211 660 q 415 638 361 660 q 401 719 401 681 q 459 848 401 801 q 591 894 517 894 q 719 867 665 894 q 794 813 772 840 q 817 768 817 785 q 811 644 817 719 q 1044 651 943 644 q 1050 616 1050 640 q 1035 582 1050 592 q 981 571 1021 572 q 808 569 942 569 q 806 277 806 419 q 833 97 806 135 q 920 60 860 60 q 1022 101 981 60 q 1047 49 1047 75 q 1011 4 1047 22 q 924 -14 975 -14 q 760 53 808 -14 q 713 251 713 119 q 715 571 715 503 q 586 561 711 571 q 582 601 582 574 q 603 637 582 628 q 674 646 624 646 z "}}}
